<svg xmlns="http://www.w3.org/2000/svg" xmlns:xlink="http://www.w3.org/1999/xlink" width="46.287" height="35.363" viewBox="0 0 46.287 35.363">
  <defs>
    <clipPath id="clip-path">
      <rect id="Rectangle_484" data-name="Rectangle 484" width="46.287" height="35.363" transform="translate(0 0)" fill="#00a5c9"/>
    </clipPath>
  </defs>
  <g id="Group_1279" data-name="Group 1279" transform="translate(0 -0.003)">
    <g id="Group_1278" data-name="Group 1278" transform="translate(0 0.003)" clip-path="url(#clip-path)">
      <path id="Path_9944" data-name="Path 9944" d="M1514.089,140.965a.886.886,0,0,1-.887-.887v-26.51a.887.887,0,0,1,1.773,0v26.51a.887.887,0,0,1-.886.887" transform="translate(-1493.746 -111.233)" fill="#00a5c9"/>
      <path id="Path_9945" data-name="Path 9945" d="M2160.672,1320.365a9.313,9.313,0,1,1,9.313-9.313,9.323,9.323,0,0,1-9.313,9.313m0-16.853a7.54,7.54,0,1,0,7.54,7.54,7.548,7.548,0,0,0-7.54-7.54" transform="translate(-2123.698 -1285.002)" fill="#00a5c9"/>
      <path id="Path_9946" data-name="Path 9946" d="M237.176,29.735a.885.885,0,0,1-.536-.18,6.269,6.269,0,0,0-3.768-1.268H220.545a.886.886,0,0,1-.887-.887V.89A.886.886,0,0,1,220.545,0h12.328a8.058,8.058,0,0,1,4.3,1.256A8.06,8.06,0,0,1,241.48,0h12.328a.886.886,0,0,1,.887.887V17.627a.886.886,0,0,1-.887.887,7.488,7.488,0,0,0-7.434,8.746.887.887,0,0,1-.875,1.027H241.48a6.266,6.266,0,0,0-3.767,1.268.886.886,0,0,1-.536.18m-15.745-3.222h11.441a8.057,8.057,0,0,1,4.3,1.256,8.06,8.06,0,0,1,4.3-1.256h3.028q-.014-.235-.013-.46a9.326,9.326,0,0,1,8.426-9.271V1.776H241.48a6.268,6.268,0,0,0-3.768,1.268.886.886,0,0,1-1.072,0,6.27,6.27,0,0,0-3.768-1.268H221.431Z" transform="translate(-216.834 -0.003)" fill="#00a5c9"/>
      <path id="Path_9947" data-name="Path 9947" d="M20.34,199.938a2.789,2.789,0,0,1-1.228-.283l-1.684-.827a5.124,5.124,0,0,0-2.246-.521H.887A.886.886,0,0,1,0,197.42V169.927a.886.886,0,0,1,.887-.887H3.711a.887.887,0,0,1,0,1.773H1.773v25.72h13.41a6.906,6.906,0,0,1,3.027.7l1.683.827a1.02,1.02,0,0,0,.9,0l1.659-.819a6.908,6.908,0,0,1,3.04-.71H28.4a9.3,9.3,0,0,1,8.577-12.93,9.153,9.153,0,0,1,1.918.2V170.813H36.974a.887.887,0,0,1,0-1.773h2.8a.886.886,0,0,1,.887.887v15.052a.887.887,0,0,1-1.182.836,7.528,7.528,0,0,0-8.874,11.131.887.887,0,0,1-.749,1.362H25.488a5.122,5.122,0,0,0-2.255.526l-1.659.819a2.79,2.79,0,0,1-1.234.286" transform="translate(0 -166.867)" fill="#00a5c9"/>
      <path id="Path_9948" data-name="Path 9948" d="M2807.615,1538.163a.886.886,0,0,1-.887-.886v-10.26a.886.886,0,1,1,1.773,0v10.26a.886.886,0,0,1-.886.886" transform="translate(-2770.641 -1506.508)" fill="#00a5c9"/>
      <path id="Path_9949" data-name="Path 9949" d="M2577.843,2097.966a.883.883,0,0,1-.624-.257l-2.993-2.969a.886.886,0,1,1,1.249-1.259l2.368,2.349,2.369-2.349a.886.886,0,1,1,1.249,1.259l-2.993,2.969a.883.883,0,0,1-.624.257" transform="translate(-2540.869 -2066.311)" fill="#00a5c9"/>
      <path id="Path_9950" data-name="Path 9950" d="M505,346.205h-8.033a.887.887,0,0,1,0-1.773H505a.887.887,0,0,1,0,1.773" transform="translate(-489.698 -340.004)" fill="#00a5c9"/>
      <path id="Path_9951" data-name="Path 9951" d="M505,783.108h-8.033a.887.887,0,0,1,0-1.773H505a.887.887,0,0,1,0,1.773" transform="translate(-489.698 -771.289)" fill="#00a5c9"/>
      <path id="Path_9952" data-name="Path 9952" d="M505,1220.02h-8.033a.887.887,0,0,1,0-1.773H505a.887.887,0,0,1,0,1.773" transform="translate(-489.698 -1202.583)" fill="#00a5c9"/>
      <path id="Path_9953" data-name="Path 9953" d="M505,1656.942h-8.033a.887.887,0,0,1,0-1.773H505a.887.887,0,0,1,0,1.773" transform="translate(-489.698 -1633.888)" fill="#00a5c9"/>
      <path id="Path_9954" data-name="Path 9954" d="M1914.428,346.205h-8.033a.887.887,0,1,1,0-1.773h8.033a.887.887,0,1,1,0,1.773" transform="translate(-1881.008 -340.004)" fill="#00a5c9"/>
      <path id="Path_9955" data-name="Path 9955" d="M1914.428,783.108h-8.033a.887.887,0,1,1,0-1.773h8.033a.887.887,0,1,1,0,1.773" transform="translate(-1881.008 -771.289)" fill="#00a5c9"/>
      <path id="Path_9956" data-name="Path 9956" d="M1912.373,1220.02h-5.979a.887.887,0,1,1,0-1.773h5.979a.887.887,0,0,1,0,1.773" transform="translate(-1881.008 -1202.583)" fill="#00a5c9"/>
      <path id="Path_9957" data-name="Path 9957" d="M1910.384,1656.942h-4.017a.887.887,0,0,1,0-1.773h4.017a.887.887,0,1,1,0,1.773" transform="translate(-1880.981 -1633.888)" fill="#00a5c9"/>
    </g>
  </g>
</svg>
