<svg id="Group_1277" data-name="Group 1277" xmlns="http://www.w3.org/2000/svg" xmlns:xlink="http://www.w3.org/1999/xlink" width="42.157" height="42.157" viewBox="0 0 42.157 42.157">
  <defs>
    <clipPath id="clip-path">
      <rect id="Rectangle_483" data-name="Rectangle 483" width="42.157" height="42.157" fill="#00a5c9"/>
    </clipPath>
  </defs>
  <g id="Group_1276" data-name="Group 1276" clip-path="url(#clip-path)">
    <path id="Path_9943" data-name="Path 9943" d="M42.157,7.728c-.149-.178-.077-.389-.086-.587a7.421,7.421,0,0,0-6.45-7A3.2,3.2,0,0,1,34.428,0H7.729c-.178.149-.39.068-.586.088A6.413,6.413,0,0,0,3.929.943C1.661,2.517.006,4.439.079,7.4A.255.255,0,0,1,0,7.552V34.6c.132.149.068.332.089.5a6.485,6.485,0,0,0,.844,3.107c1.578,2.271,3.5,3.942,6.47,3.866a.257.257,0,0,1,.151.079H34.428c.178-.149.39-.068.586-.087a6.412,6.412,0,0,0,3.213-.857c2.268-1.574,3.924-3.5,3.85-6.459a.254.254,0,0,1,.079-.15ZM13.343,33.387c-1.285-.044-2.574-.033-3.86,0-.5.011-.715-.082-.713-.66q.033-8.993,0-17.986c0-.524.118-.716.676-.7q1.972.062,3.947,0c.573-.019.67.2.666.708-.02,2.983-.01,5.966-.01,8.949s-.013,5.966.012,8.949c0,.558-.13.763-.721.743m-2-21.6A3,3,0,0,1,8.373,8.67a3.045,3.045,0,1,1,6.09.064,3,3,0,0,1-3.121,3.053m23.148,21.6c-1.317-.029-2.635-.035-3.952,0-.542.015-.694-.146-.689-.688.025-2.986.007-5.972.015-8.958a5.944,5.944,0,0,0-.333-2.153,3.139,3.139,0,0,0-2.818-2.279,3.307,3.307,0,0,0-3.348,1.937,5.061,5.061,0,0,0-.533,2.458c.008,2.957-.019,5.914.02,8.87.009.671-.185.842-.833.816-1.286-.051-2.576-.033-3.864-.006-.458.009-.6-.132-.6-.595q.02-9.09,0-18.18c0-.4.1-.571.538-.564q2.107.033,4.215,0c.447-.008.539.182.528.575-.022.729-.006,1.46-.006,2.388a7.1,7.1,0,0,1,7.375-2.768c2.851.556,4.843,3.209,4.9,6.656.064,3.951.011,7.9.033,11.856,0,.511-.165.644-.652.633" transform="translate(0 0.001)" fill="#00a5c9"/>
  </g>
</svg>
