<svg xmlns="http://www.w3.org/2000/svg" width="15.479" height="24.766" viewBox="0 0 15.479 24.766">
  <g id="Group_7680" data-name="Group 7680" transform="translate(-205.819 -1239.677)">
    <path id="Icon_metro-location" data-name="Icon metro-location" d="M16.094,1.928A7.739,7.739,0,0,0,8.355,9.667c0,7.739,7.739,17.026,7.739,17.026s7.739-9.287,7.739-17.026a7.739,7.739,0,0,0-7.739-7.739Zm0,12.48a4.74,4.74,0,1,1,4.74-4.74A4.74,4.74,0,0,1,16.094,14.408Zm-3-4.74a3,3,0,1,1,3,3A3,3,0,0,1,13.1,9.667Z" transform="translate(197.464 1237.749)" fill="#fff"/>
  </g>
</svg>
