<svg xmlns="http://www.w3.org/2000/svg" width="22.883" height="17.163" viewBox="0 0 22.883 17.163">
  <g id="Group_7682" data-name="Group 7682" transform="translate(-198.559 -1393.419)">
    <path id="Icon_awesome-envelope" data-name="Icon awesome-envelope" d="M22.45,10.167a.269.269,0,0,1,.434.21v9.14a2.146,2.146,0,0,1-2.145,2.145H2.145A2.146,2.146,0,0,1,0,19.517V10.382a.267.267,0,0,1,.434-.21c1,.778,2.329,1.765,6.887,5.077.943.688,2.534,2.136,4.121,2.127,1.6.013,3.218-1.466,4.125-2.127C20.126,11.937,21.449,10.945,22.45,10.167ZM11.442,15.942c1.037.018,2.53-1.305,3.281-1.85,5.931-4.3,6.382-4.679,7.75-5.752a1.07,1.07,0,0,0,.411-.845V6.645A2.146,2.146,0,0,0,20.738,4.5H2.145A2.146,2.146,0,0,0,0,6.645v.849a1.076,1.076,0,0,0,.411.845c1.368,1.068,1.819,1.448,7.75,5.752C8.912,14.637,10.4,15.96,11.442,15.942Z" transform="translate(198.559 1388.919)" fill="#fff"/>
  </g>
</svg>
