<svg xmlns="http://www.w3.org/2000/svg" xmlns:xlink="http://www.w3.org/1999/xlink" width="43" height="30" viewBox="0 0 43 30">
  <defs>
    <clipPath id="clip-path">
      <rect id="Rectangle_485" data-name="Rectangle 485" width="43" height="30" transform="translate(0 0)" fill="#00a5c9"/>
    </clipPath>
  </defs>
  <g id="Group_1281" data-name="Group 1281" transform="translate(0.468 -0.101)">
    <g id="Group_1280" data-name="Group 1280" transform="translate(-0.468 0.101)" clip-path="url(#clip-path)">
      <path id="Path_9958" data-name="Path 9958" d="M36.659,0H5.237A5.242,5.242,0,0,0,0,5.237V24.876a5.242,5.242,0,0,0,5.237,5.237H36.659A5.242,5.242,0,0,0,41.9,24.876V5.237A5.242,5.242,0,0,0,36.659,0m2.618,24.876a2.621,2.621,0,0,1-2.618,2.618H5.237a2.621,2.621,0,0,1-2.618-2.618V5.237A2.621,2.621,0,0,1,5.237,2.618H36.659a2.621,2.621,0,0,1,2.618,2.618Z" transform="translate(0.559 -0.121)" fill="#00a5c9"/>
      <path id="Path_9959" data-name="Path 9959" d="M35.126,5.48A1.309,1.309,0,0,0,33.284,5.3L19.711,16.4,6.138,5.3A1.309,1.309,0,0,0,4.48,7.323l14.4,11.783a1.309,1.309,0,0,0,1.658,0l14.4-11.783a1.308,1.308,0,0,0,.185-1.842" transform="translate(1.796 1.425)" fill="#00a5c9"/>
      <path id="Path_9960" data-name="Path 9960" d="M24.235,13.384a1.309,1.309,0,0,0-1.851,1.851l5.237,5.237a1.309,1.309,0,0,0,1.851-1.851Z" transform="translate(7.362 3.899)" fill="#00a5c9"/>
      <path id="Path_9961" data-name="Path 9961" d="M9.621,13.384,4.384,18.621a1.309,1.309,0,1,0,1.851,1.851l5.237-5.237a1.309,1.309,0,0,0-1.851-1.851" transform="translate(1.796 3.899)" fill="#00a5c9"/>
    </g>
  </g>
</svg>
