<svg id="Group_1286" data-name="Group 1286" xmlns="http://www.w3.org/2000/svg" xmlns:xlink="http://www.w3.org/1999/xlink" width="33.384" height="33.384" viewBox="0 0 33.384 33.384">
  <defs>
    <clipPath id="clip-path">
      <rect id="Rectangle_486" data-name="Rectangle 486" width="33.384" height="33.384" fill="#00a5c9"/>
    </clipPath>
  </defs>
  <g id="Group_1285" data-name="Group 1285" clip-path="url(#clip-path)">
    <path id="Path_9962" data-name="Path 9962" d="M31.823,14.848A27.967,27.967,0,0,0,16.986.082,1.068,1.068,0,0,0,15.58.7a1.126,1.126,0,0,0,.594,1.451A25.782,25.782,0,0,1,29.853,15.761a1.08,1.08,0,0,0,.986.659,1.042,1.042,0,0,0,.441-.1,1.13,1.13,0,0,0,.543-1.473" transform="translate(1.466 0)" fill="#00a5c9"/>
    <path id="Path_9963" data-name="Path 9963" d="M15.651,7.572a15.617,15.617,0,0,1,8.3,8.239,1.044,1.044,0,0,0,.953.635,1.007,1.007,0,0,0,.427-.094,1.086,1.086,0,0,0,.524-1.421A17.726,17.726,0,0,0,16.437,5.58a1.034,1.034,0,0,0-1.361.592,1.086,1.086,0,0,0,.575,1.4" transform="translate(1.418 0.52)" fill="#00a5c9"/>
    <path id="Path_9964" data-name="Path 9964" d="M27.616,21.043a2.545,2.545,0,0,0-3.847,0c-.9.892-1.8,1.783-2.683,2.69a.613.613,0,0,1-.432.232.631.631,0,0,1-.309-.1c-.581-.317-1.2-.575-1.76-.922a27.884,27.884,0,0,1-6.729-6.123,15.967,15.967,0,0,1-2.411-3.863.554.554,0,0,1,.137-.71c.9-.869,1.776-1.761,2.661-2.653a2.556,2.556,0,0,0-.008-3.938c-.7-.71-1.407-1.405-2.109-2.116C9.4,2.818,8.681,2.085,7.948,1.367A2.763,2.763,0,0,0,6.024.5,2.738,2.738,0,0,0,4.1,1.375c-.908.892-1.776,1.806-2.7,2.683A4.379,4.379,0,0,0,.026,7.014,12.5,12.5,0,0,0,.995,12.4a32.727,32.727,0,0,0,5.812,9.682A35.952,35.952,0,0,0,18.719,31.4a17.209,17.209,0,0,0,6.6,1.92c.143.009.285.012.424.012a4.71,4.71,0,0,0,3.727-1.591c.771-.861,1.64-1.647,2.457-2.472a2.573,2.573,0,0,0,.015-3.915q-2.156-2.166-4.325-4.316m2.755,6.69c-.27.273-.546.54-.821.808-.568.551-1.155,1.121-1.714,1.748a2.553,2.553,0,0,1-2.095.859c-.1,0-.2,0-.3-.009a14.846,14.846,0,0,1-5.762-1.7A33.956,33.956,0,0,1,8.482,20.675a30.418,30.418,0,0,1-5.438-9.042,10.279,10.279,0,0,1-.836-4.448,2.2,2.2,0,0,1,.7-1.54c.569-.542,1.118-1.1,1.668-1.653.349-.352.7-.706,1.06-1.06a.713.713,0,0,1,.385-.243.73.73,0,0,1,.392.242c.482.472.957.95,1.432,1.429l.721.722c.358.362.716.72,1.073,1.078s.692.691,1.039,1.042c.4.406.38.477.007.854l-.369.373c-.749.756-1.5,1.509-2.287,2.273a2.726,2.726,0,0,0-.605,3.106,17.877,17.877,0,0,0,2.732,4.4,29.95,29.95,0,0,0,7.269,6.6,13.884,13.884,0,0,0,1.249.67c.208.1.417.2.592.3a2.788,2.788,0,0,0,1.385.38,2.743,2.743,0,0,0,2-.893c.865-.887,1.744-1.758,2.659-2.666a.719.719,0,0,1,.378-.242.724.724,0,0,1,.383.242q2.161,2.149,4.315,4.306c.332.335.367.443-.016.832" transform="translate(0 0.047)" fill="#00a5c9"/>
  </g>
</svg>
