<svg xmlns="http://www.w3.org/2000/svg" width="17.471" height="17.471" viewBox="0 0 17.471 17.471">
  <g id="Group_7681" data-name="Group 7681" transform="translate(-199.823 -1343.877)">
    <path id="Icon_material-phone-in-talk" data-name="Icon material-phone-in-talk" d="M21,16.633a11.026,11.026,0,0,1-3.465-.553.991.991,0,0,0-.99.233L14.41,18.448a14.6,14.6,0,0,1-6.4-6.4l2.135-2.145a.932.932,0,0,0,.243-.971,11.026,11.026,0,0,1-.553-3.465A.973.973,0,0,0,8.868,4.5h-3.4a.973.973,0,0,0-.971.971A16.5,16.5,0,0,0,21,21.971.973.973,0,0,0,21.971,21V17.6A.973.973,0,0,0,21,16.633Zm-.971-3.4h1.941A8.736,8.736,0,0,0,13.235,4.5V6.441A6.789,6.789,0,0,1,20.03,13.235Zm-3.882,0h1.941a4.855,4.855,0,0,0-4.853-4.853v1.941A2.908,2.908,0,0,1,16.147,13.235Z" transform="translate(195.323 1339.377)" fill="#fff"/>
  </g>
</svg>
