<svg xmlns="http://www.w3.org/2000/svg" width="32" height="37" viewBox="0 0 32 37">
  <g id="Polygon_4" data-name="Polygon 4" transform="translate(32) rotate(90)" fill="none">
    <path d="M14.171,7.487a5,5,0,0,1,8.657,0L32.663,24.5A5,5,0,0,1,28.334,32H8.666a5,5,0,0,1-4.329-7.5Z" stroke="none"/>
    <path d="M 18.5 5.989948272705078 C 17.05488967895508 5.989948272705078 15.76033020019531 6.736858367919922 15.03705024719238 7.987937927246094 L 5.203119277954102 24.99798774719238 C 4.479118347167969 26.25032806396484 4.478469848632812 27.74602890014648 5.201379776000977 28.99899673461914 C 5.924299240112305 30.25195693969727 7.219499588012695 30.99999809265137 8.666059494018555 30.99999809265137 L 28.33393096923828 30.99999809265137 C 29.78049087524414 30.99999809265137 31.07569885253906 30.25195693969727 31.79862022399902 28.99898719787598 C 32.52153015136719 27.74602890014648 32.52088165283203 26.25032806396484 31.79687881469727 24.99798774719238 L 21.96292877197266 7.987937927246094 C 21.23966026306152 6.736858367919922 19.94510078430176 5.989948272705078 18.5 5.989948272705078 M 18.49999809265137 4.989952087402344 C 20.18305015563965 4.989952087402344 21.8661003112793 5.822446823120117 22.82867050170898 7.487438201904297 L 32.6626091003418 24.49748802185059 C 34.58969116210938 27.83081817626953 32.18423080444336 31.99999809265137 28.33393096923828 31.99999809265137 L 8.666059494018555 31.99999809265137 C 4.815769195556641 31.99999809265137 2.410308837890625 27.83081817626953 4.337390899658203 24.49748802185059 L 14.17131996154785 7.487438201904297 C 15.13389587402344 5.822446823120117 16.81694793701172 4.989952087402344 18.49999809265137 4.989952087402344 Z" stroke="none" fill="#fff"/>
  </g>
</svg>
