<svg id="ansible-seeklogo.com" xmlns="http://www.w3.org/2000/svg" width="62.344" height="76.544" viewBox="0 0 62.344 76.544">
  <g id="Group_103432" data-name="Group 103432" transform="translate(0 68.883)">
    <path id="Path_71924" data-name="Path 71924" d="M50.217,8.565a.436.436,0,0,1-.374-.167L45.6,2.822V8.509h-.967v-7a.5.5,0,0,1,.495-.5.44.44,0,0,1,.384.178l4.229,5.565V1.082h.967V8.074a.486.486,0,0,1-.494.491" transform="translate(-33.814 -0.97)" fill="#1a1918"/>
    <path id="Path_71925" data-name="Path 71925" d="M91.248,8.527a8.387,8.387,0,0,1-2.922-.558l.231-.8a9.061,9.061,0,0,0,2.691.48c1.219,0,1.856-.435,1.856-1.048,0-.558-.494-.836-2.2-1.639s-2.372-1.316-2.372-2.32c0-1.26.967-1.773,2.79-1.773a10.865,10.865,0,0,1,2.593.357l-.154.825a11.037,11.037,0,0,0-2.417-.3c-1.285,0-1.812.245-1.812.859s.384.859,2.186,1.7c1.9.881,2.384,1.327,2.384,2.241,0,1.327-1.252,1.985-2.856,1.985" transform="translate(-66.848 -0.866)" fill="#1a1918"/>
    <path id="Path_71926" data-name="Path 71926" d="M130.8,1.324h1V8.751h-1Z" transform="translate(-98.961 -1.212)" fill="#1a1918"/>
    <path id="Path_71927" data-name="Path 71927" d="M158.962,5.383H156.48V7.9h2.483a1.264,1.264,0,1,0,0-2.52m-.484-3.212h-2V4.547h2a1.268,1.268,0,0,0,1.384-1.227c0-.7-.505-1.149-1.384-1.149m.494,6.58h-2.988a.5.5,0,0,1-.505-.5V1.826a.505.505,0,0,1,.505-.5h2.471c1.516,0,2.417.747,2.417,1.918a1.875,1.875,0,0,1-.945,1.572,1.9,1.9,0,0,1,1.417,1.807,2.206,2.206,0,0,1-2.372,2.13" transform="translate(-117.623 -1.212)" fill="#1a1918"/>
    <path id="Path_71928" data-name="Path 71928" d="M197.681,8.751a.5.5,0,0,1-.494-.5V1.324h1V7.848h3.977v.9Z" transform="translate(-149.158 -1.212)" fill="#1a1918"/>
    <path id="Path_71929" data-name="Path 71929" d="M235.378,8.527c-2.043,0-3.273-.758-3.273-2.286a1.854,1.854,0,0,1,1.2-1.74,1.874,1.874,0,0,1-.967-1.595c0-1.383,1.066-2.041,3.065-2.041a11.856,11.856,0,0,1,2.406.257l-.11.825a14.959,14.959,0,0,0-2.373-.212c-1.3,0-1.988.357-1.988,1.215a1.347,1.347,0,0,0,1.483,1.216h1.713a.429.429,0,0,1,0,.859h-1.845c-.967,0-1.582.479-1.582,1.216,0,1.082,1,1.405,2.252,1.405a11,11,0,0,0,2.35-.268l.143.814a9.738,9.738,0,0,1-2.472.335" transform="translate(-175.559 -0.866)" fill="#1a1918"/>
    <path id="Path_71930" data-name="Path 71930" d="M3.648,2.471,5.4,6.857,2.754,4.743Zm3.11,5.4L4.065,1.289A.435.435,0,0,0,3.648,1a.449.449,0,0,0-.428.29L.264,8.505H1.275L2.445,5.53,5.936,8.393a.564.564,0,0,0,.374.167A.486.486,0,0,0,6.8,8.07a.662.662,0,0,0-.046-.2Z" transform="translate(-0.264 -0.966)" fill="#1a1918"/>
  </g>
  <g id="Group_103433" data-name="Group 103433" transform="translate(0.118 0)">
    <path id="Path_71931" data-name="Path 71931" d="M62.972,31.415A31.113,31.113,0,1,1,31.859.3,31.112,31.112,0,0,1,62.972,31.415" transform="translate(-0.746 -0.302)" fill="#1a1918"/>
    <path id="Path_71932" data-name="Path 71932" d="M82.208,57.552,90.26,77.424,78.1,67.845ZM96.511,82,84.127,52.2a2,2,0,0,0-1.918-1.314A2.065,2.065,0,0,0,80.237,52.2L66.644,84.89h4.65L76.675,71.41,92.732,84.383a2.609,2.609,0,0,0,1.718.758,2.22,2.22,0,0,0,2.273-2.222A2.943,2.943,0,0,0,96.511,82Z" transform="translate(-50.571 -38.546)" fill="#fff"/>
  </g>
</svg>
