<svg id="Group_2385" data-name="Group 2385" xmlns="http://www.w3.org/2000/svg" xmlns:xlink="http://www.w3.org/1999/xlink" width="133.872" height="45.374" viewBox="0 0 133.872 45.374">
  <defs>
    <linearGradient id="linear-gradient" x1="-101.142" y1="-11.494" x2="-100.178" y2="-10.254" gradientUnits="objectBoundingBox">
      <stop offset="0" stop-color="#f69923"/>
      <stop offset="0.312" stop-color="#f79a23"/>
      <stop offset="0.838" stop-color="#e97826"/>
    </linearGradient>
    <linearGradient id="linear-gradient-2" x1="-108.127" y1="-6.797" x2="-101.208" y2="-6.797" gradientUnits="objectBoundingBox">
      <stop offset="0.323" stop-color="#9e2064"/>
      <stop offset="0.63" stop-color="#c92037"/>
      <stop offset="0.751" stop-color="#cd2335"/>
      <stop offset="1" stop-color="#e97826"/>
    </linearGradient>
    <linearGradient id="linear-gradient-3" x1="-89.098" y1="-12.603" x2="-85.643" y2="-12.603" gradientUnits="objectBoundingBox">
      <stop offset="0" stop-color="#282662"/>
      <stop offset="0.095" stop-color="#662e8d"/>
      <stop offset="0.788" stop-color="#9f2064"/>
      <stop offset="0.949" stop-color="#cd2032"/>
    </linearGradient>
    <linearGradient id="linear-gradient-4" x1="-82.732" y1="-4.245" x2="-77.367" y2="-4.245" xlink:href="#linear-gradient-2"/>
    <linearGradient id="linear-gradient-5" x1="-125.966" y1="-5.298" x2="-121.629" y2="-5.298" xlink:href="#linear-gradient-3"/>
    <linearGradient id="linear-gradient-6" x1="-53.303" y1="-4.575" x2="-49.857" y2="-4.575" xlink:href="#linear-gradient-2"/>
    <linearGradient id="linear-gradient-7" x1="-72.873" y1="-7.763" x2="-68.224" y2="-7.763" xlink:href="#linear-gradient-2"/>
    <linearGradient id="linear-gradient-8" x1="-2725.133" y1="-2016.97" x2="-2551.042" y2="-2016.97" xlink:href="#linear-gradient-2"/>
    <linearGradient id="linear-gradient-9" x1="-8459.028" y1="-9843.255" x2="-7919.347" y2="-9843.255" xlink:href="#linear-gradient-2"/>
    <linearGradient id="linear-gradient-10" x2="1" gradientUnits="objectBoundingBox">
      <stop offset="0"/>
      <stop offset="1"/>
    </linearGradient>
    <linearGradient id="linear-gradient-11" x2="1" gradientUnits="objectBoundingBox">
      <stop offset="0" stop-color="#4d4d4d"/>
      <stop offset="1" stop-color="#4d4d4d"/>
    </linearGradient>
  </defs>
  <g id="g3203" transform="translate(0 0)">
    <path id="path3212" d="M40.911,3.024A16.667,16.667,0,0,0,37.6,6.355L38.9,8.8A31.327,31.327,0,0,1,41.667,5.33c.068-.077.111-.118.111-.118-.034.043-.077.077-.111.118a27.851,27.851,0,0,0-2.591,3.518,48.552,48.552,0,0,0,5.041-.627,5.313,5.313,0,0,0-.483-4.049S42.377,2.152,40.911,3.024Z" transform="translate(-21.6 -2.806)" fill="url(#linear-gradient)"/>
    <path id="path3214" d="M39.563,30.392a.031.031,0,0,0,.025-.009L39.4,30.4c-.009.009-.025.009-.034.016l.195-.025Z" transform="translate(-22.455 -16.21)" fill="none"/>
    <path id="path3216" d="M36.872,38.923c-.1.025-.213.043-.322.059A3.035,3.035,0,0,0,36.872,38.923Z" transform="translate(-21.085 -20.361)" fill="none"/>
    <path id="path3218" d="M18.5,44.85c.016-.034.025-.077.043-.111.3-.754.568-1.476.847-2.2.313-.8.627-1.576.933-2.33.322-.788.643-1.558.958-2.3.331-.779.652-1.524.974-2.246.263-.59.516-1.153.77-1.7.084-.186.17-.365.254-.542.17-.356.331-.7.491-1.042.148-.313.3-.618.443-.924.05-.1.1-.2.148-.3l.025-.05-.161.016-.127-.246c-.009.025-.025.05-.034.077-.229.443-.457.906-.677,1.372-.127.263-.254.534-.39.8-.356.745-.7,1.492-1.042,2.253s-.686,1.533-1.017,2.3-.643,1.508-.958,2.262-.618,1.5-.915,2.246c-.313.779-.618,1.551-.906,2.312-.068.17-.136.347-.195.516-.238.618-.466,1.22-.686,1.821l.2.4.179-.016a.121.121,0,0,0,.016-.05C17.936,46.367,18.224,45.6,18.5,44.85Z" transform="translate(-11.716 -16.451)" fill="none"/>
    <path id="path3220" d="M36.385,39.055Z" transform="translate(-21.005 -20.425)" fill="none"/>
    <path id="path3222" d="M35.064,43.226c-.17.034-.339.059-.508.084h0c.084-.009.179-.025.263-.043A2.115,2.115,0,0,0,35.064,43.226Z" transform="translate(-20.115 -22.452)" fill="#be202e"/>
    <path id="path3224" d="M35.064,43.226c-.17.034-.339.059-.508.084h0c.084-.009.179-.025.263-.043A2.115,2.115,0,0,0,35.064,43.226Z" transform="translate(-20.115 -22.452)" fill="#be202e" opacity="0.35"/>
    <path id="path3226" d="M36.393,38.991h0c.025,0,.05-.009.077-.009.111-.016.22-.034.322-.059-.127.025-.263.043-.4.068Z" transform="translate(-21.004 -20.361)" fill="#be202e"/>
    <path id="path3228" d="M36.393,38.991h0c.025,0,.05-.009.077-.009.111-.016.22-.034.322-.059-.127.025-.263.043-.4.068Z" transform="translate(-21.004 -20.361)" fill="#be202e" opacity="0.35"/>
    <path id="path3239" d="M30.039,18.48q.59-1.105,1.2-2.16c.415-.729.838-1.431,1.271-2.118a1.09,1.09,0,0,1,.077-.118c.424-.67.847-1.313,1.279-1.932l-1.3-2.442c-.093.118-.195.238-.3.365-.373.466-.763.967-1.161,1.5-.443.6-.906,1.237-1.381,1.907-.432.618-.872,1.271-1.313,1.941q-.56.863-1.119,1.762c-.016.025-.025.043-.043.068l1.687,3.329c.373-.7.738-1.406,1.1-2.1Z" transform="translate(-16.565 -6.162)" fill="url(#linear-gradient-2)"/>
    <path id="path3250" d="M16.439,61.3q-.33.914-.67,1.882c0,.009-.009.016-.009.025-.034.093-.068.179-.093.272-.148.432-.279.822-.59,1.7a3.368,3.368,0,0,1,1.271,1.5,2.73,2.73,0,0,0-.885-1.873c2.448.111,4.567-.508,5.652-2.305.093-.161.186-.331.272-.509a2.361,2.361,0,0,1-2.271.831h0a6.58,6.58,0,0,0,3.313-2.711c.179-.3.356-.6.534-.949A5.339,5.339,0,0,1,17.921,60.8l-1.364.148A2.3,2.3,0,0,1,16.439,61.3Z" transform="translate(-10.656 -30.201)" fill="url(#linear-gradient-3)"/>
    <path id="path3261" d="M16.515,41.346c.3-.763.6-1.533.906-2.312.3-.745.6-1.492.915-2.246s.636-1.508.958-2.262.67-1.533,1.017-2.3.7-1.508,1.042-2.253c.127-.272.254-.534.39-.8.22-.457.443-.915.677-1.372.009-.025.025-.05.034-.077L20.786,24.4a1.18,1.18,0,0,1-.084.136c-.39.643-.788,1.3-1.169,1.966s-.77,1.364-1.144,2.066c-.313.59-.618,1.181-.924,1.787-.059.118-.118.246-.179.365-.364.754-.7,1.492-1,2.194-.339.8-.636,1.558-.9,2.28-.17.475-.331.933-.475,1.372-.118.373-.229.754-.339,1.127-.254.885-.466,1.762-.643,2.643l1.694,3.347c.22-.6.457-1.2.686-1.821C16.38,41.692,16.448,41.518,16.515,41.346Z" transform="translate(-10.092 -13.301)" fill="url(#linear-gradient-4)"/>
    <path id="path3272" d="M10.275,55.529a25.972,25.972,0,0,0-.443,3.2c0,.034-.009.077-.009.111a6.751,6.751,0,0,0-1.938-1.675,9.384,9.384,0,0,1,1.9,4.364,4.313,4.313,0,0,1-2.144-.365,4.3,4.3,0,0,0,1.83,1.11,5.251,5.251,0,0,0-2.541,1.271A5.388,5.388,0,0,1,9.945,63c-1.161,3.279-2.321,6.9-3.483,10.752a1.008,1.008,0,0,0,.686-.67c.2-.688,1.583-5.264,3.738-11.272.059-.17.127-.339.186-.517.016-.05.034-.093.05-.148q.344-.94.711-1.932c.059-.148.111-.3.17-.443v-.009l-1.694-3.35a.624.624,0,0,0-.034.118Z" transform="translate(-6.462 -28.374)" fill="url(#linear-gradient-5)"/>
    <path id="path3283" d="M24.7,30.18c-.05.1-.093.195-.148.3-.148.305-.3.609-.443.924-.161.339-.322.686-.491,1.042-.084.179-.17.356-.254.542-.254.55-.508,1.119-.77,1.7-.322.72-.643,1.465-.974,2.246-.313.738-.636,1.508-.958,2.3-.305.754-.618,1.524-.933,2.33-.279.711-.559,1.449-.847,2.2-.016.034-.025.077-.043.111-.279.745-.568,1.517-.856,2.305a.121.121,0,0,0-.016.05l1.364-.148a.779.779,0,0,0-.084-.016,9.692,9.692,0,0,0,5.2-2.932,13.052,13.052,0,0,0,1.771-2.466,20.836,20.836,0,0,0,1.144-2.38c.313-.763.618-1.592.906-2.491a5.051,5.051,0,0,1-1.279.443l-.254.05c-.084.016-.17.025-.263.043h0a5.9,5.9,0,0,0,3.177-3.1,5.549,5.549,0,0,1-1.83.8c-.1.025-.213.043-.322.059-.025,0-.05.009-.084.009h0a6.149,6.149,0,0,0,1.364-.763,2.637,2.637,0,0,0,.238-.195c.118-.1.229-.213.339-.322.068-.077.136-.148.2-.22a4.3,4.3,0,0,0,.424-.59c.043-.068.084-.127.118-.195.05-.1.1-.195.148-.3.212-.424.381-.8.516-1.144.068-.17.127-.322.179-.466.016-.059.043-.111.059-.17.05-.161.1-.305.136-.432a4.28,4.28,0,0,0,.1-.443h0a.929.929,0,0,1-.179.118,6.551,6.551,0,0,1-1.882.643l1.254-.136-1.254.136a.031.031,0,0,0-.025.009,1.888,1.888,0,0,0-.195.034c.009-.009.025-.009.034-.016l-4.287.466A.058.058,0,0,1,24.7,30.18Z" transform="translate(-12.055 -15.473)" fill="url(#linear-gradient-6)"/>
    <path id="path3294" d="M35.914,13.989c-.381.59-.8,1.254-1.245,2a.846.846,0,0,0-.068.118c-.39.652-.8,1.364-1.229,2.152-.373.677-.763,1.4-1.169,2.186-.356.677-.711,1.4-1.093,2.16l4.287-.466a5.22,5.22,0,0,0,2.346-1.848c.148-.2.3-.424.432-.652a25.032,25.032,0,0,0,1.254-2.194,21.772,21.772,0,0,0,.949-2.093,11.928,11.928,0,0,0,.381-1.135c.077-.3.136-.576.186-.847a50.33,50.33,0,0,1-5.034.618Z" transform="translate(-18.44 -7.941)" fill="url(#linear-gradient-7)"/>
    <path id="path3296" d="M34.818,43.325c-.084.016-.17.025-.263.043h0a2.432,2.432,0,0,1,.263-.043Z" transform="translate(-20.115 -22.501)" fill="#be202e"/>
    <path id="path3298" d="M34.818,43.325c-.084.016-.17.025-.263.043h0a2.432,2.432,0,0,1,.263-.043Z" transform="translate(-20.115 -22.501)" fill="#be202e" opacity="0.35"/>
    <path id="path3309" d="M34.818,43.325c-.084.016-.17.025-.263.043h0a2.432,2.432,0,0,1,.263-.043Z" transform="translate(-20.115 -22.501)" fill="url(#linear-gradient-8)"/>
    <path id="path3311" d="M36.385,39.048c.025,0,.05-.009.084-.009C36.444,39.039,36.419,39.048,36.385,39.048Z" transform="translate(-21.005 -20.417)" fill="#be202e"/>
    <path id="path3313" d="M36.385,39.048c.025,0,.05-.009.084-.009C36.444,39.039,36.419,39.048,36.385,39.048Z" transform="translate(-21.005 -20.417)" fill="#be202e" opacity="0.35"/>
    <path id="path3324" d="M36.385,39.048c.025,0,.05-.009.084-.009C36.444,39.039,36.419,39.048,36.385,39.048Z" transform="translate(-21.005 -20.417)" fill="url(#linear-gradient-9)"/>
    <path id="path3326" d="M36.4,39.055Z" transform="translate(-21.013 -20.425)" fill="#be202e"/>
    <path id="path3328" d="M36.4,39.055Z" transform="translate(-21.013 -20.425)" fill="#be202e" opacity="0.35"/>
    <path id="path3339" d="M36.4,39.055Z" transform="translate(-21.013 -20.425)" fill="#fff"/>
  </g>
  <path id="path3343" d="M466.975,239.189v.62H466.8v-.62h-.22v-.148h.607v.148Z" transform="translate(-449.624 -225.066)" fill="#b0afb0"/>
  <path id="path3345" d="M468.7,239.324l-.207.419h-.1l-.207-.419v.484h-.168v-.767h.232l.2.419.2-.419h.232v.767h-.168v-.484Z" transform="translate(-450.318 -225.066)" fill="#b0afb0"/>
  <path id="path3718" d="M477.966,268.238a13.474,13.474,0,0,1-1.883-.115,10.387,10.387,0,0,1-1.371-.248v-4.262q.611.133,1.288.232a9.823,9.823,0,0,0,1.454.1,5.644,5.644,0,0,0,1.4-.165A2.731,2.731,0,0,0,480,263.2a2.51,2.51,0,0,0,.76-1.074,4.47,4.47,0,0,0,.28-1.7V236.982h5.121v23.277a9.5,9.5,0,0,1-.611,3.585,6.434,6.434,0,0,1-1.685,2.478,6.6,6.6,0,0,1-2.577,1.454,11.257,11.257,0,0,1-3.32.462" transform="translate(-453.574 -224.066)" fill="#d22128" stroke="#d22128" stroke-linejoin="round" stroke-width="1.229"/>
  <path id="path3720" d="M502.327,236.987v24.149H506.9V249.9c0-.308-.009-.654-.019-1.033s-.01-.785-.032-1.2-.024-.84-.046-1.269-.031-.849-.053-1.256q-.066-1.421-.164-2.941h.148l5.3,18.945h4.712l5.717-18.913h.131c-.032,1-.068,1.963-.112,2.888-.01.4-.031.806-.053,1.223s-.022.829-.032,1.237-.022.794-.032,1.158v12.406h4.775V236.987H520.17l-5.555,18.466h-.1L509.3,236.987Zm47.95,1.75-1.454,3.894-2.77,1.691v2.128h2.408v8.9a8.855,8.855,0,0,0,.428,2.974,4.92,4.92,0,0,0,1.21,1.882,4.3,4.3,0,0,0,1.8.98,8.578,8.578,0,0,0,2.243.276,9.874,9.874,0,0,0,2.283-.243,7.312,7.312,0,0,0,1.763-.6v-3.75a13.768,13.768,0,0,1-1.368.415,5.8,5.8,0,0,1-1.408.164,1.919,1.919,0,0,1-1.389-.514,2.117,2.117,0,0,1-.527-1.585v-8.9h4.494v-3.782h-4.5v-3.934h-3.223Zm-12.933,3.585a9.3,9.3,0,0,0-3.434.612,7.014,7.014,0,0,0-2.645,1.828,8.483,8.483,0,0,0-1.7,3.027,13.313,13.313,0,0,0-.612,4.243,12.04,12.04,0,0,0,.664,4.184,8.046,8.046,0,0,0,1.882,2.941,7.76,7.76,0,0,0,2.875,1.73,11.087,11.087,0,0,0,3.651.578c.683,0,1.309-.024,1.882-.078a11.484,11.484,0,0,0,1.606-.23,12.319,12.319,0,0,0,1.4-.4,11.057,11.057,0,0,0,1.341-.59v-3.9q-.727.363-1.421.645a13.044,13.044,0,0,1-1.408.443,12.349,12.349,0,0,1-1.467.283,14.408,14.408,0,0,1-1.585.078,4.869,4.869,0,0,1-1.8-.31,3.878,3.878,0,0,1-1.341-.894,4.353,4.353,0,0,1-.856-1.44,6.434,6.434,0,0,1-.329-1.918H545.3V250.7a10.446,10.446,0,0,0-.559-3.565,7.074,7.074,0,0,0-1.581-2.64,6.514,6.514,0,0,0-2.509-1.623,9.192,9.192,0,0,0-3.3-.559Zm30.333,0a9.3,9.3,0,0,0-3.434.612,7.014,7.014,0,0,0-2.645,1.828,8.484,8.484,0,0,0-1.7,3.027,13.316,13.316,0,0,0-.612,4.243,12.04,12.04,0,0,0,.664,4.184,8.044,8.044,0,0,0,1.881,2.941,7.759,7.759,0,0,0,2.875,1.729,11.083,11.083,0,0,0,3.651.579c.683,0,1.309-.024,1.882-.078a11.491,11.491,0,0,0,1.606-.23,12.323,12.323,0,0,0,1.4-.4,11.053,11.053,0,0,0,1.341-.59v-3.9q-.726.363-1.421.645a13.034,13.034,0,0,1-1.408.443,12.338,12.338,0,0,1-1.467.283,14.4,14.4,0,0,1-1.585.078,4.868,4.868,0,0,1-1.8-.31,3.852,3.852,0,0,1-1.328-.894,4.364,4.364,0,0,1-.862-1.44,6.446,6.446,0,0,1-.329-1.918H575.63V250.7a10.446,10.446,0,0,0-.559-3.565,7.073,7.073,0,0,0-1.585-2.645,6.516,6.516,0,0,0-2.509-1.623,9.189,9.189,0,0,0-3.3-.559Zm18.939,0a5.438,5.438,0,0,0-1.651.23,4.377,4.377,0,0,0-1.29.624,5.036,5.036,0,0,0-1.02.98,9.3,9.3,0,0,0-.862,1.282h-.249l-.738-2.77h-3.815v18.466h5.04v-9.4a6.67,6.67,0,0,1,.316-2.2,3.691,3.691,0,0,1,.907-1.454,3.525,3.525,0,0,1,1.408-.809,6.213,6.213,0,0,1,1.8-.249c.111,0,.249.009.415.019a3.709,3.709,0,0,1,.493.032c.176.01.345.031.5.053s.273.044.362.066v-4.73a1.4,1.4,0,0,0-.3-.046,3.852,3.852,0,0,0-.415-.053,3.016,3.016,0,0,0-.46-.032c-.148-.01-.3-.013-.434-.013Zm-49.238,3.585a3.068,3.068,0,0,1,1.389.3,2.769,2.769,0,0,1,.993.822,3.523,3.523,0,0,1,.59,1.223,6.224,6.224,0,0,1,.217,1.552H534.14a4.7,4.7,0,0,1,1.006-2.951,2.952,2.952,0,0,1,2.228-.942Zm30.333,0a3.07,3.07,0,0,1,1.389.3,2.769,2.769,0,0,1,.993.822,3.52,3.52,0,0,1,.59,1.223,6.218,6.218,0,0,1,.217,1.552h-6.427a4.7,4.7,0,0,1,1.006-2.951,2.952,2.952,0,0,1,2.228-.942Z" transform="translate(-466.997 -224.069)" fill="url(#linear-gradient-10)"/>
  <g id="text3756" transform="translate(123.84 12.908)">
    <path id="path3879" d="M267.2,65.053h-1.12V60.69h-1.328v-.936h3.776v.936H267.2v4.364" transform="translate(-264.755 -59.754)" fill="url(#linear-gradient-11)"/>
    <path id="path3881" d="M275.824,65.053,274.661,60.9h-.032q.022.334.037.645,0,.134.01.276t.01.279v2.957h-1v-5.3h1.53l1.151,4.052h.022l1.217-4.052h1.53v5.3h-1.048V61.805q0-.137.01-.269.015-.3.025-.635h-.029l-1.254,4.15h-1.033" transform="translate(-269.102 -59.754)" fill="url(#linear-gradient-11)"/>
  </g>
  <g id="g8126" transform="translate(27.395 0.502)">
    <g id="g8128" transform="translate(0 0)">
      <path id="path8130" d="M33.208,31.415l3.617-8.643h.7l3.617,8.643h-.911l-1.123-2.7H35.219l-1.108,2.7Zm3.97-7.646L35.407,28.04h3.508Z" transform="translate(-33.208 -22.717)" fill="#d22128"/>
      <path id="path8132" d="M50.441,31.415V22.772h3.58a2.69,2.69,0,0,1,2.553,2.715,2.608,2.608,0,0,1-2.481,2.737h-2.8v3.192Zm.844-3.948h2.767a1.82,1.82,0,0,0,1.681-1.982,1.873,1.873,0,0,0-1.753-1.96h-2.7Z" transform="translate(-41.584 -22.717)" fill="#d22128"/>
      <path id="path8134" d="M61.462,31.415l3.617-8.643h.7l3.617,8.643h-.925l-1.12-2.7H63.466l-1.108,2.7Zm3.97-7.646L63.661,28.04h3.508Z" transform="translate(-46.941 -22.717)" fill="#d22128"/>
      <path id="path8136" d="M80.956,22.673a3.394,3.394,0,0,1,3.2,1.886l-.682.41a2.723,2.723,0,0,0-2.553-1.533,3.357,3.357,0,0,0-3.2,3.587,3.489,3.489,0,0,0,3.236,3.639,2.938,2.938,0,0,0,2.656-1.6l.7.367a3.769,3.769,0,0,1-3.419,2.01,4.345,4.345,0,0,1-4.043-4.454,4.172,4.172,0,0,1,4.1-4.308Z" transform="translate(-54.423 -22.67)" fill="#d22128"/>
      <path id="path8138" d="M100.509,22.772v8.643h-.851V27.372H94.537v4.043H93.7V22.772h.837v3.844h5.122V22.772Z" transform="translate(-62.61 -22.717)" fill="#d22128"/>
      <path id="path8140" d="M116.551,30.66v.756h-5.8V22.772h5.693v.756h-4.858V26.65h4.234v.719h-4.234v3.3Z" transform="translate(-70.896 -22.717)" fill="#d22128"/>
    </g>
  </g>
</svg>
