<svg id="bash-shell-seeklogo.com" xmlns="http://www.w3.org/2000/svg" width="127.796" height="53.797" viewBox="0 0 127.796 53.797">
  <path id="Shape" d="M51.337,19.185,34.348,9.1a6.4,6.4,0,0,0-6.525,0L10.835,19.185a6.774,6.774,0,0,0-3.3,5.837V45.189A6.774,6.774,0,0,0,10.8,51.026L27.79,61.11a6.4,6.4,0,0,0,6.525,0L51.308,51.026a6.774,6.774,0,0,0,3.271-5.837V25.022a6.774,6.774,0,0,0-3.244-5.837h0ZM38.181,50.676v1.448a.533.533,0,0,1-.25.445l-.86.492c-.137.071-.25,0-.25-.19V51.45a2.794,2.794,0,0,1-1.958.19.26.26,0,0,1-.094-.32l.309-1.311a.545.545,0,0,1,.172-.285.344.344,0,0,1,.084-.059.172.172,0,0,1,.137,0,2.522,2.522,0,0,0,3.109-2.26c0-.735-.4-1.044-1.376-1.05-1.233,0-2.372-.242-2.4-2.06a5.274,5.274,0,0,1,1.993-4.033V38.795a.528.528,0,0,1,.25-.451l.83-.528c.137-.071.25,0,.25.2v1.465a2.705,2.705,0,0,1,1.626-.2.26.26,0,0,1,.107.338l-.291,1.3a.557.557,0,0,1-.148.26.344.344,0,0,1-.084.065.2.2,0,0,1-.121,0,2.153,2.153,0,0,0-1.567.256,1.969,1.969,0,0,0-1.186,1.743c0,.664.35.866,1.524.889,1.575,0,2.249.712,2.266,2.29a5.623,5.623,0,0,1-2.06,4.252h0Zm8.9-2.438a.338.338,0,0,1-.131.326l-4.295,2.61a.121.121,0,0,1-.2-.121v-1.11a.309.309,0,0,1,.2-.273l4.229-2.533a.121.121,0,0,1,.2.121v.979h0Zm2.966-24.8L33.969,33.373c-2.005,1.186-3.482,2.485-3.482,4.9v19.8a2.512,2.512,0,0,0,1.479,2.657,5.2,5.2,0,0,1-.889.088,5.262,5.262,0,0,1-2.681-.741L11.41,49.988a5.588,5.588,0,0,1-2.693-4.8V25.022a5.588,5.588,0,0,1,2.693-4.8L28.4,10.137a5.238,5.238,0,0,1,5.338,0l16.989,10.08a5.552,5.552,0,0,1,2.61,3.885c-.551-1.2-1.817-1.53-3.3-.664h0Z" transform="translate(-7.531 -8.207)" fill="#1b1b1f" fill-rule="evenodd"/>
  <path id="path3542" d="M67.188,33.239a6.192,6.192,0,0,0-1.518-1.317l-.219-.131a6.032,6.032,0,0,0,1.233-1.09,5.131,5.131,0,0,0,1.233-3.322,5.837,5.837,0,0,0-.717-3.013A6.179,6.179,0,0,0,65.261,22.3a8.518,8.518,0,0,0-2.681-1.186,12.914,12.914,0,0,0-2.966-.379H52.8a.836.836,0,0,0-.86.836V43.324a.836.836,0,0,0,.86.819h7.326a10.991,10.991,0,0,0,3.085-.469,8.744,8.744,0,0,0,2.7-1.346,6.727,6.727,0,0,0,1.915-2.218,6.246,6.246,0,0,0,.706-3.06,6.021,6.021,0,0,0-.356-2.077,5.89,5.89,0,0,0-.991-1.732h0Zm-4.151-4.781a2.665,2.665,0,0,1-.76.83,3.749,3.749,0,0,1-1.133.545,5.113,5.113,0,0,1-1.346.207H56.582V24.763h3.1a6.8,6.8,0,0,1,1.465.184,3.56,3.56,0,0,1,1.151.485,2.255,2.255,0,0,1,.727.771,2.313,2.313,0,0,1,.267,1.186,2.106,2.106,0,0,1-.273,1.067h.024Zm-6.43,5.516H60.35a5.131,5.131,0,0,1,1.471.256,3.4,3.4,0,0,1,1.115.594,2.7,2.7,0,0,1,.717.938,2.966,2.966,0,0,1,.25,1.311,2.745,2.745,0,0,1-.279,1.27,2.794,2.794,0,0,1-.771.938,3.98,3.98,0,0,1-1.186.629,4.746,4.746,0,0,1-1.442.242H56.6V33.972Z" transform="translate(1.864 -5.558)" fill="#1b1b1f" fill-rule="evenodd"/>
  <path id="path3544" d="M78.185,21.333a.854.854,0,0,0-.819-.594H74.941a.854.854,0,0,0-.819.594l-7.39,21.74a.783.783,0,0,0,.121.727.872.872,0,0,0,.694.338h2.908a.854.854,0,0,0,.819-.594l1.649-5.053h6.364l1.62,5.053a.854.854,0,0,0,.825.594H84.62a.878.878,0,0,0,.694-.332.783.783,0,0,0,.121-.727Zm-.19,13.139H74.239l1.892-5.831Z" transform="translate(4.984 -5.556)" fill="#1b1b1f" fill-rule="evenodd"/>
  <path id="path3546" d="M99.417,34.124a7.355,7.355,0,0,0-1.364-1.341,11.51,11.51,0,0,0-1.614-1.02,15.682,15.682,0,0,0-1.78-.783c-.594-.219-1.186-.416-1.78-.594-.5-.148-1.044-.32-1.6-.51a7.58,7.58,0,0,1-1.448-.67,3.435,3.435,0,0,1-.991-.878,1.851,1.851,0,0,1-.344-1.115,2.272,2.272,0,0,1,.267-1.139,2.563,2.563,0,0,1,.754-.836,3.6,3.6,0,0,1,1.139-.54,4.967,4.967,0,0,1,2.931.059,3.392,3.392,0,0,1,1.163.682,3.441,3.441,0,0,1,.771,1.067,5.059,5.059,0,0,1,.422,1.477.848.848,0,0,0,.854.712H99.76a.884.884,0,0,0,.594-.242.8.8,0,0,0,.242-.594,6.747,6.747,0,0,0-.766-3.054A7.4,7.4,0,0,0,97.9,22.487a8.965,8.965,0,0,0-2.687-1.465,10.084,10.084,0,0,0-6.1-.084,8.749,8.749,0,0,0-2.665,1.27,6.97,6.97,0,0,0-1.938,2.118,5.641,5.641,0,0,0-.76,2.908,5.291,5.291,0,0,0,.771,2.859,7.45,7.45,0,0,0,1.922,2.052,11.738,11.738,0,0,0,2.467,1.385,26.411,26.411,0,0,0,2.544.926q.819.25,1.7.557a7.4,7.4,0,0,1,1.483.7,3.316,3.316,0,0,1,.991.926,2.093,2.093,0,0,1,.338,1.233A2.06,2.06,0,0,1,95.68,39a2.681,2.681,0,0,1-.807.825,3.779,3.779,0,0,1-1.186.5,6.179,6.179,0,0,1-3.167-.059,3.974,3.974,0,0,1-1.311-.67,3.635,3.635,0,0,1-.92-1.09,4.306,4.306,0,0,1-.485-1.524.848.848,0,0,0-.854-.712H83.977a.884.884,0,0,0-.594.25.8.8,0,0,0-.242.594,6.477,6.477,0,0,0,.878,3.15,7.711,7.711,0,0,0,2.1,2.3A9.639,9.639,0,0,0,89,44a11.069,11.069,0,0,0,3.244.485,11.464,11.464,0,0,0,2.966-.4,9.086,9.086,0,0,0,2.71-1.186,6.839,6.839,0,0,0,2.011-2.06,5.505,5.505,0,0,0,.807-2.966,5.918,5.918,0,0,0-.338-2.034,6.158,6.158,0,0,0-.979-1.714h0Z" transform="translate(8.463 -5.605)" fill="#1b1b1f" fill-rule="evenodd"/>
  <path id="path3548" d="M115.052,20.762h-2.747a.836.836,0,0,0-.872.8V30.11h-7.656V21.563a.836.836,0,0,0-.86-.819h-2.734a.836.836,0,0,0-.86.819V43.321a.836.836,0,0,0,.86.819h2.734a.836.836,0,0,0,.86-.819V34.084h7.652V43.32a.836.836,0,0,0,.86.819h2.759a.836.836,0,0,0,.86-.819V21.563a.836.836,0,0,0-.86-.8h0Z" transform="translate(11.887 -5.555)" fill="#1b1b1f" fill-rule="evenodd"/>
</svg>
