<svg xmlns="http://www.w3.org/2000/svg" xmlns:xlink="http://www.w3.org/1999/xlink" width="162.984" height="18.813" viewBox="0 0 162.984 18.813">
  <defs>
    <clipPath id="clip-path">
      <rect id="Rectangle_551" data-name="Rectangle 551" width="162.984" height="18.814" fill="none"/>
    </clipPath>
  </defs>
  <g id="Group_2386" data-name="Group 2386" clip-path="url(#clip-path)">
    <path id="Path_22240" data-name="Path 22240" d="M360.942,0a1.445,1.445,0,0,1,.59,1.561c-.974,5.252-1.889,10.515-2.841,15.771-.186,1.026-2.706,1.771-3.542,1.065-.359-.3-.128-.657-.069-.99q.82-4.6,1.645-9.2a3.1,3.1,0,0,0-.025-1.5q-2.588,3.22-5.174,6.44c-1.082,1.352-1.355,1.328-2.047-.2a61.669,61.669,0,0,0-3.1-6.222q-.894,5.017-1.791,10.045a2.4,2.4,0,0,1-3.453,1.715c-.7-.331-.336-.964-.257-1.42.615-3.552,1.285-7.1,1.938-10.643.282-1.532.581-3.062.828-4.6A4.146,4.146,0,0,1,344.368,0h2.445a4.792,4.792,0,0,1,1.4,2.178c.958,2.228,1.943,4.446,2.966,6.781L358.5,0h2.445" transform="translate(-247.952 0)" fill="#34334b"/>
    <path id="Path_22241" data-name="Path 22241" d="M167.832,0c1.136.243,1.113.924.925,1.893-.989,5.149-1.89,10.314-2.838,15.47-.083.452-.047,1.092-.738,1.1a5.608,5.608,0,0,1-2.656-.171c-.3-.148-.148-.571-.094-.872.978-5.423,1.973-10.845,2.922-16.273A3.462,3.462,0,0,1,165.93,0Z" transform="translate(-118.148 0)" fill="#34334b"/>
    <path id="Path_22242" data-name="Path 22242" d="M570.841,19.7c-.472.314-.68.868-1.493.859a4.167,4.167,0,0,0-4.2,3.461c-.423,1.91-.738,3.837-1.119,5.755-.09.443-.018,1.1-.692,1.144a5.755,5.755,0,0,1-2.667-.122c-.378-.164-.174-.648-.114-.981q1.017-5.651,2.056-11.3c.211-1.142,1.328-1.672,2.8-1.2,1.073.339.39,1.139.3,1.771a2.158,2.158,0,0,0,.087.462c1.519-1.217,2.89-2.675,5.041-2.252Z" transform="translate(-407.857 -12.478)" fill="#34334b"/>
    <path id="Path_22243" data-name="Path 22243" d="M112.043,9.466c3.434,1.755,2.32,7.185-.667,8.57a11.471,11.471,0,0,1-4.842,1.11c-2.214.007-4.436,0-6.654,0-1.713,0-1.8-.081-1.5-1.707q1.126-6.244,2.277-12.485c.192-1.051.41-2.1.59-3.149.094-.545.31-.937.939-.925,2.76.047,5.524-.17,8.276.115,2.057.213,3.97.773,4.488,3.114.465,2.1-.525,3.886-2.9,5.355m-6.05,1.586c-2.763-.021-2.763-.021-3.186,2.3-.509,2.8-.509,2.792,2.425,2.822a7.393,7.393,0,0,0,3.821-.574,2.69,2.69,0,0,0,1.424-2.923c-.17-1.248-1.229-1.541-2.32-1.623-.719-.05-1.442-.009-2.165-.009m.2-2.591c.9-.058,1.794-.1,2.69-.182a2.767,2.767,0,0,0,.779-.21,2.6,2.6,0,0,0,1.666-2.77c-.183-1.257-1.173-1.445-2.2-1.505-.763-.046-1.529-.061-2.293-.044-2.951.061-2.169-.493-2.727,2.34-.455,2.305-.375,2.32,2.091,2.371" transform="translate(-71.496 -0.617)" fill="#34334b"/>
    <path id="Path_22244" data-name="Path 22244" d="M193.376,29.053a6.936,6.936,0,0,1-5.888,1.715,3.283,3.283,0,0,1-2.915-2.431,3.915,3.915,0,0,1,1.39-4.188,8.509,8.509,0,0,1,4.916-1.387,22.859,22.859,0,0,0,3.409-.443c.488-.068.425-.609.459-1a1.476,1.476,0,0,0-.981-1.591,5.165,5.165,0,0,0-2.8-.18c-.847.111-1.679.335-2.509.519-.5.112-1.154.493-1.257-.378-.078-.658-.747-1.536.381-1.96a11.937,11.937,0,0,1,8.208-.455,3.022,3.022,0,0,1,2.286,3.129,71.391,71.391,0,0,1-1.446,9.626c-.23,1.234-1.523.531-2.327.615-1.26.133-.664-.959-.911-1.6m-1.117-4.559a6.371,6.371,0,0,0-3.5.94,1.778,1.778,0,0,0-.763,1.982,1.4,1.4,0,0,0,1.217,1.094,4.08,4.08,0,0,0,4.541-2.075c.857-1.725.658-2.034-1.495-1.941" transform="translate(-134.218 -12.184)" fill="#34334b"/>
    <path id="Path_22245" data-name="Path 22245" d="M295.522,24.878c-1.312,0-2.625.05-3.933-.018-.812-.043-.919.308-.809.949a2.779,2.779,0,0,0,2.191,2.281,7.265,7.265,0,0,0,4.516-.334c.463-.161,1.049-.63,1.268.282.161.668.534,1.392-.469,1.8a10.035,10.035,0,0,1-7.9.311,4.808,4.808,0,0,1-2.932-3.592,8.429,8.429,0,0,1,5.991-9.856,8.621,8.621,0,0,1,2.563-.131,4.806,4.806,0,0,1,4.809,5.572c-.218,2.735-.218,2.735-2.988,2.735h-2.307m-1.2-2.093a11.837,11.837,0,0,0,1.487-.013c.59-.075,1.439.376,1.715-.305a2.494,2.494,0,0,0-.338-2.419,2.593,2.593,0,0,0-2.531-.944,3.791,3.791,0,0,0-3.192,2.361c-.415.9-.521,1.5.828,1.338a17.58,17.58,0,0,1,2.031-.013" transform="translate(-209.05 -12.032)" fill="#34334b"/>
    <path id="Path_22246" data-name="Path 22246" d="M427.015,24.9c-1.312,0-2.625.032-3.936-.013-.705-.024-.844.257-.754.874a2.733,2.733,0,0,0,2.126,2.336,7.083,7.083,0,0,0,4.517-.3c.413-.148,1.008-.632,1.253.094.227.673.481,1.582-.443,1.967a9.537,9.537,0,0,1-8.133.174,5.283,5.283,0,0,1-2.721-6.015,15.92,15.92,0,0,1,.781-2.829,7.587,7.587,0,0,1,9.483-4.26c2.333.723,3.247,2.494,3.087,5.668-.106,2.214-.205,2.305-2.413,2.305h-2.851m-1.2-2.093h1.623c1.771,0,2.292-.872,1.465-2.459a2.476,2.476,0,0,0-2.631-1.226,3.648,3.648,0,0,0-3.089,2.066c-.8,1.519-.748,1.613,1.012,1.613h1.623" transform="translate(-304.793 -12.055)" fill="#34334b"/>
    <path id="Path_22247" data-name="Path 22247" d="M515.581,24.869c-1.31,0-2.624.049-3.931-.016-.912-.046-.953.4-.807,1.061a3.2,3.2,0,0,0,3.084,2.361,8.142,8.142,0,0,0,3.586-.516c.425-.148.961-.59,1.247.148.258.663.4,1.378-.337,1.882a9.573,9.573,0,0,1-9.16-.345,3.958,3.958,0,0,1-1.442-1.9,8.782,8.782,0,0,1,1.825-8.621A7.291,7.291,0,0,1,517.3,16.8a4.622,4.622,0,0,1,3.559,4.5c-.055.722-.106,1.442-.148,2.163-.068,1.088-.574,1.552-1.743,1.439-1.119-.108-2.258-.024-3.394-.024m-1.24-2.093a10.608,10.608,0,0,0,1.623-.018c.562-.087,1.387.428,1.648-.378a2.641,2.641,0,0,0-.485-2.509,1.953,1.953,0,0,0-1.009-.626,3.729,3.729,0,0,0-4.427,1.9c-.788,1.424-.677,1.623.9,1.623h1.756" transform="translate(-369.252 -12.023)" fill="#34334b"/>
    <path id="Path_22248" data-name="Path 22248" d="M245.876,20.646c-1.762,0-3.466.018-5.165-.012-.477-.009-1.328.2-1.122-.657.182-.738-.249-2.032,1.15-2.057,3.072-.056,6.148-.016,9.222-.018.626,0,.885.23.784.9a3.611,3.611,0,0,1-1.012,2.118c-2.509,2.494-4.966,5.026-7.711,7.821,2.082,0,3.852-.019,5.619.012.5.009,1.395-.282,1.181.725-.17.775.323,2.045-1.259,2.038q-4.612-.025-9.222,0c-.885,0-1.088-.348-.885-1.154a3.677,3.677,0,0,1,.971-1.852c2.2-2.177,4.356-4.389,6.518-6.6a2.725,2.725,0,0,0,.949-1.268" transform="translate(-172.74 -13.02)" fill="#34334b"/>
    <path id="Path_22249" data-name="Path 22249" d="M478.592,4.738c1.279-.314,1.806.112,1.448,1.43-.125.462-.108.961-.218,1.427-.148.64.037.921.725.85a2.721,2.721,0,0,1,.944.009c.556.148,1.486-.49,1.6.635.133,1.362-.341,1.889-1.647,1.961-2.289.127-2.279.13-2.656,2.382-.223,1.313-.508,2.618-.727,3.933-.276,1.651.314,2.234,1.983,2.025.412-.052,1.068-.367,1.1.285.031.716.419,1.743-.635,2.094a6.331,6.331,0,0,1-4.511-.09,3.043,3.043,0,0,1-1.486-3.552c.348-2.066.694-4.12,1.1-6.167.148-.707.01-.99-.757-.961-.466.018-1.181.061-.953-.7.2-.666-.2-1.907,1.045-1.815,1.341.1,1.639-.525,1.672-1.6,0-.22.111-.443.114-.657.018-1.237.562-1.833,1.871-1.492" transform="translate(-344.836 -3.376)" fill="#34334b"/>
    <path id="Path_22250" data-name="Path 22250" d="M11.533,24.991H1.621C.864,24.991.03,25,0,24.028s.738-1.181,1.6-1.181q9.98.018,19.959,0h.272c.792.016,1.529.211,1.5,1.148-.028.871-.738.989-1.476.987q-5.165-.01-10.32,0" transform="translate(-0.002 -16.634)" fill="#d42626"/>
    <path id="Path_22251" data-name="Path 22251" d="M46.517,8.643c2.038,0,4.074.015,6.112,0,.826-.009,1.507.192,1.495,1.119-.009.843-.671,1.079-1.427,1.079H40.474c-.807,0-1.551-.257-1.516-1.142.034-.862.759-1.073,1.583-1.06,1.992.032,3.984.01,5.977.01" transform="translate(-28.35 -6.281)" fill="#d42626"/>
    <path id="Path_22252" data-name="Path 22252" d="M25.009,39.558c-1.992,0-3.984.013-5.977-.007-.686,0-1.417-.03-1.417-1.014s.632-1.142,1.448-1.141q5.977.015,11.953,0c.8,0,1.538.165,1.53,1.094s-.784,1.068-1.563,1.068H25.008" transform="translate(-12.82 -27.215)" fill="#d42626"/>
    <path id="Path_22253" data-name="Path 22253" d="M54.554,54.357H52.119a1.076,1.076,0,0,1-1.228-.975,1.057,1.057,0,0,1,1.08-1.136c1.8-.077,3.605-.044,5.407,0,.685.015.871.59.9,1.132.041.666-.412.956-1.024.975-.9.028-1.8,0-2.7,0h0" transform="translate(-37.031 -37.985)" fill="#d42626"/>
  </g>
</svg>
