<svg xmlns="http://www.w3.org/2000/svg" width="123.151" height="32.101" viewBox="0 0 123.151 32.101">
  <g id="g38" transform="translate(0)">
    <path id="path2" d="M3.994,11.328q0,.158,0,.315c0-.052,0-.1,0-.154S3.994,11.382,3.994,11.328Z" transform="translate(0.736 2.088)" fill="none"/>
    <path id="path4" d="M65.163,20.671l-.031,0a.794.794,0,0,0-.248.007Q65.023,20.675,65.163,20.671Z" transform="translate(11.961 3.808)" fill="none"/>
    <path id="path6" d="M99.1,20.88a.578.578,0,0,1,.066-.024A.325.325,0,0,0,99.1,20.88Z" transform="translate(18.268 3.844)" fill="none"/>
    <path id="path8" d="M8.521,4.444l.512,0A.528.528,0,0,1,9.4,4.5,3.719,3.719,0,0,1,12.22,6.8c.184.369.356.741.574,1.1a2.124,2.124,0,0,0,1.787,1.092l.425.006a2.164,2.164,0,0,0,2.042-1.826A.671.671,0,0,1,17.1,6.8a6.493,6.493,0,0,0-2.456-4.744,7.45,7.45,0,0,0-3.4-1.632C10.986.363,10.724.34,10.465.3a.677.677,0,0,1-.373-.049L9.455.227,8.31.232l-.5.019h0A.609.609,0,0,1,7.445.3a8.587,8.587,0,0,0-3.912,1.48A7.765,7.765,0,0,0,.379,6.459,15.716,15.716,0,0,0,.073,8.613a1.577,1.577,0,0,1-.051.59Q.011,9.7,0,10.2q0,2.27,0,4.54,0,.215,0,.431l.009.218q0,.14.006.281a1.4,1.4,0,0,1,.05.58l.024.424a.637.637,0,0,1,.053.37,8.131,8.131,0,0,0,1.488,4.2,7.977,7.977,0,0,0,3.728,2.848,8.683,8.683,0,0,0,1.647.458.983.983,0,0,1,.393.045.182.182,0,0,1,.047.024l.28.019a1,1,0,0,1,.455.049h0l1.41,0a1.512,1.512,0,0,1,.585-.054,7.6,7.6,0,0,0,4.041-1.438,7.121,7.121,0,0,0,2.822-4.275.665.665,0,0,1,.053-.369l0-.412h0a.971.971,0,0,1-.057-.437A2.19,2.19,0,0,0,15.3,15.949l-.929,0a2.4,2.4,0,0,0-1.736,1.33,12.112,12.112,0,0,1-.992,1.783,3.3,3.3,0,0,1-2.527,1.379,1.164,1.164,0,0,1-.678,0A3.647,3.647,0,0,1,5.113,17.7a.059.059,0,0,1-.039-.084,3.458,3.458,0,0,1-.159-1h0a.583.583,0,0,1-.056-.365L4.844,15.9v0a1.349,1.349,0,0,1-.053-.579q-.007-.254-.014-.508t-.005-.5a1.6,1.6,0,0,1-.044-.622q0-.158,0-.315c-.006-.793,0-1.586,0-2.379a.713.713,0,0,1,.039-.385h0q.01-.5.02-1a1.427,1.427,0,0,1,.052-.59h0a5.249,5.249,0,0,1,.454-2.366A3.548,3.548,0,0,1,8.149,4.5a.575.575,0,0,1,.372-.052Z" transform="translate(0 0.042)" fill="#ed8323"/>
    <path id="path10" d="M30.71.49C30.654.5,30.6.511,30.554.461h0L30.273.416,18.241.411a2.544,2.544,0,0,0-1.4.523,2.111,2.111,0,0,0-.712,1.516q0,10.019,0,20.038a2.082,2.082,0,0,0,1.823,2.065,2.313,2.313,0,0,0,2.875-2.287c0-.047.012-.095.018-.142q-.005-3.611-.009-7.223c0-.067-.025-.147.062-.187h0a.894.894,0,0,1,.141-.022l7.338.005a1,1,0,0,1,.447-.052,1.97,1.97,0,0,0,.984-.455A2.151,2.151,0,0,0,30.4,11.9a1.9,1.9,0,0,0-1.784-1.4L21.106,10.5a.259.259,0,0,1-.2-.045h0c-.092-.056-.06-.149-.06-.227q0-2.691,0-5.381c0-.076-.04-.171.061-.222a1.4,1.4,0,0,1,.177-.022l9.027,0h0a.747.747,0,0,1,.379-.05,1.906,1.906,0,0,0,1.6-1.6,2.352,2.352,0,0,0,0-.941A1.931,1.931,0,0,0,30.71.49Z" transform="translate(2.974 0.076)" fill="#ed8323"/>
    <path id="path12" d="M70.938,21.43a.084.084,0,0,0,.018-.04Z" transform="translate(13.077 3.943)" fill="#1e6c92"/>
    <path id="path14" d="M70.449,29.514a6.524,6.524,0,0,0,2.39-4.057c.028-.14.058-.278.087-.418a.615.615,0,0,1,.055-.361q.008-.252.015-.5,0-8.143,0-16.286a1.276,1.276,0,0,0-1.033-1.321l-.5.008c-.694.2-.877.441-.955,1.242,0,.209.012.417,0,.625-.008.175-.076.084-.13.019A5.256,5.256,0,0,0,66.419,6.5l-1,0a6.736,6.736,0,0,0-3.051.931,5.093,5.093,0,0,0-1.85,2.4,6.667,6.667,0,0,0-.582,2.154c0,.053-.056.1-.085.154l.011.289q-.006.11-.012.22a.842.842,0,0,1-.057.433q-.008.252-.016.5,0,1.257-.006,2.514.011.287.023.574a.6.6,0,0,1,.049.363l.018.293-.011.217a3.825,3.825,0,0,1,.236,1.028,6.27,6.27,0,0,0,1.591,3.17A5.228,5.228,0,0,0,64.46,23.15a7.473,7.473,0,0,0,1.365.135.8.8,0,0,1,.248-.007l.031,0a7.789,7.789,0,0,0,1.219-.134,4.977,4.977,0,0,0,2.919-1.721c.055-.064.109-.128.166-.19a.312.312,0,0,1,.066-.041c.093.088.045.2.043.3a23.54,23.54,0,0,1-.126,3.594,4.154,4.154,0,0,1-3.4,3.6,3.127,3.127,0,0,1-.357.032,4.878,4.878,0,0,1-3.8-.895,5.75,5.75,0,0,0-.959-.626l-.569-.01a1.108,1.108,0,0,0-.64,1.66,4.811,4.811,0,0,0,2.038,1.522,5.828,5.828,0,0,0,2.278.529l1.793,0a6.826,6.826,0,0,0,3.671-1.389ZM70.1,18.282a3.613,3.613,0,0,1-4.009,2.749,3.531,3.531,0,0,1-3.532-3.006,13.5,13.5,0,0,1,.058-6.486,3.958,3.958,0,0,1,6.314-2,4.232,4.232,0,0,1,1.311,2.5,12.034,12.034,0,0,1,.226,2.821A11.39,11.39,0,0,1,70.1,18.282Z" transform="translate(11.018 1.197)" fill="#1e6c92"/>
    <path id="path16" d="M33.187.356h.07l-.07,0v0Z" transform="translate(6.118 0.065)" fill="#1e6c92"/>
    <path id="path18" d="M34.916,2.694q5.221,0,10.442,0c.228,0,.455-.007.683-.011a1.087,1.087,0,0,0,.914-1.031,1.11,1.11,0,0,0-.7-1.157L46.115.43,45.967.415Q40.4.409,34.834.4c-.636,0-1.272.007-1.909.011-.747.194-.926.4-1.029,1.173q0,8.791.005,17.582c0,1.345-.006,2.69-.009,4.035h0a1.136,1.136,0,0,0,.767,1.167,4.079,4.079,0,0,0,.767.077q3.486-.006,6.972-.011c1.641,0,3.282.007,4.923.011.215-.009.432,0,.645-.03a1.148,1.148,0,0,0,.666-1.946,1.41,1.41,0,0,1-.09-.11l-.281-.16h0l-.938-.084c-.814,0-1.628.012-2.442.011q-3.861,0-7.723-.011h0c-.059,0-.118.011-.178.011-.486.006-.486.006-.459-.5,0-2.582,0-5.164-.02-7.746,0-.336.093-.408.415-.407,2.967.01,5.933,0,8.9,0a1.235,1.235,0,0,0,1.3-.937q0-.213,0-.426a1.256,1.256,0,0,0-1.389-.958l-9.018.006c-.066,0-.147.026-.187-.061-.006-.071-.018-.143-.018-.214q0-3.95,0-7.9a2.345,2.345,0,0,1,.026-.248c.118-.093.255-.044.381-.044Z" transform="translate(5.879 0.074)" fill="#1e6c92"/>
    <path id="path20" d="M95.325,15.628q4.494,0,8.988,0c.335,0,.67-.014,1.005-.022.669-.26.767-.834.8-1.446v-.288q0-.1-.007-.209s0-.008,0-.011a1.209,1.209,0,0,1-.047-.5,9.325,9.325,0,0,0-1.321-3.96l-.22-.294a6.8,6.8,0,0,0-1.864-1.587A7.349,7.349,0,0,0,99.838,6.5l-1.074,0a7.287,7.287,0,0,0-2.949.834A5.73,5.73,0,0,0,93.74,9.381a8.954,8.954,0,0,0-1.181,3.4c-.044.271-.023.544-.088.81a1.132,1.132,0,0,1-.052.5q-.007.466-.014.933v.36q.007.286.014.572a1.138,1.138,0,0,1,.053.5l.015.293q0,.145-.009.291c.173.437.18.912.313,1.359a7.618,7.618,0,0,0,1,2.309.267.267,0,0,1,.134.224,5.857,5.857,0,0,0,2.029,1.775,7.864,7.864,0,0,0,1.576.582.853.853,0,0,1,.221.1l.074,0,.8.08a1.033,1.033,0,0,1,.447.051h0l1.272,0a.324.324,0,0,1,.066-.024,1.534,1.534,0,0,1,.443-.031.706.706,0,0,1,.364,0l.952-.236a6.03,6.03,0,0,0,3.073-1.819,1.881,1.881,0,0,0,.315-.556q0-.213,0-.425a1.2,1.2,0,0,0-.931-.821,1.169,1.169,0,0,0-.8.176l-.162.121-.924.686h0l-.143.09a.029.029,0,0,1-.011.007A4.968,4.968,0,0,1,101,21.24c-.109.1-.241.046-.363.056a.526.526,0,0,1-.359.05,4.969,4.969,0,0,1-.947,0,.575.575,0,0,1-.363-.052,3.787,3.787,0,0,1-2.353-.959A5.18,5.18,0,0,1,94.935,16.4a1.041,1.041,0,0,1,0-.732l0,0c.12-.084.256-.043.384-.043Zm-.437-2.221a5.754,5.754,0,0,1,1.071-3.266,4.067,4.067,0,0,1,3.882-1.5,3.888,3.888,0,0,1,3.346,2.54,7.334,7.334,0,0,1,.474,2.243c.02.265-.043.353-.324.35-1.357-.015-2.715-.007-4.072-.007s-2.691-.007-4.036.006C94.942,13.778,94.864,13.7,94.888,13.408Z" transform="translate(17.034 1.198)" fill="#1e6c92"/>
    <path id="path22" d="M59.19,23.235a1.536,1.536,0,0,0,.469-.792A1.169,1.169,0,0,1,59.707,22l.01-.343c0-1.376-.014-2.752-.014-4.128,0-1.6.009-3.207.014-4.811q0-.106-.006-.212a.572.572,0,0,1-.018-.065,3.2,3.2,0,0,1-.038-.657,5.906,5.906,0,0,0-1.818-3.85,5.378,5.378,0,0,0-3.044-1.344c-.212-.025-.423-.059-.635-.088l-.927,0a6.461,6.461,0,0,0-3.164,1.035,3.514,3.514,0,0,0-.73.615c-.077.091-.138.23-.3.227h0a.7.7,0,0,1-.017-.069,5.47,5.47,0,0,1-.043-.776,1.341,1.341,0,0,0-.951-.954l-.5,0a1.137,1.137,0,0,0-1,1.244c0,.1-.014.191-.022.287,0,.144.011.287.011.431q0,5.555,0,11.11c0,.671-.007,1.342-.011,2.013.008.168.02.335.022.5a1.262,1.262,0,0,0,.876,1.3,1.3,1.3,0,0,0,1.54-.9c.012-.034.023-.068.035-.1l.007-.077q0-4.586.011-9.172a.829.829,0,0,1,.039-.423h0a.052.052,0,0,1,.005-.06,3.7,3.7,0,0,1,3.664-3.97h0a1.917,1.917,0,0,1,.888,0A3.562,3.562,0,0,1,57.056,11.8c.022.113.107.218.062.344q0,.179.007.357a1.614,1.614,0,0,1,.06.8c0,.754.015,1.507.014,2.261q0,3.124-.014,6.247a3.426,3.426,0,0,0,.122.942A1.28,1.28,0,0,0,59.19,23.235Z" transform="translate(8.573 1.197)" fill="#1e6c92"/>
    <path id="path24" d="M92.4,12.439a.5.5,0,0,1-.023-.091,3.1,3.1,0,0,1-.031-.566,8.047,8.047,0,0,0-.735-2.526L91.379,8.9a6.2,6.2,0,0,0-1.433-1.439h0l-.354-.225A7.556,7.556,0,0,0,86.844,6.5s0,0,0,0,0,0,0,0l-1,.006a6.393,6.393,0,0,0-2.6.734c-.084.074-.163.157-.291.14-.47.257-.791.7-1.229.995h0a3.3,3.3,0,0,1-.052-.772,1.276,1.276,0,0,0-.959-1.029l-.5,0c-.638.11-.941.407-1,1.245-.021.287-.017.576-.025.864,0,.144.011.287.011.431q0,4.961,0,9.922c0,.875-.007,1.749-.011,2.624a5.3,5.3,0,0,0,.048.853,1.088,1.088,0,0,0,.989.939,1.2,1.2,0,0,0,1.366-.781l.08-.3q0-4.582.009-9.165a.744.744,0,0,1,.042-.421,4.037,4.037,0,0,1,1.064-2.933,3.34,3.34,0,0,1,1.973-1.029,1.739,1.739,0,0,1,.63-.075s0,0,0,0a1.928,1.928,0,0,1,.888,0,3.738,3.738,0,0,1,2.512,1.1.326.326,0,0,1,.2.21,4.27,4.27,0,0,1,.786,1.9c.047.3.061.606.091.909v.36c0,1.089.014,2.178.014,3.266,0,1.771-.009,3.542-.014,5.313q.005.207.011.415a.145.145,0,0,1,.016.038.579.579,0,0,1,.035.266,1.076,1.076,0,0,0,1.072.937,1.177,1.177,0,0,0,1.273-.849,1.027,1.027,0,0,1,.068-.164,0,0,0,0,0,0,0h0a.946.946,0,0,1,.05-.431q0-.142.006-.284c0-1.269-.014-2.537-.014-3.805,0-1.735.009-3.471.014-5.206q0-.139-.008-.277Z" transform="translate(14.599 1.198)" fill="#1e6c92"/>
    <path id="path26" d="M76.486,21.962c0-.106.007-.213.011-.319,0-.144-.011-.287-.011-.431q0-5.555,0-11.11c0-.671.008-1.342.011-2.013a2.121,2.121,0,0,0-.168-.9,1.255,1.255,0,0,0-.784-.625l-.571,0a1.119,1.119,0,0,0-.957,1.168q0,6.955.007,13.909c0,.216,0,.432,0,.648.033.7.441,1.237,1.455,1.155l.135-.03a1.352,1.352,0,0,0,.875-1.453Z" transform="translate(13.644 1.21)" fill="#1e6c92"/>
    <path id="path28" d="M75.667,3.308a.094.094,0,0,1,.012-.025,1.9,1.9,0,0,0,1.239-1.418.493.493,0,0,0-.006-.382A1.635,1.635,0,0,0,75.605.108a1.56,1.56,0,0,0-1.879,1.251.981.981,0,0,0,0,.559,1.628,1.628,0,0,0,1.236,1.364.088.088,0,0,1,.015.031.546.546,0,0,1,.694,0Z" transform="translate(13.583 0.012)" fill="#1e6c92"/>
    <path id="path30" d="M74.964,3.294A1.627,1.627,0,0,1,73.728,1.93a.981.981,0,0,1,0-.559A1.56,1.56,0,0,1,75.611.12,1.635,1.635,0,0,1,76.918,1.5a.493.493,0,0,1,.006.382A1.9,1.9,0,0,1,75.685,3.3a.092.092,0,0,0-.012.025l.015.01A1.746,1.746,0,0,0,77,1.872q0-.176,0-.353c-.029-.1-.06-.205-.087-.308A1.651,1.651,0,0,0,75.186,0a1.563,1.563,0,0,0-1.53,1.369q0,.284-.007.568a1.555,1.555,0,0,0,1.317,1.392l.013-.009a.085.085,0,0,0-.015-.031Z" transform="translate(13.576 0)" fill="#1e6c92"/>
    <path id="path32" d="M74.772,2.827a.055.055,0,0,1,0,.009l.691,0s0-.007,0-.01a.546.546,0,0,0-.694,0Z" transform="translate(13.783 0.498)" fill="#1e6c92"/>
    <path id="path34" d="M74.774,2.807l-.013.009h.014Z" transform="translate(13.781 0.517)" fill="#1e6c92"/>
    <path id="path36" d="M75.357,2.814h.016l-.015-.01A.083.083,0,0,0,75.357,2.814Z" transform="translate(13.891 0.517)" fill="#1e6c92"/>
  </g>
</svg>
