<svg id="chef" xmlns="http://www.w3.org/2000/svg" width="74.37" height="79.465" viewBox="0 0 74.37 79.465">
  <g id="Group_2518" data-name="Group 2518" transform="translate(0 61.422)">
    <path id="Path_14719" data-name="Path 14719" d="M.1,140.468v-.047A8.863,8.863,0,0,1,9.168,131.4a8.9,8.9,0,0,1,6.871,2.711l-2.431,2.8a6.457,6.457,0,0,0-4.441-1.963,5.148,5.148,0,0,0-5.048,5.422v.047a5.16,5.16,0,0,0,5.048,5.469,6.187,6.187,0,0,0,4.581-2.057l2.431,2.477a8.906,8.906,0,0,1-7.152,3.132A8.821,8.821,0,0,1,.1,140.468m21.128-8.741h3.833v6.918H32.12v-6.918h3.833v17.436H32.12v-7.012H25.061v7.012H21.228Zm20.895,0H55.492v3.459H46v3.6H54.37v3.459H46v3.74h9.629v3.459H42.123V131.727Zm19.072,0H74.47v3.506H65.028v3.693h8.321v3.506H65.028v6.731H61.195Z" transform="translate(-0.1 -131.4)" fill="#435363"/>
  </g>
  <path id="Path_14720" data-name="Path 14720" d="M62.693,48.239A11.546,11.546,0,1,1,73.771,33.468h4.487a15.893,15.893,0,1,0,0,6.451H73.772a11.611,11.611,0,0,1-11.078,8.32" transform="translate(-24.97 -11.077)" fill="#435363"/>
  <path id="Path_14721" data-name="Path 14721" d="M64.2,67.725a10.877,10.877,0,0,0,7.76,3.225V66.37a6.4,6.4,0,0,1-4.534-1.87Z" transform="translate(-34.237 -34.35)" fill="#435363"/>
  <path id="Path_14722" data-name="Path 14722" d="M57.3,42.285a10.8,10.8,0,0,0,.935,4.441l4.207-1.87a6.063,6.063,0,0,1-.561-2.571,6.384,6.384,0,0,1,6.4-6.4V31.3A10.972,10.972,0,0,0,57.3,42.285" transform="translate(-30.562 -16.669)" fill="#f38b00"/>
  <path id="Path_14723" data-name="Path 14723" d="M87.436,32.9,85.8,37.154a6.412,6.412,0,0,1,3.225,2.758h5A11.155,11.155,0,0,0,87.436,32.9" transform="translate(-45.74 -17.521)" fill="#435363"/>
  <path id="Path_14724" data-name="Path 14724" d="M85.8,64.458l1.683,4.3A11.044,11.044,0,0,0,94.027,61.7h-5A6.9,6.9,0,0,1,85.8,64.458" transform="translate(-45.74 -32.859)" fill="#f38b00"/>
  <path id="Path_14725" data-name="Path 14725" d="M31.282,60.917a3.5,3.5,0,0,1-.187-.748v-.047a3.894,3.894,0,0,0-.187-.7c-.047-.234-.093-.467-.14-.748,0-.093-.047-.187-.047-.28-.047-.14-.047-.327-.093-.467,0-.14-.047-.28-.047-.421a18.849,18.849,0,0,1-.187-2.8H26a22.775,22.775,0,0,0,.187,3.085v.047a5.151,5.151,0,0,1,.093.841c0,.093.047.14.047.234.047.234.093.467.14.654a1.1,1.1,0,0,0,.093.374,2.412,2.412,0,0,1,.093.514,1.661,1.661,0,0,1,.093.467c.047.14.047.28.093.421l.14.561c0,.093.047.14.047.234h0a21.586,21.586,0,0,0,1.075,2.9l3.973-1.73c-.28-.795-.561-1.589-.795-2.384Z" transform="translate(-13.893 -29.131)" fill="#435363"/>
  <path id="Path_14726" data-name="Path 14726" d="M53.586,46.885a21.4,21.4,0,0,1-15.052-6.217L35.45,43.753A25.589,25.589,0,0,0,78.969,28.841H74.575A21.207,21.207,0,0,1,53.586,46.885m0-42.537A21.114,21.114,0,0,1,66.3,8.6L68.919,5.1A25.388,25.388,0,0,0,53.586,0,25.7,25.7,0,0,0,29.7,16.314L33.767,17.9A21.248,21.248,0,0,1,53.586,4.347" transform="translate(-15.864)" fill="#f38b00"/>
  <path id="Path_14727" data-name="Path 14727" d="M122.392,36.177h4.394A25.866,25.866,0,0,0,123.093,25.8L119.4,28.09a20.908,20.908,0,0,1,2.992,8.087" transform="translate(-63.634 -13.74)" fill="#435363"/>
  <path id="Path_14728" data-name="Path 14728" d="M103.59,29.627h4.394A20.88,20.88,0,0,0,94.989,13.5L93.4,17.52a16.378,16.378,0,0,1,10.19,12.107" transform="translate(-49.787 -7.19)" fill="#f38b00"/>
  <path id="Path_14729" data-name="Path 14729" d="M58.805,14.747V10.4h0A20.677,20.677,0,0,0,39.5,23.629l4.02,1.589A16.406,16.406,0,0,1,58.805,14.747" transform="translate(-21.083 -5.539)" fill="#435363"/>
  <path id="Path_14730" data-name="Path 14730" d="M40.747,54.8H36.4A20.844,20.844,0,0,0,49.442,74.059l1.589-4.02A16.528,16.528,0,0,1,40.747,54.8" transform="translate(-19.432 -29.184)" fill="#f38b00"/>
  <path id="Path_14731" data-name="Path 14731" d="M80.8,74.882v4.347A20.768,20.768,0,0,0,101.274,61.7H96.88A16.446,16.446,0,0,1,80.8,74.882" transform="translate(-43.077 -32.859)" fill="#435363"/>
</svg>
