<svg xmlns="http://www.w3.org/2000/svg" xmlns:xlink="http://www.w3.org/1999/xlink" width="185.885" height="47.095" viewBox="0 0 185.885 47.095">
  <defs>
    <clipPath id="clip-path">
      <rect id="Rectangle_538" data-name="Rectangle 538" width="185.885" height="47.095" fill="none"/>
    </clipPath>
  </defs>
  <g id="Group_2377" data-name="Group 2377" clip-path="url(#clip-path)">
    <path id="Path_22217" data-name="Path 22217" d="M53.565,34.322,41.6,36.491a5.944,5.944,0,0,1-1.381,1.228,4.3,4.3,0,0,1-3.412.311,7.39,7.39,0,0,1-1.365-.437l-2.92.4L34.3,52.785l20.5-3.694ZM35.322,51.38l-.172-1.608L38.5,44.664l3.8,1.111,3.275-5.458L49.495,42.9l2.972-6.253L53.524,48.02Zm-.86-14.53a20.549,20.549,0,0,1-3.674-3.066c-.112-.085-.094-.46-.094-.46A20.622,20.622,0,0,0,36.442,36.4a4.689,4.689,0,0,0,3.608-.307,9.219,9.219,0,0,0,2.777-2.445l.124.217a5.553,5.553,0,0,1-.478,1.124,3.066,3.066,0,0,0,.819.3l2.192-.341a6.686,6.686,0,0,0,.749-5.269,15.346,15.346,0,0,0-2.26-3.467c-.45-.431.075-2.1-.819-3.919a17.834,17.834,0,0,0-4.46-4.8,11.863,11.863,0,0,1,3.148,2.095c.085-.112.12-.7.2-.843a6.194,6.194,0,0,1-.834-3.3,5.479,5.479,0,0,0-.45-1.886,3.01,3.01,0,0,1,.974,1.668,6.8,6.8,0,0,0,1.407,3.066c1.261,1.571,2.4,2.377,2.975,1.8.682-.7-.7-3.821-2.471-5.558-2.065-2.029-2.608-1.774-3.821-1.335-.968.344-1.49,3.094-4.015,3.039-.428-.049-1.528-.076-2.073-.072.284-.4.527-.7.527-.7a12.864,12.864,0,0,0-1.567.772l-.056-.085a4.536,4.536,0,0,1,.5-.837,14.34,14.34,0,0,0-1.292.892,1.964,1.964,0,0,1,.538-1,4,4,0,0,0-1.943,1.352,13.3,13.3,0,0,0-2.52,1A4.376,4.376,0,0,1,24.844,15.6a1.976,1.976,0,0,0-2.525-.5c-1.453.6-3.294,1.426-3.294,1.426s.6-.023,1.228,0a15.945,15.945,0,0,0-1.678.77s.4-.014.9,0a8.46,8.46,0,0,1-.856.635A12.145,12.145,0,0,0,17.2,19.152a8.449,8.449,0,0,1,1.008-.378c-.333.764-.993,1.328-.872,2.264a7.456,7.456,0,0,0,2.52,3.7c.117.094,1.966,1.8,3.362,1.1s1.949-1.332,2.172-2.287c.273-1.1.116-1.934-.459-4.324-.19-.789-.682-2.413-.924-3.19l.055-.04a39.618,39.618,0,0,1,2.093,5.2c.734,2.658.5,4.006.169,4.5a3.848,3.848,0,0,1-4.79.861,9.84,9.84,0,0,0,.675,4.756,6.078,6.078,0,0,0,.364,2.084,2.5,2.5,0,0,1,.273-.94,6.16,6.16,0,0,0,.423,1.584,2.976,2.976,0,0,1,.145-.989,6.568,6.568,0,0,0,.626.787,4.327,4.327,0,0,0,.666,1.34,3.611,3.611,0,0,1-.033-.847,5.658,5.658,0,0,1,1.377,3.724c.3,3.207-5.056,5.756-6.1,7.762-.787,1.187-1.258,3.068.075,4.176,3.223,2.676,1.986,3.411,3.6,4.589a4.421,4.421,0,0,0,5.925-.422A5.383,5.383,0,0,0,30.041,49a8.4,8.4,0,0,0-2.7-4.167,5.6,5.6,0,0,0-3.659-.872l.1-.115a6,6,0,0,1,4.345.617,7.766,7.766,0,0,1,3.188,4.576c.722-.1.819-.15,1.485-.244l-1.489-11.6Zm7.474-14.514c1.365.637,1.191,1.852,1.228,2.564a2.025,2.025,0,0,1-.01.438,1.853,1.853,0,0,0-.965-.157,3.479,3.479,0,0,0-.409.044A2.866,2.866,0,0,1,40.7,23.86a1.553,1.553,0,0,1-.063-.145c-.008-.02-.018-.044-.025-.063l-.01-.027c-.153-.482-.05-.579.015-.726s.314-.273-.052-.409a.709.709,0,0,0-.115-.026,1.408,1.408,0,0,1,1.486-.136m-1.695,7.96a7.733,7.733,0,0,1,2.617-.726,5.011,5.011,0,0,1,1.612-.01c.356.2.356.806.112,1.365-.355.819-.858,1.719-1.427,1.8a4.027,4.027,0,0,1-2.81-1.13.819.819,0,0,1-.094-1.294m-8.8-6.206c1.472-1,3.372-.609,3.054-.307-.606.576.2.409.288,1.471a1.833,1.833,0,0,1-.409,1.461,9.39,9.39,0,0,0-1.691.39,8.583,8.583,0,0,0-1.048.418,2.428,2.428,0,0,1-.273-.2,2.032,2.032,0,0,1,.081-3.229" transform="translate(-12.626 -9.459)" fill="#fff"/>
    <path id="Path_22218" data-name="Path 22218" d="M42.115,23.215l-1.176.225L38.665,0,0,4.481l4.762,38.64,4.526-.656A10.2,10.2,0,0,0,7.4,40.529c-1.333-1.107-.862-2.987-.075-4.174,1.04-2.006,6.4-4.555,6.1-7.763a5.66,5.66,0,0,0-1.377-3.724,3.611,3.611,0,0,0,.033.847,4.322,4.322,0,0,1-.666-1.34,6.588,6.588,0,0,1-.626-.787,2.983,2.983,0,0,0-.145.989,6.153,6.153,0,0,1-.423-1.584,2.5,2.5,0,0,0-.273.94,6.079,6.079,0,0,1-.364-2.084,9.841,9.841,0,0,1-.675-4.756,3.848,3.848,0,0,0,4.791-.861c.336-.494.565-1.842-.169-4.5a39.61,39.61,0,0,0-2.091-5.2l-.053.04c.24.776.734,2.4.924,3.19.575,2.391.729,3.222.459,4.324-.229.955-.779,1.584-2.174,2.286s-3.245-1.008-3.362-1.1a7.456,7.456,0,0,1-2.52-3.7c-.121-.936.546-1.5.872-2.263a8.4,8.4,0,0,0-1.008.378A12.164,12.164,0,0,1,5.993,8.462a8.5,8.5,0,0,0,.856-.635c-.5-.008-.9,0-.9,0a15.886,15.886,0,0,1,1.678-.77c-.626-.027-1.228,0-1.228,0S8.245,6.239,9.7,5.632a1.976,1.976,0,0,1,2.529.509,4.378,4.378,0,0,0,3.079,1.953,13.3,13.3,0,0,1,2.522-1,4,4,0,0,1,1.943-1.352,1.965,1.965,0,0,0-.538,1,14.374,14.374,0,0,1,1.292-.892,4.545,4.545,0,0,0-.5.837l.056.085A12.864,12.864,0,0,1,21.644,6s-.243.306-.527.7c.546,0,1.644.023,2.073.072,2.523.055,3.046-2.7,4.015-3.039,1.213-.434,1.755-.695,3.821,1.335C32.8,6.815,34.185,9.933,33.5,10.632c-.576.58-1.714-.227-2.975-1.8A6.807,6.807,0,0,1,29.115,5.77a3.01,3.01,0,0,0-.974-1.676,5.479,5.479,0,0,1,.45,1.886,6.192,6.192,0,0,0,.834,3.3c-.078.147-.112.731-.2.843a11.872,11.872,0,0,0-3.148-2.1,17.839,17.839,0,0,1,4.46,4.8c.89,1.819.366,3.488.819,3.919a15.353,15.353,0,0,1,2.26,3.469,6.686,6.686,0,0,1-.749,5.269l-2.192.343a3.073,3.073,0,0,1-.819-.3,5.562,5.562,0,0,0,.478-1.126l-.124-.217a9.226,9.226,0,0,1-2.784,2.449,4.689,4.689,0,0,1-3.608.307,20.632,20.632,0,0,1-5.752-3.074s-.019.375.094.46a20.548,20.548,0,0,0,3.671,3.064l-3.151.347,1.489,11.592c-.66.094-.763.136-1.485.244A7.767,7.767,0,0,0,15.5,35a6,6,0,0,0-4.345-.617l-.1.115a5.6,5.6,0,0,1,3.659.872,8.4,8.4,0,0,1,2.7,4.167,5.383,5.383,0,0,1-.487,5.165,4.413,4.413,0,0,1-5.857.469,3.579,3.579,0,0,0,2.456,1.864,4.686,4.686,0,0,0,4.135-1.126,6.745,6.745,0,0,0,1.228-4.821l1.4-.2.506,3.6,23.213-2.8ZM19.888,28.537l2.92-.4a7.392,7.392,0,0,0,1.365.437,4.3,4.3,0,0,0,3.412-.311,5.946,5.946,0,0,0,1.382-1.228l11.972-2.168,1.228,14.769L21.661,43.327Zm16.974,4.9-3.919-2.579-3.275,5.458-3.795-1.105-3.349,5.109.172,1.607L40.9,38.57,39.847,27.2ZM18.817,14.627a2.032,2.032,0,0,0-.081,3.229,2.493,2.493,0,0,0,.273.2,8.6,8.6,0,0,1,1.048-.418,9.4,9.4,0,0,1,1.691-.392,1.833,1.833,0,0,0,.409-1.461c-.087-1.064-.894-.894-.288-1.471.318-.3-1.58-.7-3.054.307m8.895,7.505a4.027,4.027,0,0,0,2.81,1.13c.569-.075,1.073-.977,1.427-1.8.244-.562.243-1.172-.112-1.365a5.014,5.014,0,0,0-1.612.01,7.735,7.735,0,0,0-2.606.731.819.819,0,0,0,.094,1.294m.273-7.965.01.029a.193.193,0,0,0,.025.061c.018.045.038.091.064.145a2.866,2.866,0,0,0,1.085,1.365,3.478,3.478,0,0,1,.409-.044,1.859,1.859,0,0,1,.965.157,2.024,2.024,0,0,0,.01-.438c-.037-.712.136-1.927-1.228-2.564a1.408,1.408,0,0,0-1.486.136.682.682,0,0,1,.115.026c.366.127.117.252.052.409s-.166.244-.015.726" fill="#7749a3"/>
    <path id="Path_22219" data-name="Path 22219" d="M203.6,70.9h-8.69v-20h8.69q9.39,0,9.394,9.457,0,10.547-9.394,10.548m-4.975-3.22h4.415q6.236,0,6.236-7.332,0-6.242-6.236-6.243h-4.415Z" transform="translate(-143.038 -37.35)" fill="#7749a3" fill-rule="evenodd"/>
    <path id="Path_22220" data-name="Path 22220" d="M266.961,70.9H263.14L271.65,50.9h3.994L284.337,70.9h-3.994l-2.523-5.458h-6.414l1.275-3.216h4.165l-3.275-7.515Z" transform="translate(-193.115 -37.351)" fill="#7749a3" fill-rule="evenodd"/>
    <path id="Path_22221" data-name="Path 22221" d="M334.9,50.9h15.21v3.216h-5.746V70.9h-3.714V54.116H334.9Z" transform="translate(-245.776 -37.35)" fill="#7749a3" fill-rule="evenodd"/>
    <path id="Path_22222" data-name="Path 22222" d="M388.709,70.9H384.9L393.41,50.9H397.4L406.1,70.9h-4l-2.523-5.458h-6.414l1.275-3.216H398.6l-3.275-7.515Z" transform="translate(-282.461 -37.351)" fill="#7749a3" fill-rule="evenodd"/>
    <path id="Path_22223" data-name="Path 22223" d="M482.5,70.9h-8.7v-20h8.69q9.4,0,9.394,9.457,0,10.547-9.394,10.548m-4.975-3.22h4.415q6.236,0,6.24-7.332,0-6.242-6.24-6.243h-4.415Z" transform="translate(-347.711 -37.35)" fill="#7749a3" fill-rule="evenodd"/>
    <path id="Path_22224" data-name="Path 22224" d="M551.206,60.531q0-10.176,10.068-10.174,9.911,0,9.908,10.174,0,10.117-9.908,10.117-9.621,0-10.068-10.117m10.068,6.894q6.052,0,6.053-6.981,0-6.872-6.053-6.875-6.212,0-6.21,6.875,0,6.983,6.21,6.981" transform="translate(-404.512 -36.955)" fill="#7749a3" fill-rule="evenodd"/>
    <path id="Path_22225" data-name="Path 22225" d="M648.747,62.411V67.1a9.224,9.224,0,0,1-2.3.334q-6.812,0-6.811-7.205,0-6.652,7.217-6.651a13.978,13.978,0,0,1,5.606,1.12V51.336a16.631,16.631,0,0,0-5.887-.978q-10.793,0-10.8,9.867,0,10.421,10.611,10.424a15.113,15.113,0,0,0,6.07-1.064V59.12h-6L645.2,62.41Z" transform="translate(-466.577 -36.956)" fill="#7749a3" fill-rule="evenodd"/>
  </g>
</svg>
