<svg id="source-mgmt-icon2" xmlns="http://www.w3.org/2000/svg" width="130.002" height="28.108" viewBox="0 0 130.002 28.108">
  <path id="Path_22395" data-name="Path 22395" d="M359.194,138.126h4.277a9.356,9.356,0,0,0-9.751-7.7c-6.051,0-10.592,4.448-10.592,11.9,0,7.318,4.337,11.857,10.716,11.857a9.193,9.193,0,0,0,9.823-9.643v-2.776h-9.383v3.274h5.329a5.252,5.252,0,0,1-5.748,5.385c-3.871,0-6.524-2.908-6.524-8.141,0-5.206,2.7-8.095,6.436-8.095a5.3,5.3,0,0,1,5.419,3.938Z" transform="translate(-306.706 -127.535)" fill="#171321"/>
  <path id="Path_22396" data-name="Path 22396" d="M466.44,149.148h4.087V131.814H466.44ZM468.5,129.06a2.224,2.224,0,1,0-2.371-2.214A2.3,2.3,0,0,0,468.5,129.06Z" transform="translate(-406.669 -122.819)" fill="#171321"/>
  <path id="Path_22397" data-name="Path 22397" d="M511.67,144.944h-3.421V140.78h-4.087v4.164H501.7v3.161h2.46v9.645c-.022,3.262,2.35,4.872,5.419,4.776a8.3,8.3,0,0,0,2.407-.407l-.684-3.2a4.98,4.98,0,0,1-1.2.159c-1.026,0-1.853-.361-1.853-2.01V148.1h3.421Z" transform="translate(-435.573 -135.949)" fill="#171321"/>
  <path id="Path_22398" data-name="Path 22398" d="M571.78,155.225h14.37v-3.512H575.966V132.1H571.78Z" transform="translate(-492.52 -128.894)" fill="#171321"/>
  <path id="Path_22399" data-name="Path 22399" d="M665.146,179.671a5.356,5.356,0,0,0,5.091-2.737h.135v2.381h3.934V167.709c0-4.583-3.736-5.962-7.046-5.962-3.647,0-6.446,1.625-7.356,4.79l3.817.544a3.461,3.461,0,0,1,3.56-2.2c1.9,0,2.937.97,2.937,2.675v.067c0,1.174-1.232,1.232-4.292,1.557-3.363.361-6.581,1.369-6.581,5.274C659.342,177.865,661.834,179.671,665.146,179.671Zm1.343-3c-1.711,0-2.925-.78-2.925-2.28,0-1.57,1.369-2.224,3.185-2.486a12.454,12.454,0,0,0,3.748-.845V173.1a3.676,3.676,0,0,1-4.008,3.562Z" transform="translate(-563.683 -152.99)" fill="#171321"/>
  <path id="Path_22400" data-name="Path 22400" d="M755.21,155.225h4.02v-2.737h.236a5.231,5.231,0,0,0,4.964,3.048c4.087,0,7.147-3.25,7.147-8.954,0-5.78-3.149-8.919-7.159-8.919a5.147,5.147,0,0,0-4.961,3.095h-.171V132.1H755.21Zm4.008-8.671c0-3.373,1.445-5.544,4.076-5.544,2.722,0,4.123,2.315,4.123,5.544s-1.422,5.621-4.123,5.621c-2.609,0-4.077-2.256-4.077-5.621Z" transform="translate(-641.576 -128.894)" fill="#171321"/>
  <path id="Path_22401" data-name="Path 22401" d="M177.531,126.122l-.039-.1-3.972-10.363a1.027,1.027,0,0,0-.409-.493,1.049,1.049,0,0,0-1.576.6l-2.682,8.211H157.994l-2.682-8.211a1.052,1.052,0,0,0-1.576-.6,1.026,1.026,0,0,0-.409.493l-3.97,10.365-.041.1a7.377,7.377,0,0,0,2.448,8.524l.015.012.034.026,6.044,4.53,3,2.265,1.822,1.377a1.232,1.232,0,0,0,1.485,0l1.822-1.377,3-2.265,6.087-4.556.017-.014a7.376,7.376,0,0,0,2.445-8.523Z" transform="translate(-148.828 -114.996)" fill="#e24329"/>
  <path id="Path_22402" data-name="Path 22402" d="M240.843,173.914l-.039-.1a13.4,13.4,0,0,0-5.341,2.395l-8.724,6.6,5.555,4.2,6.087-4.555.017-.014a7.376,7.376,0,0,0,2.446-8.516Z" transform="translate(-212.14 -162.788)" fill="#fc6d26"/>
  <path id="Path_22403" data-name="Path 22403" d="M197,226.028l3,2.265,1.822,1.377a1.232,1.232,0,0,0,1.485,0l1.822-1.377,3-2.265-5.555-4.2Z" transform="translate(-187.973 -201.81)" fill="#fca326"/>
  <path id="Path_22404" data-name="Path 22404" d="M154.7,176.218a13.388,13.388,0,0,0-5.339-2.395l-.041.1a7.377,7.377,0,0,0,2.448,8.524l.015.012.034.026,6.044,4.53,5.558-4.2Z" transform="translate(-148.828 -162.795)" fill="#fc6d26"/>
</svg>
