<svg xmlns="http://www.w3.org/2000/svg" xmlns:xlink="http://www.w3.org/1999/xlink" width="103.945" height="28.109" viewBox="0 0 103.945 28.109">
  <defs>
    <clipPath id="clip-path">
      <rect id="Rectangle_559" data-name="Rectangle 559" width="103.945" height="28.11" fill="none"/>
    </clipPath>
  </defs>
  <g id="Group_2409" data-name="Group 2409" clip-path="url(#clip-path)">
    <path id="Path_22388" data-name="Path 22388" d="M20.015,12.031H11.29a.409.409,0,0,0-.409.409v4.277a.409.409,0,0,0,.409.409h3.4v5.3a10.32,10.32,0,0,1-2.881.26c-2.5,0-5.987-.912-5.987-8.577s3.637-8.68,7.045-8.68A13.812,13.812,0,0,1,17.9,6.2a.411.411,0,0,0,.489-.4l.975-4.126a.38.38,0,0,0-.156-.318C18.877,1.12,16.874,0,11.812,0,5.987,0,0,2.48,0,14.407s6.843,13.7,12.62,13.7A14.209,14.209,0,0,0,20.3,26.069a.351.351,0,0,0,.132-.31V12.44a.409.409,0,0,0-.409-.409" fill="#0e0d0d"/>
    <path id="Path_22389" data-name="Path 22389" d="M231.236,5.115a.407.407,0,0,0-.405-.411h-4.918a.409.409,0,0,0-.407.411v9.5H217.84v-9.5a.407.407,0,0,0-.405-.411h-4.918a.409.409,0,0,0-.405.411V30.85a.411.411,0,0,0,.405.412h4.918a.409.409,0,0,0,.405-.412V19.842h7.665l-.014,11.008a.411.411,0,0,0,.407.412h4.93a.409.409,0,0,0,.405-.412Z" transform="translate(-166.202 -3.686)" fill="#0e0d0d"/>
    <path id="Path_22390" data-name="Path 22390" d="M112.416,10.586a3.185,3.185,0,1,0-.921,2.26,3.172,3.172,0,0,0,.921-2.26" transform="translate(-83.114 -5.779)" fill="#0e0d0d"/>
    <path id="Path_22391" data-name="Path 22391" d="M112.98,55.932V44.054a.409.409,0,0,0-.407-.411h-4.9a.469.469,0,0,0-.426.457V61.121c0,.5.311.648.715.648h4.417c.484,0,.6-.238.6-.657Z" transform="translate(-84.037 -34.197)" fill="#0e0d0d"/>
    <path id="Path_22392" data-name="Path 22392" d="M327.9,43.822h-4.881a.409.409,0,0,0-.405.412v12.62a5.514,5.514,0,0,1-3,.907c-1.76,0-2.224-.8-2.224-2.522v-11a.409.409,0,0,0-.405-.412h-4.961a.411.411,0,0,0-.407.412V56.072c0,5.118,2.852,6.371,6.776,6.371a11.439,11.439,0,0,0,5.816-1.779,10.329,10.329,0,0,0,.171,1.049.431.431,0,0,0,.359.222l3.151-.014a.411.411,0,0,0,.407-.411V44.232a.409.409,0,0,0-.407-.412" transform="translate(-244.175 -34.338)" fill="#0e0d0d"/>
    <path id="Path_22393" data-name="Path 22393" d="M410.8,12.592a9.176,9.176,0,0,0-4.656,1.237V5.115a.407.407,0,0,0-.405-.411h-4.932a.409.409,0,0,0-.407.411V30.85a.411.411,0,0,0,.407.412h3.421a.409.409,0,0,0,.358-.219,8.04,8.04,0,0,0,.209-1.187,8.824,8.824,0,0,0,5.835,1.911c4.482,0,7.053-2.273,7.053-10.206s-4.106-8.969-6.879-8.969m-1.925,14.5a5.852,5.852,0,0,1-2.841-.819v-8.15a6.5,6.5,0,0,1,2.521-.819c1.757-.157,3.45.373,3.45,4.566,0,4.42-.765,5.293-3.132,5.223" transform="translate(-313.738 -3.686)" fill="#0e0d0d"/>
    <path id="Path_22394" data-name="Path 22394" d="M154.474,24.987h-3.693V20.113c0-.185-.1-.277-.308-.277h-5.029c-.2,0-.3.086-.3.274v5.036s-2.52.609-2.689.657a.409.409,0,0,0-.294.392v3.16a.409.409,0,0,0,.407.411h2.568v7.63c0,5.655,3.967,6.211,6.644,6.211a11.226,11.226,0,0,0,2.929-.482.38.38,0,0,0,.231-.37V39.273a.416.416,0,0,0-.407-.411c-.216,0-.765.087-1.331.087-1.812,0-2.426-.843-2.426-1.933V29.78h3.69a.409.409,0,0,0,.407-.411V25.4a.409.409,0,0,0-.407-.411" transform="translate(-111.39 -15.542)" fill="#0e0d0d"/>
  </g>
</svg>
