<svg id="Group_2400" data-name="Group 2400" xmlns="http://www.w3.org/2000/svg" width="195.752" height="55.786" viewBox="0 0 195.752 55.786">
  <path id="Path_22306" data-name="Path 22306" d="M418.188,57.337c-.177.035-.352.425-.352.635-.035,1.414-.071,5.157-.071,7.7a.261.261,0,0,0,.212.212c.529.035,1.8.071,2.9.071a7.554,7.554,0,0,0,2.9-.423,3.751,3.751,0,0,0,1.872-3.539c0-3.427-2.4-4.733-5.969-4.733a5.686,5.686,0,0,0-1.484.071ZM427.3,73.125c0-3.5-2.58-5.44-7.242-5.44a20.462,20.462,0,0,0-2.049.035c-.106.035-.248.106-.248.212,0,2.507-.035,6.5.071,8.061A2.665,2.665,0,0,0,419,77.9a8.087,8.087,0,0,0,3.073.423,4.823,4.823,0,0,0,5.228-5.193ZM410.981,55.394c.354,0,1.414.106,4.129.106,2.578,0,4.626-.071,7.135-.071,3.073,0,7.312,1.1,7.312,5.686a5.539,5.539,0,0,1-3.673,4.945c-.106.035-.106.106,0,.142,2.967.741,5.582,2.58,5.582,6.04a7.417,7.417,0,0,1-5.193,6.882,16.9,16.9,0,0,1-6.571,1.1c-1.8,0-6.64-.212-9.326-.142-.283-.106.248-1.376.494-1.589a6.59,6.59,0,0,0,1.8-.283c.954-.248,1.06-.529,1.2-1.978.071-1.237.071-5.617.071-8.724,0-4.275.035-7.171,0-8.584-.035-1.1-.425-1.449-1.2-1.659-.6-.106-1.589-.248-2.4-.354-.177-.177.423-1.376.635-1.52ZM390.6,77.365a7.118,7.118,0,0,0,3.991.954,7.828,7.828,0,0,0,5.651-2.013,10.737,10.737,0,0,0,3.179-8.478,10.12,10.12,0,0,0-4.627-9.149,12.5,12.5,0,0,0-6.642-1.555,5.291,5.291,0,0,0-1.978.248,1.04,1.04,0,0,0-.354.564c-.071.706-.071,6.146-.071,9.326,0,3.286,0,7.877.071,8.407a2.192,2.192,0,0,0,.786,1.695Zm-8.018-21.97c.67,0,3.25.106,4.487.106,2.226,0,3.814-.106,8.018-.106a13.069,13.069,0,0,1,8.62,2.753,11.453,11.453,0,0,1,3.921,9.044,11.836,11.836,0,0,1-4.874,10.173,16.335,16.335,0,0,1-10.138,2.861c-2.4,0-6.536-.071-9.961-.106h-.035c-.177-.319.283-1.553.564-1.589a5.617,5.617,0,0,0,1.624-.319c.741-.283.883-.671.983-1.978.106-2.438.071-5.37.071-8.689,0-2.359.035-6.994-.035-8.478-.106-1.237-.635-1.553-1.695-1.77-.529-.106-1.237-.248-2.226-.354-.142-.248.494-1.343.67-1.555Z" transform="translate(-235.715 -34.264)" fill="#8e714e" fill-rule="evenodd"/>
  <path id="Path_22307" data-name="Path 22307" d="M155.152,91.946a7.109,7.109,0,0,1-2.3-.6,1.077,1.077,0,0,1-.283-.564c-.071-1.237-.071-4.768-.071-7.135a8.327,8.327,0,0,0-1.131-4.733,4.823,4.823,0,0,0-4.1-2.12,9.448,9.448,0,0,0-5.37,2.544c-.035.035-.319.283-.283-.106,0-.393.071-1.166.106-1.695a.918.918,0,0,0-.248-.741A23.583,23.583,0,0,1,136,78.21c-.847.177-1.06.983-.177,1.272h.035a7.847,7.847,0,0,1,2.084.918,1.1,1.1,0,0,1,.319.983c.035,2.648.035,6.711-.071,8.936-.035.883-.283,1.2-.918,1.343l.071-.035a13.911,13.911,0,0,1-1.484.283,2.067,2.067,0,0,0,0,1.589c.393,0,2.438-.106,4.129-.106,2.332,0,3.539.106,4.129.106a2.3,2.3,0,0,0,.177-1.589,6.558,6.558,0,0,1-1.624-.248c-.635-.142-.812-.458-.847-1.2-.071-1.872-.071-5.828-.071-8.514a1.7,1.7,0,0,1,.423-1.308,5.342,5.342,0,0,1,3.285-1.2,3.651,3.651,0,0,1,2.438.812,3.474,3.474,0,0,1,1.131,2.226c.177,1.52.106,4.522.106,7.135,0,1.414-.106,1.77-.635,1.943a6.728,6.728,0,0,1-1.624.319,2.068,2.068,0,0,0,0,1.589c1.024,0,2.226-.106,3.991-.106,2.19,0,3.6.106,4.168.106a2.458,2.458,0,0,0,.106-1.52Zm9.784-13.494c-1.872,0-3.038,1.449-3.038,3.708,0,2.3,1.024,4.945,3.921,4.945a2.737,2.737,0,0,0,1.836-.706,4.679,4.679,0,0,0,1.131-3.25C168.786,80.218,167.337,78.452,164.936,78.452Zm-.248,15.614a3.036,3.036,0,0,0-1.518.393c-1.484.954-2.163,1.872-2.163,2.967a3.124,3.124,0,0,0,1.237,2.542,6.276,6.276,0,0,0,4.239,1.308c3.6,0,5.193-1.943,5.193-3.85a2.7,2.7,0,0,0-2.049-2.719,14.273,14.273,0,0,0-4.945-.635Zm.248,9.184a7.816,7.816,0,0,1-5.051-1.484,4.656,4.656,0,0,1-1.872-3.5,2.705,2.705,0,0,1,.706-1.77,18.725,18.725,0,0,1,3.25-2.613c.071-.035.106-.071.106-.142a.234.234,0,0,0-.142-.177,3.36,3.36,0,0,1-2.3-2.226V91.27c-.035-.212-.106-.423.212-.635.248-.177.6-.393.983-.635a14.5,14.5,0,0,0,1.624-1.06.26.26,0,0,0,.071-.212.234.234,0,0,0-.142-.177,5.151,5.151,0,0,1-3.708-5.405,5.362,5.362,0,0,1,2.261-4.451,10.382,10.382,0,0,1,5.087-1.73h.106a10.826,10.826,0,0,1,3.885.847,6.538,6.538,0,0,0,2.3.354,3.057,3.057,0,0,0,2.472-.918,1.928,1.928,0,0,1,.142.706,2.668,2.668,0,0,1-.46,1.624,2.007,2.007,0,0,1-1.553.67h-.177a7.863,7.863,0,0,1-.918-.142l-.142.071c-.035.071,0,.142.035.248l.035.071a13.056,13.056,0,0,1,.212,1.52,5.724,5.724,0,0,1-2.4,5.112,8.132,8.132,0,0,1-4.129,1.589,4.419,4.419,0,0,0-.494.035c-.177,0-.425.035-.46.035h-.035c-.283.071-.983.423-.983,1.024,0,.529.319,1.166,1.836,1.272.319.035.635.035.983.071a31.011,31.011,0,0,1,5.686.706,3.96,3.96,0,0,1,2.648,3.779,7.757,7.757,0,0,1-4.98,6.569,11.365,11.365,0,0,1-4.7,1.024ZM185.07,78.629a3.28,3.28,0,0,0-1.907.529,5.462,5.462,0,0,0-2.084,5.016c0,4.628,2.332,7.877,5.651,7.877a3.594,3.594,0,0,0,2.438-.847,6.276,6.276,0,0,0,1.555-4.915c0-4.591-2.3-7.668-5.651-7.668Zm.635,15.118c-6,0-8.16-4.416-8.16-8.549a7.647,7.647,0,0,1,3.5-6.711,10.631,10.631,0,0,1,5.405-1.589,7.568,7.568,0,0,1,7.806,8.018,8.2,8.2,0,0,1-3.708,7.312,9.8,9.8,0,0,1-4.839,1.52ZM122.759,78.629a3.281,3.281,0,0,0-1.907.529,5.462,5.462,0,0,0-2.084,5.016c0,4.628,2.332,7.877,5.651,7.877a3.594,3.594,0,0,0,2.438-.847,6.276,6.276,0,0,0,1.555-4.915c0-4.591-2.261-7.668-5.651-7.668Zm.635,15.118c-6,0-8.16-4.416-8.16-8.549a7.647,7.647,0,0,1,3.5-6.711,10.631,10.631,0,0,1,5.405-1.589,7.568,7.568,0,0,1,7.806,8.018,8.2,8.2,0,0,1-3.708,7.312,9.569,9.569,0,0,1-4.839,1.52ZM83.02,93.393a1.514,1.514,0,0,1-.106-.812,1.192,1.192,0,0,1,.106-.529,12.951,12.951,0,0,0,1.553-.319c.706-.177.983-.564,1.024-1.449.106-2.12.106-6.146.071-8.936v-.071a1.07,1.07,0,0,0-.393-.983,7.959,7.959,0,0,0-2.12-.918c-.319-.106-.529-.283-.494-.493,0-.212.212-.458.67-.529a25.868,25.868,0,0,0,5.405-1.376.873.873,0,0,1,.177.564l-.035.393c-.035.393-.071.847-.071,1.308a.273.273,0,0,0,.283.248.5.5,0,0,0,.212-.071A9.963,9.963,0,0,1,94.677,77a4.573,4.573,0,0,1,4.1,2.509.265.265,0,0,0,.248.142.252.252,0,0,0,.212-.106A10.736,10.736,0,0,1,104.78,77c3.286,0,5.228,2.438,5.228,6.571,0,1.166,0,2.684-.035,4.062,0,1.237-.035,2.359-.035,3.179a1.111,1.111,0,0,0,.635.847,7.537,7.537,0,0,0,2.049.494h.035a2.835,2.835,0,0,1-.212,1.343,8.656,8.656,0,0,1-.883-.035c-.67-.035-1.624-.071-2.684-.071-2.19,0-3.321.035-4.416.106a3.438,3.438,0,0,1,0-1.343,10.905,10.905,0,0,0,1.343-.319c.706-.212.883-.529.918-1.449,0-.67.142-6.394-.071-7.77a3.482,3.482,0,0,0-3.6-3.059,6.264,6.264,0,0,0-3.6,1.376.629.629,0,0,0-.142.354v.039a16.319,16.319,0,0,1,.142,2.9v2.3c0,1.589-.035,3.073,0,4.2a1.034,1.034,0,0,0,.847,1.1c.212.035.354.071.529.106.319.071.635.142,1.131.248a1.907,1.907,0,0,1-.035.983.678.678,0,0,1-.142.354c-1.2-.035-2.438-.071-4.239-.071-.529,0-1.449.035-2.226.035-.635,0-1.237.035-1.589.035a1.872,1.872,0,0,1-.106-.706,1.1,1.1,0,0,1,.142-.635,2.378,2.378,0,0,1,.494-.071c.423-.071.786-.142,1.131-.212.6-.177.812-.494.847-1.272a61.3,61.3,0,0,0-.035-8.089,3.327,3.327,0,0,0-3.463-3.073,6.488,6.488,0,0,0-3.6,1.376,1.144,1.144,0,0,0-.319.812v2.084c0,2.542,0,5.722.035,7.1a1.1,1.1,0,0,0,.983,1.1,7.3,7.3,0,0,0,.812.142l.635.106a2.967,2.967,0,0,1-.106,1.343c-.354,0-.786-.035-1.272-.035-.741-.035-1.695-.071-2.753-.071-1.237,0-2.12.035-2.825.071a8.542,8.542,0,0,0-1.308-.071Z" transform="translate(-51.025 -47.477)" fill="#442d22" fill-rule="evenodd"/>
  <g id="Group_2399" data-name="Group 2399" transform="translate(0 0)">
    <path id="Path_22308" data-name="Path 22308" d="M27.753,65.613l-1.449-.5s.177-7.383-2.472-7.912c-1.77-2.049.283-86.894,6.64-.283A5.165,5.165,0,0,0,27.9,59.891a27.245,27.245,0,0,0-.142,5.722Z" transform="translate(-14.336 -11.21)" fill="#fff" fill-rule="evenodd"/>
    <path id="Path_22309" data-name="Path 22309" d="M27.753,65.613l-1.449-.5s.177-7.383-2.472-7.912c-1.77-2.049.283-86.894,6.64-.283A5.165,5.165,0,0,0,27.9,59.891a27.245,27.245,0,0,0-.142,5.722Z" transform="translate(-14.336 -11.21)" fill="#a6a385" fill-rule="evenodd"/>
    <path id="Path_22310" data-name="Path 22310" d="M33.492,47.694A25.663,25.663,0,0,0,43.2,22.013C40.344,9.4,33.6,5.271,32.855,3.681A17.822,17.822,0,0,1,31.27.572L31.8,35.647c0,.035-1.1,10.737,1.695,12.045" transform="translate(-19.303 -0.425)" fill="#fff" fill-rule="evenodd"/>
    <path id="Path_22311" data-name="Path 22311" d="M33.492,47.694A25.663,25.663,0,0,0,43.2,22.013C40.344,9.4,33.6,5.271,32.855,3.681A17.822,17.822,0,0,1,31.27.572L31.8,35.647c0,.035-1.1,10.737,1.695,12.045" transform="translate(-19.303 -0.425)" fill="#499d4a" fill-rule="evenodd"/>
    <path id="Path_22312" data-name="Path 22312" d="M11.228,47.927S-.677,39.8.031,25.5a30.13,30.13,0,0,1,10.7-22.611A3.289,3.289,0,0,0,11.9.2c.741,1.589.6,23.773.706,26.386.319,10.067-.564,19.428-1.376,21.335Z" transform="translate(-0.001 -0.2)" fill="#fff" fill-rule="evenodd"/>
    <path id="Path_22313" data-name="Path 22313" d="M11.228,47.927S-.677,39.8.031,25.5a30.13,30.13,0,0,1,10.7-22.611A3.289,3.289,0,0,0,11.9.2c.741,1.589.6,23.773.706,26.386.319,10.067-.564,19.428-1.376,21.335Z" transform="translate(-0.001 -0.2)" fill="#58aa50" fill-rule="evenodd"/>
  </g>
</svg>
