<svg xmlns="http://www.w3.org/2000/svg" xmlns:xlink="http://www.w3.org/1999/xlink" width="84.755" height="57.561" viewBox="0 0 84.755 57.561">
  <defs>
    <clipPath id="clip-path">
      <rect id="Rectangle_556" data-name="Rectangle 556" width="84.755" height="57.561" fill="none"/>
    </clipPath>
  </defs>
  <g id="Group_2396" data-name="Group 2396" clip-path="url(#clip-path)">
    <path id="Path_22294" data-name="Path 22294" d="M20.377,84.761H17.107q-.173-8.278-.96-15.572h-.029L11.143,84.761H8.654L3.7,69.189H3.675q-.548,7-.694,15.572H0Q.289,74.343,1.446,65.223H5.5l4.717,14.362h.029l4.747-14.357h3.878q1.273,10.68,1.508,19.538" transform="translate(0 -32.323)" fill="#5d87a1"/>
    <path id="Path_22295" data-name="Path 22295" d="M55.889,75.38q-2,10.838-5.268,15.752-2.55,3.785-5.587,3.786a5.508,5.508,0,0,1-2-.485V92.689a9.434,9.434,0,0,0,1.361.086,3.29,3.29,0,0,0,2.291-.781,2.853,2.853,0,0,0,1.04-2.141,14.277,14.277,0,0,0-.81-3.327L43.329,75.381h3.213l2.576,8.335a11.253,11.253,0,0,1,.722,3.966,54.421,54.421,0,0,0,2.953-12.3Z" transform="translate(-21.329 -37.358)" fill="#5d87a1"/>
    <path id="Path_22296" data-name="Path 22296" d="M145.691,84.761H136.4V65.223h3.127V82.358H145.7Z" transform="translate(-67.598 -32.323)" fill="#f8981d"/>
    <path id="Path_22297" data-name="Path 22297" d="M115.748,84.951l-3.592-1.771a6.729,6.729,0,0,0,.9-.873,12.006,12.006,0,0,0,2.288-7.959q0-9.7-7.612-9.7a7.209,7.209,0,0,0-5.818,2.467,11.959,11.959,0,0,0-2.287,7.932q0,5.153,2.025,7.555a6.943,6.943,0,0,0,5.587,2.17,9.009,9.009,0,0,0,2.558-.343l4.676,2.721Zm-11.636-4.387a12.042,12.042,0,0,1-1.187-6.136q0-7.38,4.487-7.382a3.767,3.767,0,0,1,3.445,1.766,11.915,11.915,0,0,1,1.187,6.08q0,7.439-4.487,7.439a3.762,3.762,0,0,1-3.443-1.767" transform="translate(-49.377 -32.042)" fill="#f8981d" fill-rule="evenodd"/>
    <path id="Path_22298" data-name="Path 22298" d="M84.861,79.1a5.189,5.189,0,0,1-1.822,4.082,7.183,7.183,0,0,1-4.89,1.592,9.8,9.8,0,0,1-5.559-1.836l.835-1.672a9.526,9.526,0,0,0,4.2,1.157,4.4,4.4,0,0,0,2.764-.779,2.661,2.661,0,0,0,1.064-2.17c0-1.161-.809-2.152-2.293-2.984-1.371-.753-4.112-2.322-4.112-2.322A4.68,4.68,0,0,1,72.816,70a4.86,4.86,0,0,1,1.663-3.838A6.276,6.276,0,0,1,78.784,64.7a8.9,8.9,0,0,1,4.949,1.449l-.754,1.677a9.579,9.579,0,0,0-3.762-.81,3.349,3.349,0,0,0-2.314.725,2.418,2.418,0,0,0-.877,1.851c0,1.157.822,2.16,2.352,3.009,1.389.753,4.195,2.354,4.195,2.354a4.616,4.616,0,0,1,2.288,4.14" transform="translate(-35.975 -32.069)" fill="#f8981d"/>
    <path id="Path_22299" data-name="Path 22299" d="M131.183,26.353a10.909,10.909,0,0,0-4.58.661c-.354.137-.92.137-.968.589.191.189.212.495.38.757a5.512,5.512,0,0,0,1.234,1.439c.495.378.991.754,1.508,1.084.92.569,1.959.9,2.854,1.465.521.33,1.039.754,1.56,1.11.258.189.422.5.754.613V34c-.166-.212-.212-.518-.377-.757-.236-.234-.473-.448-.709-.685a11.24,11.24,0,0,0-2.455-2.384c-.757-.521-2.41-1.234-2.716-2.1l-.048-.048a9.412,9.412,0,0,0,1.63-.38c.8-.212,1.534-.165,2.359-.376.378-.095.757-.214,1.135-.33V26.73c-.428-.424-.732-.991-1.182-1.393a31.623,31.623,0,0,0-3.9-2.9c-.733-.473-1.677-.779-2.457-1.18-.281-.137-.754-.212-.92-.45a9.488,9.488,0,0,1-.969-1.818c-.685-1.3-1.346-2.742-1.936-4.112a25.259,25.259,0,0,0-1.2-2.691,23.8,23.8,0,0,0-9.137-8.828,11.3,11.3,0,0,0-3.016-.968c-.591-.025-1.18-.071-1.771-.093a9.4,9.4,0,0,1-1.087-.822c-1.346-.85-4.816-2.691-5.807-.259-.637,1.535.944,3.046,1.487,3.825a11.048,11.048,0,0,1,1.2,1.771c.166.4.212.822.378,1.252a28.048,28.048,0,0,0,1.234,3.164,11.105,11.105,0,0,0,.872,1.463c.191.262.52.378.591.8a6.762,6.762,0,0,0-.548,1.77,10.4,10.4,0,0,0,.685,7.932c.377.591,1.275,1.889,2.48,1.393,1.062-.424.823-1.77,1.134-2.949.07-.285.023-.473.164-.661v.048c.33.659.661,1.3.968,1.959a13.463,13.463,0,0,0,3.069,3.161c.565.426,1.013,1.157,1.722,1.417V27.49h-.047a2.587,2.587,0,0,0-.548-.472,11.594,11.594,0,0,1-1.234-1.417,30.184,30.184,0,0,1-2.643-4.3c-.378-.733-.709-1.535-1.016-2.267-.137-.281-.137-.709-.378-.849a8.874,8.874,0,0,0-1.132,1.6,13.355,13.355,0,0,0-.662,3.564c-.095.025-.047,0-.095.047-.754-.189-1.014-.966-1.3-1.626a10.212,10.212,0,0,1-.212-6.306c.165-.495.875-2.056.591-2.525-.137-.451-.614-.707-.873-1.064a9.393,9.393,0,0,1-.849-1.508c-.568-1.321-.851-2.787-1.464-4.112a12.612,12.612,0,0,0-1.18-1.818,11.678,11.678,0,0,1-1.3-1.841c-.117-.26-.282-.685-.095-.968a.378.378,0,0,1,.332-.306c.306-.259,1.18.07,1.486.212a11.959,11.959,0,0,1,2.33,1.18c.33.237.685.685,1.109.8h.5c.755.163,1.605.045,2.315.259a15.128,15.128,0,0,1,3.4,1.629,20.954,20.954,0,0,1,7.364,8.074c.284.548.4,1.038.662,1.6.5,1.16,1.11,2.34,1.605,3.472a15.512,15.512,0,0,0,1.678,3.164c.354.495,1.771.754,2.407,1.014a16.973,16.973,0,0,1,1.63.659c.8.495,1.6,1.062,2.361,1.607.377.284,1.557.873,1.629,1.346" transform="translate(-49.167 0.001)" fill="#5d87a1" fill-rule="evenodd"/>
    <path id="Path_22300" data-name="Path 22300" d="M113.907,11.575a3.759,3.759,0,0,0-.968.118v.048h.047a7.978,7.978,0,0,0,.755.968c.191.378.355.754.548,1.132l.047-.048a1.326,1.326,0,0,0,.5-1.18,5.284,5.284,0,0,1-.284-.5c-.137-.236-.448-.354-.637-.548" transform="translate(-55.97 -5.738)" fill="#5d87a1" fill-rule="evenodd"/>
    <path id="Path_22301" data-name="Path 22301" d="M162.492,101.6h.488V99.211h-.733l-.6,1.631L161,99.211h-.707V101.6h.462v-1.82h.027l.685,1.822h.352l.685-1.822Zm-3.941,0h.518V99.611h.679V99.2h-1.9v.411h.7Z" transform="translate(-78.226 -49.169)" fill="#f8981d"/>
  </g>
</svg>
