<svg xmlns="http://www.w3.org/2000/svg" xmlns:xlink="http://www.w3.org/1999/xlink" width="184.972" height="33.093" viewBox="0 0 184.972 33.093">
  <defs>
    <clipPath id="clip-path">
      <rect id="Rectangle_526" data-name="Rectangle 526" width="184.972" height="33.093" fill="none"/>
    </clipPath>
  </defs>
  <g id="Group_2363" data-name="Group 2363" clip-path="url(#clip-path)">
    <path id="Path_22191" data-name="Path 22191" d="M50.415,25.135l-5.06-10.61a67.2,67.2,0,0,1-2.866-6.687l-.1.1c.164,1.894.2,4.277.229,6.268l.136,10.936H39.071V2.547h4.244L48.8,13.581a41.133,41.133,0,0,1,2.32,5.81l.1-.1c-.1-1.142-.326-4.375-.326-6.431L50.826,2.547h3.559V25.135Z" transform="translate(14.246 0.929)" fill="#221e1f"/>
    <path id="Path_22192" data-name="Path 22192" d="M56.269,16.343v.262c0,2.284.849,4.7,4.08,4.7a6.1,6.1,0,0,0,4.113-1.638l1.4,2.183a8.912,8.912,0,0,1-5.942,2.183c-4.67,0-7.606-3.361-7.606-8.649a9.013,9.013,0,0,1,2.056-6.464,6.277,6.277,0,0,1,5.06-2.22,6.371,6.371,0,0,1,4.537,1.7c1.437,1.306,2.155,3.33,2.155,7.182v.751Zm3.166-6.92c-2.024,0-3.139,1.6-3.139,4.277H62.4c0-2.677-1.176-4.277-2.971-4.277" transform="translate(19.066 2.442)" fill="#221e1f"/>
    <path id="Path_22193" data-name="Path 22193" d="M81.09,23.65H77.728L75.7,16.044c-.523-1.957-1.078-4.5-1.078-4.5H74.56s-.261,1.638-1.077,4.667L71.493,23.65H68.13L63.627,7.3l3.558-.5,1.794,8c.457,2.056.849,4.342.849,4.342h.1a45.125,45.125,0,0,1,.947-4.44l2.122-7.627H76.52l1.86,7.441c.682,2.679,1.045,4.7,1.045,4.7h.1s.39-2.512.819-4.439l1.693-7.7h3.721Z" transform="translate(23.199 2.479)" fill="#221e1f"/>
    <path id="Path_22194" data-name="Path 22194" d="M98.105,25.136,96.15,21.642a24.914,24.914,0,0,0-3.855-5.583,1.911,1.911,0,0,0-1.468-.682v9.758H87.142V2.546h6.889c5.06,0,7.344,2.938,7.344,6.464,0,3.231-2.089,6.2-5.615,6.2a17.114,17.114,0,0,1,3.493,4.5l3.33,5.42ZM92.886,5.582H90.826v7.149h1.927c1.96,0,3-.261,3.684-.947a3.8,3.8,0,0,0,1.018-2.741c0-2.286-1.242-3.461-4.57-3.461" transform="translate(31.773 0.928)" fill="#221e1f"/>
    <path id="Path_22195" data-name="Path 22195" d="M103.131,16.343v.262c0,2.284.847,4.7,4.079,4.7a6.1,6.1,0,0,0,4.114-1.638l1.4,2.183a8.912,8.912,0,0,1-5.942,2.183c-4.668,0-7.606-3.361-7.606-8.649a9.013,9.013,0,0,1,2.056-6.464A6.287,6.287,0,0,1,106.3,6.7a6.371,6.371,0,0,1,4.537,1.7c1.437,1.306,2.155,3.33,2.155,7.182v.751Zm3.165-6.92c-2.022,0-3.139,1.6-3.139,4.277h6.1c0-2.677-1.175-4.277-2.971-4.277" transform="translate(36.152 2.442)" fill="#221e1f"/>
    <path id="Path_22196" data-name="Path 22196" d="M115.275,25.88c-3.623,0-3.623-3.265-3.623-4.668V7.142a26.686,26.686,0,0,0-.329-4.832l3.691-.819a20.037,20.037,0,0,1,.292,4.539V20.036c0,2.22.1,2.579.359,2.972a1.014,1.014,0,0,0,1.175.261l.59,2.22a5.645,5.645,0,0,1-2.155.392" transform="translate(40.59 0.544)" fill="#221e1f"/>
    <path id="Path_22197" data-name="Path 22197" d="M119.407,6.465a2.342,2.342,0,0,1-2.32-2.383,2.368,2.368,0,1,1,2.32,2.383m-1.794,18.968V9.177l3.622-.652V25.433Z" transform="translate(42.691 0.631)" fill="#221e1f"/>
    <path id="Path_22198" data-name="Path 22198" d="M129.538,24.053c-4.5,0-7.02-3.166-7.02-8.486,0-6,3.59-8.879,7.279-8.879a6.012,6.012,0,0,1,4.569,1.794l-1.794,2.383a4.057,4.057,0,0,0-2.777-1.272,2.806,2.806,0,0,0-2.611,1.665,11.19,11.19,0,0,0-.682,4.6c0,2.252.36,3.684,1.112,4.5a2.9,2.9,0,0,0,2.183.946,4.761,4.761,0,0,0,3.332-1.638l1.7,2.183a6.872,6.872,0,0,1-5.288,2.183" transform="translate(44.672 2.436)" fill="#221e1f"/>
    <path id="Path_22199" data-name="Path 22199" d="M134.433,20.664a2.415,2.415,0,1,1,1.71-.712,2.426,2.426,0,0,1-1.71.712m0-4.367a1.951,1.951,0,1,0,1.862,1.949,1.951,1.951,0,0,0-1.862-1.949m.476,3.286c-.1-.184-.149-.257-.254-.452-.273-.49-.351-.626-.45-.666l-.085-.019v1.137h-.535V16.862H134.6a.755.755,0,0,1,.8.794.7.7,0,0,1-.606.749l.111.117c.157.2.654,1.059.654,1.059Zm-.287-2.245a1.129,1.129,0,0,0-.307-.037h-.2v.736h.184c.235,0,.338-.027.409-.091l.105-.273a.322.322,0,0,0-.2-.333" transform="translate(48.126 5.765)" fill="#221e1f"/>
    <path id="Path_22200" data-name="Path 22200" d="M40.562,12.17C38.647,3.358,28.081-1.824,16.962.594S-1.614,12.114.3,20.924,12.784,34.916,23.9,32.5,42.478,20.979,40.562,12.166m-20.129,12.5a8.121,8.121,0,1,1,8.121-8.121,8.121,8.121,0,0,1-8.121,8.121" transform="translate(0 0)" fill="#00969f"/>
    <path id="Path_22201" data-name="Path 22201" d="M19.4,3.794A11.662,11.662,0,1,0,31.067,15.455,11.662,11.662,0,0,0,19.4,3.794M17.609,22.256a7.1,7.1,0,1,1,7.1-7.1,7.1,7.1,0,0,1-7.1,7.1" transform="translate(2.823 1.383)" fill="#5ac5cb"/>
  </g>
</svg>
