<svg xmlns="http://www.w3.org/2000/svg" xmlns:xlink="http://www.w3.org/1999/xlink" width="145.933" height="44.658" viewBox="0 0 145.933 44.658">
  <defs>
    <clipPath id="clip-path">
      <rect id="Rectangle_540" data-name="Rectangle 540" width="145.933" height="44.658" fill="none"/>
    </clipPath>
  </defs>
  <g id="Group_2383" data-name="Group 2383" clip-path="url(#clip-path)">
    <path id="Path_22228" data-name="Path 22228" d="M66.766,56.151,66.837,56l-.177-.1a4.632,4.632,0,0,0-1.758-.773,5.46,5.46,0,0,0-1.758.6,5.312,5.312,0,0,0-.668-.885,3.912,3.912,0,0,0-.885-.669,5.2,5.2,0,0,0,.59-1.758,5.277,5.277,0,0,0-.773-1.758.229.229,0,0,0-.317-.071l-.069.035-.035.148.035.069a4.833,4.833,0,0,1,.7,1.547,4.5,4.5,0,0,1-.457,1.337,1.337,1.337,0,0,0-.246-.422.987.987,0,0,0-1.371-.035.843.843,0,0,0-.246.457,1.476,1.476,0,0,0-.633.387,2.14,2.14,0,0,0-.282,2.391,2.866,2.866,0,0,0-1.722,0l-.913-1.371a16.663,16.663,0,0,0,.176-1.759h-.071a1.313,1.313,0,0,0-.035-.387s.035-.106-.035-.14l-.034.034h-.035q-.053,0-.106.106a1.752,1.752,0,0,0-.106.422,15.808,15.808,0,0,0-.26,1.946v.035l.035.035c0,.035.282.738.493,1.231L55.38,56.4a1.262,1.262,0,0,1-.387-.211l-.071-.177c-.246-.843-.457-1.476-.6-1.864l-.069.035a2.055,2.055,0,0,0-.148-.28c-.035-.211-.071-.211-.1-.211s-.035,0-.071.035a.217.217,0,0,0-.034.148,2.251,2.251,0,0,0,.034.422,21.224,21.224,0,0,0,.528,2.214v.069l.246.211-.738-.246a11.99,11.99,0,0,0-1.2-1.266l-.071.069a1.166,1.166,0,0,0-.28-.211c-.071-.148-.071-.148-.106-.148s-.071.035-.035.176a2.444,2.444,0,0,0,.211.317c.246.351.668.885,1.126,1.406l.035.035.034.035c.035.035,1.3.633,1.759.844-.035.034-.035.1-.071.14-1.758-.351-4.427-.843-7.349-1.2a37.04,37.04,0,0,0-10.795-.106.124.124,0,0,0-.071.035l-.069.071v.035a.679.679,0,0,0,.035.245c.527.95,4.852,3.27,5.943,3.552a10.21,10.21,0,0,0,4.324.527,3.2,3.2,0,0,0,1.369-.6,3.716,3.716,0,0,1,1.9-.7c.457-.035,2.779-.246,4.641-.457a2.709,2.709,0,0,0,.422.984c-1.653-.844-3.551.885-6.188,3.517-2.461,2.462-4.747,7.455-5.416,8.931l-.211.493.491-.211a34.179,34.179,0,0,0,8.931-5.416c2.637-2.637,4.325-4.536,3.517-6.188a3.936,3.936,0,0,0,.984.422c-.148,1.266-.422,4.114-.457,4.641a3.577,3.577,0,0,1-.7,1.9,3.2,3.2,0,0,0-.59,1.371,11.769,11.769,0,0,0,.527,4.324,22.173,22.173,0,0,0,2.075,4.114A12.61,12.61,0,0,0,59.74,79.71c0,.035.035.035.035.071l.034.034a1.955,1.955,0,0,0,.317.282.59.59,0,0,0,.176.071.13.13,0,0,0,.106-.035l.071-.035c.035-.035.035-.069.071-.1A36.985,36.985,0,0,0,60.444,69.2c-.387-2.919-.885-5.627-1.2-7.349a.632.632,0,0,0,.148-.069c.246.491.844,1.722.844,1.758l.034.035.035.035c.527.457,1.091.885,1.406,1.125a.72.72,0,0,0,.317.177c.035,0,.069.034.1.034.071,0,.106-.034.106-.069l.035-.035-.035-.035-.071-.071a1.143,1.143,0,0,0-.211-.246l.071-.069c-.351-.387-1.055-1.02-1.266-1.2l-.246-.738.211.246H60.8c.885.246,1.722.422,2.214.527a1.891,1.891,0,0,0,.387.035h.035c.1,0,.176-.035.176-.106,0-.035,0-.071-.211-.1a2.423,2.423,0,0,0-.282-.106l.035-.071c-.387-.14-.986-.351-1.864-.6l-.177-.069c-.035-.071-.1-.211-.211-.387-.071-.148-.148-.317-.246-.493.527.211,1.2.457,1.231.493l.035.035h.035a14.51,14.51,0,0,0,1.935-.282,2.361,2.361,0,0,0,.422-.106c.106-.034.106-.069.106-.1v-.035l-.035-.035c-.035-.035-.035-.035-.176,0h-.035a1.151,1.151,0,0,0-.351,0v-.071a11.341,11.341,0,0,0-1.758.176L60.7,60.511a2.882,2.882,0,0,0,0-1.722,2.118,2.118,0,0,0,2.391-.282,1.462,1.462,0,0,0,.387-.633,1.145,1.145,0,0,0,.457-.246.955.955,0,0,0-.034-1.371.843.843,0,0,0-.422-.246,3.589,3.589,0,0,1,1.336-.457,4.8,4.8,0,0,1,1.547.7l.071.035.176-.035Z" transform="translate(-30.802 -41.979)"/>
    <path id="Path_22229" data-name="Path 22229" d="M22.328,0A22.316,22.316,0,1,0,38.12,6.537,22.329,22.329,0,0,0,22.328,0m0,41.246A18.9,18.9,0,1,1,41.245,22.357,18.9,18.9,0,0,1,22.328,41.246" transform="translate(-0.001 0)"/>
    <path id="Path_22230" data-name="Path 22230" d="M412.961,74.964V88.607a9.84,9.84,0,0,0,.148,1.758,2.162,2.162,0,0,0,1.758,1.9,8.559,8.559,0,0,0,4.008,0,2.278,2.278,0,0,0,1.828-2.391,10.521,10.521,0,0,0,.035-1.054V75h2.25c0,.106.035.211.035.282V89.6a6.649,6.649,0,0,1-.351,2.214,3.354,3.354,0,0,1-2,1.969,9.4,9.4,0,0,1-3.27.564,8.979,8.979,0,0,1-3.058-.353,4.508,4.508,0,0,1-2.428-1.758c-.035-.035-.035-.071-.071-.106a5.576,5.576,0,0,1-4.851,2.214,11.05,11.05,0,0,1-3.689-.422,3.613,3.613,0,0,1-2.637-3.27,15.434,15.434,0,0,1-.1-1.793V75h2.271c0,.148.035.246.035.387V89.1c0,.351.035.738.071,1.089a2.241,2.241,0,0,0,2.039,2.18,8.637,8.637,0,0,0,3.552,0A2.361,2.361,0,0,0,410.6,89.8c.035-.387.035-.773.035-1.161V75.35c0-.351,0-.351.351-.351h1.623a1.079,1.079,0,0,1,.351-.035" transform="translate(-332.58 -62.243)"/>
    <path id="Path_22231" data-name="Path 22231" d="M663.736,86.594h2.25a.974.974,0,0,0,.035.317c.036.738,0,1.442.071,2.18a2.172,2.172,0,0,0,1.722,2,16.434,16.434,0,0,0,2.25.353,13.281,13.281,0,0,0,3.9-.211,5,5,0,0,0,.562-.177,2.091,2.091,0,0,0,1.582-1.933,13.565,13.565,0,0,0,.036-2.075,2.125,2.125,0,0,0-1.724-2c-.885-.211-1.793-.351-2.708-.491-1.547-.246-3.129-.493-4.675-.775a4.722,4.722,0,0,1-1.97-.885,3.353,3.353,0,0,1-1.337-2.461,20.065,20.065,0,0,1,.035-2.918,3.453,3.453,0,0,1,2.5-3.2,12.378,12.378,0,0,1,3.375-.6,22.549,22.549,0,0,1,4.361.148,8.5,8.5,0,0,1,2.25.59,3.444,3.444,0,0,1,2.04,2.462,12.473,12.473,0,0,1,.176,2.566h-2.286V78.6a10.584,10.584,0,0,0-.106-1.054,2.016,2.016,0,0,0-1.3-1.548,8.36,8.36,0,0,0-2.919-.491,13.236,13.236,0,0,0-3.728.282,3.961,3.961,0,0,0-.6.176,2,2,0,0,0-1.406,1.828,12.762,12.762,0,0,0-.035,2.321,1.8,1.8,0,0,0,1.442,1.653c.773.211,1.583.317,2.391.457,1.758.28,3.481.562,5.239.885a5,5,0,0,1,1.935.844,3.441,3.441,0,0,1,1.406,2.5,13.608,13.608,0,0,1-.071,3.375,3.4,3.4,0,0,1-2.391,2.847,10.7,10.7,0,0,1-3.165.6,23.771,23.771,0,0,1-4.464-.106,8.442,8.442,0,0,1-2.463-.633,3.43,3.43,0,0,1-2.04-2.637,17.564,17.564,0,0,1-.176-3.306" transform="translate(-551.077 -61.179)"/>
    <path id="Path_22232" data-name="Path 22232" d="M570.491,93.091V78.924c0-.422-.035-.885-.071-1.3a3.516,3.516,0,0,0-2.461-3.27,5.97,5.97,0,0,0-1.126-.317,19.789,19.789,0,0,0-4.994-.28,12.67,12.67,0,0,0-3.27.491,3.435,3.435,0,0,0-2.639,2.637,9.208,9.208,0,0,0-.173,1.684V93.09h2.286V86.024h10.2v7.067Zm-2.32-9.459v.317h-10.2V78.567a4.43,4.43,0,0,1,.106-.984,2.135,2.135,0,0,1,1.511-1.653,7.919,7.919,0,0,1,2.392-.387,13.66,13.66,0,0,1,3.973.246,2.948,2.948,0,0,1,.6.176,2.141,2.141,0,0,1,1.516,2.011c.035.387.071.773.071,1.161.071,1.476.035,2.99.035,4.5" transform="translate(-461.452 -61.207)"/>
    <path id="Path_22233" data-name="Path 22233" d="M306.013,83.529h-.029c0-1.864.035-3.728,0-5.592a3.455,3.455,0,0,0-2.214-3.375,7.236,7.236,0,0,0-1.231-.422,20.144,20.144,0,0,0-5.239-.351,12.36,12.36,0,0,0-3.586.6,3.468,3.468,0,0,0-2.391,2.566,9.279,9.279,0,0,0-.176,1.722v9.316a9.661,9.661,0,0,0,.071,1.406A3.514,3.514,0,0,0,293.68,92.7a12.276,12.276,0,0,0,1.97.493,22.2,22.2,0,0,0,5.063.106,10.014,10.014,0,0,0,2.884-.6,3.419,3.419,0,0,0,2.361-2.813,12.147,12.147,0,0,0,.14-1.623c-.035-1.623-.071-3.2-.071-4.747m-2.3,4.618c0,.351-.035.7-.071,1.055a2.177,2.177,0,0,1-1.442,1.828,8,8,0,0,1-2.391.457,17.026,17.026,0,0,1-4.008-.176h-.069a2.54,2.54,0,0,1-2.321-2.85c-.035-3.165,0-6.329,0-9.493a6.066,6.066,0,0,1,.106-1.124,2.166,2.166,0,0,1,1.476-1.795,7.663,7.663,0,0,1,2.5-.457,15.083,15.083,0,0,1,3.974.211l.422.106a2.305,2.305,0,0,1,1.828,2.321c.035.562.035,1.091.035,1.653v3.657c-.035,1.547-.035,3.059-.035,4.607" transform="translate(-241.735 -61.244)"/>
    <path id="Path_22234" data-name="Path 22234" d="M787.616,79.077a3.927,3.927,0,0,0-2.917-3.689,9.9,9.9,0,0,0-3.059-.422h-8.72V94.126H775.2V88.641h6.118a12.428,12.428,0,0,0,2.777-.282,4.161,4.161,0,0,0,3.515-3.974,44.435,44.435,0,0,0,0-5.313m-2.32,5.1A2.816,2.816,0,0,1,782.73,86.7c-.388.071-.775.071-1.126.106h-6.365V76.788h6.118a10.31,10.31,0,0,1,1.793.176,2.693,2.693,0,0,1,2.214,2.531c.071,1.091.071,2.18.071,3.235a9.567,9.567,0,0,1-.14,1.442" transform="translate(-641.763 -62.242)"/>
  </g>
</svg>
