<svg xmlns="http://www.w3.org/2000/svg" xmlns:xlink="http://www.w3.org/1999/xlink" width="127.799" height="44.139" viewBox="0 0 127.799 44.139">
  <defs>
    <clipPath id="clip-path">
      <rect id="Rectangle_555" data-name="Rectangle 555" width="127.799" height="44.139" fill="none"/>
    </clipPath>
  </defs>
  <g id="Group_2394" data-name="Group 2394" clip-path="url(#clip-path)">
    <path id="Path_22268" data-name="Path 22268" d="M32.8,20.058c0,5.139-.074,10.281.029,15.419a4.217,4.217,0,0,1-4.558,4.558h-.143c-.741-.139-.995.148-1.073.917a3.452,3.452,0,0,1-4.26,3.117c-1.776-.337-3.541-.727-5.31-1.1-4.521-.95-9.028-1.918-13.55-2.835A4.32,4.32,0,0,1,.122,36.879a4.8,4.8,0,0,1-.1-1.135C.013,25.276.026,14.806,0,4.336A4.458,4.458,0,0,1,1.607.758,3.967,3.967,0,0,1,4.221,0C9.244.016,14.268,0,19.291,0h9.07A4.06,4.06,0,0,1,32.8,4.418q0,7.817,0,15.629M13.338,19.71c0,.138,0,.27.2.236l.011.01c-.088.5.242.657.626.772h0a.251.251,0,0,0,.242.287,9.451,9.451,0,0,0,.663.744c.412.379.287.628-.1.941-1,.8-1.971,1.649-2.95,2.48-1.559,1.325-3.127,2.641-4.669,3.985a1.817,1.817,0,0,0-.4,2.386,1.85,1.85,0,0,0,2.175.787,2.917,2.917,0,0,0,.941-.634q4.406-3.741,8.808-7.49c1.27-1.082,1.364-1.949.33-3.225q-4.335-5.333-8.688-10.671a1.971,1.971,0,0,0-.969-.705,1.851,1.851,0,0,0-1.978,2.961c.712.92,1.445,1.817,2.17,2.733a.595.595,0,0,0,.58.714h0a.254.254,0,0,0,.257.3l.015.016c-.079.494.121.772.631.8v-.012c-.016.315-.024.624.446.537l.015.023c-.105.254,0,.336.242.309l-.024.036.019-.039c.218.517.274,1.168,1.023,1.254l.01.018c-.109.346.075.457.38.466ZM26.921,8.443H26.91a9.663,9.663,0,0,0-.013,2.169q0,13.587.008,27.173c0,.271-.193.638.228.806a2.376,2.376,0,0,0,.986.079c2.3.008,3.323-1,3.322-3.271V4.5a2.787,2.787,0,0,0-3.105-3.139H5.192a1.313,1.313,0,0,0,.715.242c5.561.91,11.127,1.792,16.68,2.744A5.034,5.034,0,0,1,26.63,7.659c-.01.3-.121.641.29.79m-5.655,25.82A1.224,1.224,0,0,0,22.6,33.256a1.151,1.151,0,0,0-1-1.333q-2.93-.395-5.87-.714a1.169,1.169,0,0,0-.33,2.31c1.975.281,3.957.509,5.872.749" transform="translate(0 -0.003)" fill="#1979ce"/>
    <path id="Path_22269" data-name="Path 22269" d="M641.784,125.39c-2.261-.024-3.974-.52-4.952-2.423a4.7,4.7,0,0,1-.309-.795c-.363-1.2-.277-1.279.938-1.242.376.012.5.17.544.493.408,2.776,4.428,3.07,5.884,1.746a1.608,1.608,0,0,0-.372-2.8,13.518,13.518,0,0,0-2.787-.829,11.993,11.993,0,0,1-2.095-.68,2.845,2.845,0,0,1-1.817-2.665,2.915,2.915,0,0,1,1.656-2.786,5.96,5.96,0,0,1,5.428-.013,3.34,3.34,0,0,1,1.825,2.5c.086.411.038.654-.506.643-.615-.013-1.1.013-1.249-.8a1.736,1.736,0,0,0-1.27-1.244,4.615,4.615,0,0,0-3.075.016,1.676,1.676,0,0,0-1.19,1.53,1.416,1.416,0,0,0,1.15,1.443c1.09.328,2.2.595,3.3.884a5.384,5.384,0,0,1,2.237,1.05,3.289,3.289,0,0,1-.875,5.372,4.936,4.936,0,0,1-2.456.606" transform="translate(-545.404 -96.637)" fill="#207aca"/>
    <path id="Path_22270" data-name="Path 22270" d="M293.111,120.162c0-1.832.015-3.664-.01-5.5-.006-.468.075-.678.606-.655a58.334,58.334,0,0,1,6.058.141,3.2,3.2,0,0,1,2.773,3.219,3.452,3.452,0,0,1-2.423,3.681,17.308,17.308,0,0,1-4.4.25c-1.048.036-.905-.13-.913.909-.01,1.165-.021,2.332,0,3.5.01.456-.11.676-.6.606a1.744,1.744,0,0,0-.5,0c-.525.075-.625-.174-.619-.652.025-1.832.01-3.664.01-5.5m1.7-2.681v.969c0,1.426,0,1.436,1.454,1.422a11.053,11.053,0,0,0,3.114-.2,2.153,2.153,0,0,0-.2-4.119,10.793,10.793,0,0,0-2.2-.086c-.7.012-1.611-.3-2.052.142-.408.412-.073,1.311-.121,1.882" transform="translate(-251.218 -97.709)" fill="#207aca"/>
    <path id="Path_22271" data-name="Path 22271" d="M440.766,139.5a9.388,9.388,0,0,0-.718,2.2c-.363,1.253-.7,2.516-1.014,3.782-.09.356-.229.574-.617.5s-.911.262-1.121-.416q-1.265-4.082-2.583-8.146c-.121-.363-.034-.432.323-.446,1.1-.044,1.109-.059,1.424,1.036.544,1.889,1.08,3.779,1.623,5.685.313-.184.26-.512.334-.767.514-1.777,1.038-3.553,1.48-5.35.155-.63.52-.58.981-.606s.652.149.768.606c.485,1.885,1.012,3.756,1.522,5.636a.385.385,0,0,0,.227.331c.5-1.626.993-3.241,1.488-4.856.056-.182.1-.363.159-.548.391-1.259.393-1.259,1.839-1.09-.395,1.224-.783,2.438-1.179,3.649-.509,1.557-1.08,3.1-1.511,4.674-.211.773-.712.566-1.2.625-.546.068-.544-.33-.635-.659-.512-1.872-1.021-3.745-1.59-5.832" transform="translate(-372.544 -117.383)" fill="#207aca"/>
    <path id="Path_22272" data-name="Path 22272" d="M530.241,141.08c-.9,0-1.81.031-2.711-.012-.561-.028-.631.2-.544.669a2.578,2.578,0,0,0,1.972,2.106,2.493,2.493,0,0,0,2.743-1.024,1.784,1.784,0,0,1,1.683-.134c.108.134.016.273-.035.4a3.336,3.336,0,0,1-.923,1.333,4.513,4.513,0,0,1-4.576.664,3.681,3.681,0,0,1-2.458-3.139,6.527,6.527,0,0,1,.165-3.029,3.9,3.9,0,0,1,4.323-2.829,3.853,3.853,0,0,1,3.529,3.194c.363,1.8.363,1.8-1.454,1.806h-1.713m-3.209-1.432c1.473,0,2.943-.012,4.412.006.539.007.423-.3.34-.606a2.358,2.358,0,0,0-2.607-1.512,2.211,2.211,0,0,0-2.147,2.107" transform="translate(-450.222 -116.631)" fill="#207aca"/>
    <path id="Path_22273" data-name="Path 22273" d="M789.179,140.92c-.881,0-1.764.046-2.64-.015-.658-.045-.7.259-.579.745a2.492,2.492,0,0,0,2.034,2.04,2.423,2.423,0,0,0,2.637-.969,1.624,1.624,0,0,1,1.661-.217c.177.15.055.3,0,.445a3.272,3.272,0,0,1-1.756,1.877c-2.4.985-6.041.395-6.27-3.771a4.861,4.861,0,0,1,1.42-4.168,4.286,4.286,0,0,1,4.678-.535,4.4,4.4,0,0,1,2.138,4.214c-.037.348-.206.363-.465.363h-2.854m-.859-1.43c.641,0,1.284-.027,1.924.008.543.029.66-.166.492-.658a2.321,2.321,0,0,0-2.436-1.466,2.383,2.383,0,0,0-2.293,1.7c-.074.311-.016.429.32.42.665-.017,1.333,0,2,0" transform="translate(-672.178 -116.468)" fill="#207aca"/>
    <path id="Path_22274" data-name="Path 22274" d="M378.23,140.47a4.165,4.165,0,1,1-8.277.906,5.427,5.427,0,0,1,.792-3.964,4.3,4.3,0,0,1,4.759-1.39,4.032,4.032,0,0,1,2.724,3.661c.015.26,0,.523,0,.785m-1.528-.042c-.019-.26-.028-.522-.062-.781a2.544,2.544,0,0,0-2.447-2.339,2.453,2.453,0,0,0-2.576,2.085,4.874,4.874,0,0,0,.044,2.4,2.481,2.481,0,0,0,3.481,1.667c1.322-.584,1.518-1.772,1.56-3.029" transform="translate(-317.035 -116.401)" fill="#207aca"/>
    <path id="Path_22275" data-name="Path 22275" d="M721.411,118.368a3.592,3.592,0,0,1,2.471-1.178c2.125-.016,3.192.961,3.235,3.085.038,1.854,0,3.71.019,5.563,0,.435-.173.515-.548.506-1.27-.03-1.02.108-1.031-1-.016-1.5,0-3-.008-4.494,0-1.413-.551-2.114-1.7-2.2a2.214,2.214,0,0,0-2.411,2.014,6.184,6.184,0,0,0-.031.783c0,1.333-.033,2.665.012,4,.023.674-.105.981-.878.92-.537-.044-.727-.134-.72-.714q.042-5.452,0-10.913c-.007-.678.284-.7.8-.7s.848.016.809.7c-.059,1.155-.016,2.315-.016,3.635m-1.407,1.55c0,1.688.023,3.375-.015,5.062-.011.474.213.814.567.806a.7.7,0,0,0,.749-.79c-.055-1.519-.016-3.041-.017-4.563,0-.311-.036-.647.216-.87a.462.462,0,0,0,.051-.689,2.2,2.2,0,0,1-.271-1.3c.012-.9-.018-1.806.012-2.709.018-.561-.252-.665-.741-.678-.534-.015-.557.268-.554.67.012,1.688,0,3.375,0,5.063" transform="translate(-616.958 -97.743)" fill="#207aca"/>
    <path id="Path_22276" data-name="Path 22276" d="M597.962,137.04A2.108,2.108,0,0,1,599.924,136c.121.015.242.015.355.035.969.173,1.186.811.561,1.585-.16.2-.276.079-.429.032-1.284-.395-1.938-.035-2.266,1.254a14.68,14.68,0,0,0-.159,3.338q-.031,1.212-.006,2.423c.007.371-.121.492-.5.485-1.358-.035-1.09.133-1.1-1.09-.023-2.378-.007-4.756.011-7.135,0-.317-.229-.83.457-.79.485.028,1.13-.194,1,.7,0,.034.042.075.109.188" transform="translate(-511.139 -116.558)" fill="#207aca"/>
    <path id="Path_22277" data-name="Path 22277" d="M857.093,120.231c0,1.856-.022,3.713.013,5.573.011.563-.242.628-.681.583-.388-.039-.858.181-.848-.562q.042-5.573,0-11.136c0-.648.344-.6.761-.59.393.01.789-.109.772.569-.045,1.855-.016,3.712-.016,5.573" transform="translate(-733.311 -97.786)" fill="#207aca"/>
    <path id="Path_22278" data-name="Path 22278" d="M883.589,121.021c0-1.781.031-3.563-.017-5.342-.017-.632.257-.686.752-.666.443.017.79-.061.783.629q-.058,5.452,0,10.9c.009.758-.43.589-.858.64-.55.067-.686-.158-.678-.674.025-1.828.01-3.656.01-5.485h.007" transform="translate(-757.308 -98.574)" fill="#1979ce"/>
    <path id="Path_22279" data-name="Path 22279" d="M187.848,59.066a3.2,3.2,0,0,1,.235,1.529q.013,14.2,0,28.407a2.111,2.111,0,0,1-.018.213c-.42-.168-.228-.535-.228-.806q-.017-13.587-.008-27.173a9.656,9.656,0,0,1,.013-2.169" transform="translate(-160.94 -50.625)" fill="#207aca"/>
    <path id="Path_22280" data-name="Path 22280" d="M83.494,125.854a4.775,4.775,0,0,1,1.021,1.255c-.749-.086-.8-.738-1.021-1.255" transform="translate(-71.563 -107.87)" fill="#207aca"/>
    <path id="Path_22281" data-name="Path 22281" d="M74.088,114.3a2.108,2.108,0,0,1,.631.8c-.512-.027-.71-.3-.631-.8" transform="translate(-63.487 -97.965)" fill="#207aca"/>
    <path id="Path_22282" data-name="Path 22282" d="M94.748,139.71a2.393,2.393,0,0,1,.626.772c-.384-.121-.715-.274-.626-.772" transform="translate(-81.195 -119.745)" fill="#207aca"/>
    <path id="Path_22283" data-name="Path 22283" d="M68.242,107.1a1.781,1.781,0,0,1,.58.714.595.595,0,0,1-.58-.714" transform="translate(-58.489 -91.792)" fill="#207aca"/>
    <path id="Path_22284" data-name="Path 22284" d="M78.548,119.8a1.274,1.274,0,0,1,.446.537c-.469.087-.46-.222-.446-.537" transform="translate(-67.319 -102.679)" fill="#207aca"/>
    <path id="Path_22285" data-name="Path 22285" d="M90.525,134.761a.769.769,0,0,1,.38.466c-.305-.01-.485-.121-.38-.466" transform="translate(-77.563 -115.504)" fill="#207aca"/>
    <path id="Path_22286" data-name="Path 22286" d="M186.23,53.578a1.193,1.193,0,0,1,.29.79c-.408-.149-.3-.485-.29-.79" transform="translate(-159.601 -45.921)" fill="#207aca"/>
    <path id="Path_22287" data-name="Path 22287" d="M81.554,123.716a.439.439,0,0,1,.242.309c-.242.027-.353-.055-.242-.309" transform="translate(-69.866 -106.037)" fill="#207aca"/>
    <path id="Path_22288" data-name="Path 22288" d="M99.232,145.128a.419.419,0,0,1,.242.287.251.251,0,0,1-.242-.287" transform="translate(-85.053 -124.389)" fill="#207aca"/>
    <path id="Path_22289" data-name="Path 22289" d="M72.28,112.062l.257.3a.254.254,0,0,1-.257-.3" transform="translate(-61.95 -96.048)" fill="#207aca"/>
    <path id="Path_22290" data-name="Path 22290" d="M93.332,137.987a.3.3,0,0,1,.2.242c-.2.034-.2-.1-.2-.242" transform="translate(-79.994 -118.268)" fill="#207aca"/>
    <path id="Path_22291" data-name="Path 22291" d="M721.01,120.79c0-1.688.007-3.375,0-5.063,0-.4.019-.685.554-.67.485.013.76.121.741.678-.03.9,0,1.806-.012,2.709a2.2,2.2,0,0,0,.271,1.3.462.462,0,0,1-.051.689c-.252.223-.216.56-.216.87,0,1.522-.038,3.043.017,4.563a.7.7,0,0,1-.749.79c-.354.007-.578-.332-.567-.806.038-1.686.015-3.375.015-5.062" transform="translate(-617.964 -98.615)" fill="#1979ce"/>
  </g>
</svg>
