<svg id="Layer_2" data-name="Layer 2" xmlns="http://www.w3.org/2000/svg" width="74.851" height="64.185" viewBox="0 0 74.851 64.185">
  <g id="Layer_1" data-name="Layer 1">
    <path id="Path_14926" data-name="Path 14926" d="M33.307,0A24.2,24.2,0,1,0,57.5,24.2,24.2,24.2,0,0,0,33.307,0Zm0,45.3c-3.808,0-6.893-2.534-6.893-5.676H40.171c0,3.128-3.084,5.676-6.893,5.676Zm11.367-7.559H21.983V33.624H44.718Zm-.087-6.256h-22.6l-.217-.261a16.58,16.58,0,0,1-3.4-5.792s2.9.579,4.837,1.028c.84.188,1.694.362,2.549.507a9.441,9.441,0,0,1-2.317-6.053c0-4.851,3.722-9.094,2.375-12.511,1.3.1,2.708,2.751,2.795,6.907A14.8,14.8,0,0,0,30.57,7.733c0-2.23,1.448-4.808,2.9-4.894-1.3,2.158.333,4,1.8,8.587.55,1.738.478,4.634.9,6.458.145-3.823.8-9.383,3.215-11.309-1.072,2.418.145,5.445,1,6.907a13.033,13.033,0,0,1,2.172,7.5A9.354,9.354,0,0,1,40.3,27.021c1.593-.3,2.708-.565,2.708-.565l5.184-1.014a14.712,14.712,0,0,1-3.649,6.082Z" transform="translate(4.082)" fill="#da4e31"/>
    <path id="Path_14927" data-name="Path 14927" d="M0,37.435a15.248,15.248,0,0,1,2.534-.2,4.185,4.185,0,0,1,2.9.854,2.8,2.8,0,0,1,.9,2.143,3,3,0,0,1-.782,2.187,4.257,4.257,0,0,1-3.113,1.115,5.213,5.213,0,0,1-1.057-.087v4.084H0Zm1.3,4.923a4.344,4.344,0,0,0,1.086.1c1.593,0,2.563-.782,2.563-2.172s-.97-2.013-2.4-2.013a5.546,5.546,0,0,0-1.245.1Zm6.458.116V40.186H8.935v1.448h0a2.216,2.216,0,0,1,2.085-1.622h.362v1.26a2.086,2.086,0,0,0-.449,0,1.854,1.854,0,0,0-1.781,1.694,4.054,4.054,0,0,0,0,.623V47.5H7.762Zm11.44,1.3a3.591,3.591,0,0,1-3.649,3.9,3.49,3.49,0,0,1-3.519-3.765,3.577,3.577,0,0,1,3.649-3.9,3.461,3.461,0,0,1,3.533,3.75Zm-5.792.072c0,1.607.9,2.824,2.216,2.824s2.23-1.2,2.23-2.9c0-1.245-.623-2.809-2.2-2.809s-2.245,1.448-2.245,2.9ZM20.9,42.156V40.172h1.173v1.2h0a2.534,2.534,0,0,1,2.317-1.347,2.158,2.158,0,0,1,2.056,1.448h0a2.9,2.9,0,0,1,.84-.956,2.447,2.447,0,0,1,1.68-.507c.985,0,2.418.637,2.418,3.186v4.344h-1.3V43.387c0-1.448-.536-2.259-1.593-2.259a1.752,1.752,0,0,0-1.593,1.2,2.288,2.288,0,0,0-.1.666v4.532h-1.3V43.184c0-1.173-.521-2-1.535-2A1.839,1.839,0,0,0,22.3,42.518a1.781,1.781,0,0,0-.1.652v4.344H20.9V42.185Zm13.38,1.926A2.346,2.346,0,0,0,36.8,46.63a4.736,4.736,0,0,0,2.027-.377l.275,1a5.966,5.966,0,0,1-2.447.463,3.417,3.417,0,0,1-3.606-3.707,3.548,3.548,0,0,1,3.388-4,3.084,3.084,0,0,1,3.026,3.432,3.36,3.36,0,0,1,0,.623Zm3.91-.956a1.9,1.9,0,0,0-1.854-2.158,2.187,2.187,0,0,0-2.042,2.158Zm4.532-4.706v1.752h1.911v1.014H42.718v3.953c0,.9.261,1.448,1,1.448a2.9,2.9,0,0,0,.767-.087v1.014A3.909,3.909,0,0,1,43.3,47.7a1.911,1.911,0,0,1-1.448-.565,2.9,2.9,0,0,1-.521-1.926V41.2H40.2V40.186h1.144V38.825Zm3.4-1.68h1.332v4.59h0a2.505,2.505,0,0,1,.956-.956,2.737,2.737,0,0,1,1.4-.362c.985,0,2.563.608,2.563,3.113V47.47H51.044v-4.2c0-1.187-.434-2.172-1.694-2.172a1.94,1.94,0,0,0-1.781,1.3,1.723,1.723,0,0,0-.087.637v4.344H46.15V36.754Zm9.152,7.327a2.346,2.346,0,0,0,2.52,2.549,4.735,4.735,0,0,0,2.027-.377l.246.956a5.966,5.966,0,0,1-2.447.463,3.417,3.417,0,0,1-3.591-3.707,3.548,3.548,0,0,1,3.417-3.939,3.084,3.084,0,0,1,3.026,3.432,3.23,3.23,0,0,1,0,.623Zm3.91-.956a1.9,1.9,0,0,0-1.854-2.158,2.187,2.187,0,0,0-2.042,2.158Zm9.065,2.375V47.5H67.06l-.072-1.2h0a2.737,2.737,0,0,1-2.418,1.361c-1.158,0-2.534-.652-2.534-3.215V40.1h1.332v4.04c0,1.448.434,2.346,1.636,2.346a1.926,1.926,0,0,0,1.752-1.231,1.824,1.824,0,0,0,.116-.681V40.085H68.2Zm2.027.666a3.765,3.765,0,0,0,1.767.521c.956,0,1.448-.463,1.448-1.086s-.376-.97-1.347-1.332c-1.332-.478-1.969-1.2-1.969-2.071a2.273,2.273,0,0,1,2.505-2.172,3.388,3.388,0,0,1,1.781.449l-.319,1a2.9,2.9,0,0,0-1.448-.434c-.782,0-1.216.449-1.216,1s.42.883,1.448,1.26c1.26.463,1.926,1.1,1.926,2.2A2.46,2.46,0,0,1,72.128,47.7a4.156,4.156,0,0,1-2.056-.521Z" transform="translate(0 16.462)" fill="#e6522c"/>
  </g>
</svg>
