<svg xmlns="http://www.w3.org/2000/svg" xmlns:xlink="http://www.w3.org/1999/xlink" width="139.777" height="49.331" viewBox="0 0 139.777 49.331">
  <defs>
    <clipPath id="clip-path">
      <rect id="Rectangle_43630" data-name="Rectangle 43630" width="139.777" height="49.331" fill="none"/>
    </clipPath>
  </defs>
  <g id="Group_103438" data-name="Group 103438" transform="translate(0)">
    <g id="Group_103437" data-name="Group 103437" transform="translate(0 0)" clip-path="url(#clip-path)">
      <path id="Path_71938" data-name="Path 71938" d="M11.873,29.816H6.392V5.15h5.481V6.727a5.692,5.692,0,0,1,4.388-1.894c5.244,0,8.161,4.353,8.161,9.436s-2.887,9.4-8.126,9.4a5.768,5.768,0,0,1-4.423-1.9Zm0-12.6a3.691,3.691,0,0,0,3.26,2.1c2.7,0,4.252-2.176,4.252-5.038,0-2.9-1.516-5.083-4.217-5.083a3.776,3.776,0,0,0-3.295,2.1Z" transform="translate(25.81 19.514)" fill="#070809"/>
      <path id="Path_71939" data-name="Path 71939" d="M26.781,22.711H21.3v-1.36c-.685,1.128-2.64,2.055-4.736,2.055-4.03,0-6.227-2.66-6.227-6.65V4.9h4.8V15.749c0,1.894.947,3.184,2.922,3.184,1.532,0,3.244-.927,3.244-2.5V4.9h5.481Z" transform="translate(41.74 19.772)" fill="#070809"/>
      <path id="Path_71940" data-name="Path 71940" d="M19.077,29.816h-4.8V5.15h4.8V6.727a5.858,5.858,0,0,1,4.459-1.894c5.239,0,8.192,4.353,8.192,9.436s-2.937,9.4-8.177,9.4a5.887,5.887,0,0,1-4.474-1.9Zm0-12.6a3.789,3.789,0,0,0,3.325,2.1c2.705,0,4.287-2.176,4.287-5.038,0-2.9-1.567-5.083-4.267-5.083a3.847,3.847,0,0,0-3.345,2.1Z" transform="translate(57.666 19.514)" fill="#070809"/>
      <path id="Path_71941" data-name="Path 71941" d="M23.021,29.816h-4.8V5.15h4.8V6.727A5.906,5.906,0,0,1,27.5,4.833c5.239,0,8.207,4.353,8.207,9.436s-2.957,9.4-8.2,9.4a5.932,5.932,0,0,1-4.489-1.9Zm0-12.6a3.827,3.827,0,0,0,3.35,2.1c2.7,0,4.3-2.176,4.3-5.038,0-2.9-1.587-5.083-4.287-5.083a3.876,3.876,0,0,0-3.36,2.1Z" transform="translate(73.591 19.514)" fill="#070809"/>
      <path id="Path_71942" data-name="Path 71942" d="M38.663,17.476c-.645,3.426-3.466,6.232-7.985,6.232-5.239,0-8.746-3.859-8.746-9.421,0-5.441,3.678-9.451,8.721-9.451,5.28,0,8.237,3.658,8.237,8.937v1.647H26.768c.161,2.741,1.7,4.312,3.909,4.312a3.266,3.266,0,0,0,3.35-2.257ZM26.889,11.995h6.978a3.473,3.473,0,0,0-3.229-3.385,3.837,3.837,0,0,0-3.748,3.385" transform="translate(88.56 19.526)" fill="#070809"/>
      <path id="Path_71943" data-name="Path 71943" d="M28.175,12.851H25.434V8.74h2.741v-4.8h4.8v4.8h4.111v4.111H32.971v7.91a1.788,1.788,0,0,0,2,2.055,4.421,4.421,0,0,0,2.116-.6v4.433a6.9,6.9,0,0,1-3.088.569c-3.663,0-5.819-1.819-5.819-5.809Z" transform="translate(102.701 15.924)" fill="#070809"/>
      <rect id="Rectangle_43627" data-name="Rectangle 43627" width="10.963" height="10.963" transform="translate(13.703 13.703)" fill="#fb8c0c"/>
      <path id="Path_71944" data-name="Path 71944" d="M7.537,12.842H4.111V9.416H7.537Zm4.111-7.537H0V16.953H11.648Z" transform="translate(0 21.42)" fill="#fb8c0c"/>
      <rect id="Rectangle_43628" data-name="Rectangle 43628" width="3.781" height="9.788" transform="translate(7.019 9.565) rotate(-45)" fill="#fb8c0c"/>
      <rect id="Rectangle_43629" data-name="Rectangle 43629" width="7.745" height="3.78" transform="translate(8.863 26.708) rotate(-44.946)" fill="#fb8c0c"/>
      <path id="Path_71945" data-name="Path 71945" d="M7.537,7.537H4.111V4.111H7.537ZM11.648,0H0V11.648H11.648Z" transform="translate(0 -0.001)" fill="#fb8c0c"/>
    </g>
  </g>
</svg>
