<svg id="performance-security-icon4" xmlns="http://www.w3.org/2000/svg" width="145.937" height="35.549" viewBox="0 0 145.937 35.549">
  <path id="Path_22235" data-name="Path 22235" d="M76.685,54.334a5.249,5.249,0,1,1,1.392-7.293,5.249,5.249,0,0,1-1.392,7.293m3.247-8.559a7.494,7.494,0,1,0-3.21,11.087l2.9,4.711,2.3-1.563-2.9-4.711a7.5,7.5,0,0,0,.906-9.523M0,56.278A10.063,10.063,0,0,0,4.6,57.3c4.079,0,6.148-1.952,6.148-4.632C10.721,50.6,9.614,49.227,6.9,48.3c-1.749-.583-2.3-.961-2.3-1.632,0-.7.612-1.136,1.69-1.136a7.567,7.567,0,0,1,3.089.787l.757-3.03a9.365,9.365,0,0,0-3.984-.846c-3.525,0-5.8,2.01-5.8,4.69-.035,1.668,1.1,3.264,4.071,4.255,1.632.524,2.066.9,2.066,1.632S5.94,54.181,4.6,54.181A8.655,8.655,0,0,1,.784,53.132Zm18.594,1.049a7.132,7.132,0,0,0,7.488-7.575,6.927,6.927,0,0,0-7.255-7.312,7.119,7.119,0,0,0-7.632,7.545,6.979,6.979,0,0,0,7.371,7.342Zm.058-3.176c-1.864,0-2.884-1.836-2.884-4.253,0-2.127.816-4.28,2.913-4.28,2.01,0,2.826,2.156,2.826,4.253,0,2.563-1.077,4.28-2.826,4.28Zm8.707,2.856h4.427V48.8a3.189,3.189,0,0,1,.148-1.107,2.432,2.432,0,0,1,2.273-1.66c1.6,0,2.243,1.253,2.243,3.089v7.9h4.427V48.587c0-4.2-2.186-6.148-5.1-6.148a5.116,5.116,0,0,0-4.4,2.3h-.093l-.2-1.98H27.24c.058,1.282.117,2.767.117,4.545ZM54.83,48.588c0-3.35-1.486-6.148-6.235-6.148a11.7,11.7,0,0,0-5.535,1.282l.816,2.826A8.333,8.333,0,0,1,47.808,45.5c2.186,0,2.593,1.077,2.593,1.836v.174c-5.04,0-8.361,1.749-8.361,5.448a4.367,4.367,0,0,0,4.6,4.37,5.132,5.132,0,0,0,4.077-1.743h.087l.263,1.427h3.984a18.465,18.465,0,0,1-.233-3.438Zm-4.28,3.233a3.175,3.175,0,0,1-.087.757,2.448,2.448,0,0,1-2.3,1.632,1.591,1.591,0,0,1-1.749-1.69c0-1.69,1.806-2.243,4.132-2.243ZM56.9,57.007h4.427v-7.2a5.008,5.008,0,0,1,.087-.99,2.822,2.822,0,0,1,3.03-2.243,6.618,6.618,0,0,1,1.194.117V42.527a4.41,4.41,0,0,0-.933-.087,4.151,4.151,0,0,0-3.846,2.972h-.117l-.174-2.656H56.781c.087,1.223.117,2.593.117,4.69ZM94.543,42.988H91.979v8.624a3.515,3.515,0,0,1-.233,1.31,3.689,3.689,0,0,1-3.379,2.361c-2.3,0-3.146-1.836-3.146-4.516V42.985H82.657V51.23c0,4.923,2.656,6.176,4.87,6.176a5.267,5.267,0,0,0,4.662-2.622h.058l.148,2.3h2.273c-.087-1.107-.117-2.389-.117-3.875Zm2.8,10.458c0,1.253-.03,2.68-.117,3.642h2.214l.148-2.33h.058a5.051,5.051,0,0,0,4.722,2.656c3.146,0,6.346-2.509,6.346-7.575,0-4.253-2.447-7.166-5.943-7.166a5.231,5.231,0,0,0-4.806,2.563h-.062V36.4H97.341ZM99.905,48.9a4.019,4.019,0,0,1,.148-1.077,4.063,4.063,0,0,1,3.875-3.146c2.739,0,4.2,2.419,4.2,5.273,0,3.233-1.573,5.419-4.28,5.419a3.984,3.984,0,0,1-3.846-3,4.82,4.82,0,0,1-.087-.933Zm23.889,1.6a6.249,6.249,0,0,0,.087-1.194c0-2.593-1.194-6.641-5.8-6.641-4.108,0-6.641,3.35-6.641,7.6a6.577,6.577,0,0,0,6.936,7.109,11.487,11.487,0,0,0,4.722-.9l-.469-1.839a9.17,9.17,0,0,1-3.9.729,4.488,4.488,0,0,1-4.806-4.87Zm-9.847-1.836a4.226,4.226,0,0,1,3.933-4.166c2.855,0,3.554,2.535,3.525,4.166Z" transform="translate(0 -26.024)" fill="#070707"/>
  <path id="Path_22236" data-name="Path 22236" d="M425.634,31.012h-1.792A26.39,26.39,0,0,0,397.3,4.84V3.047a28.186,28.186,0,0,1,28.334,27.965Zm1.238-9.626a26.975,26.975,0,0,0-18.69-19.251L408.6.7a28.481,28.481,0,0,1,19.724,20.341Zm2.008-8.5A27.486,27.486,0,0,0,418.255,1.021L418.875,0a28.685,28.685,0,0,1,11.1,12.4Z" transform="translate(-284.037)" fill="#499cd2"/>
</svg>
