<svg xmlns="http://www.w3.org/2000/svg" xmlns:xlink="http://www.w3.org/1999/xlink" width="120.273" height="35.681" viewBox="0 0 120.273 35.681">
  <defs>
    <clipPath id="clip-path">
      <rect id="Rectangle_537" data-name="Rectangle 537" width="120.273" height="35.68" fill="none"/>
    </clipPath>
  </defs>
  <g id="Group_2375" data-name="Group 2375" clip-path="url(#clip-path)">
    <path id="Path_22210" data-name="Path 22210" d="M12.827,15.28A4.847,4.847,0,0,1,12.32,17.5a4.958,4.958,0,0,1-1.4,1.725,6.89,6.89,0,0,1-2.159,1.109,8.964,8.964,0,0,1-2.736.4,9.825,9.825,0,0,1-3.192-.479A9.668,9.668,0,0,1,0,18.632L1.557,16.1a10.138,10.138,0,0,0,2.032,1.376,4.169,4.169,0,0,0,1.846.434,2.773,2.773,0,0,0,1.864-.6A1.99,1.99,0,0,0,8.008,15.7a2.608,2.608,0,0,0-.126-.819,2.3,2.3,0,0,0-.471-.778,6.576,6.576,0,0,0-.942-.867q-.595-.475-1.538-1.161c-.48-.34-.955-.69-1.408-1.053A10.686,10.686,0,0,1,2.269,9.858a5.308,5.308,0,0,1-.9-1.382,4.217,4.217,0,0,1-.344-1.738A4.444,4.444,0,0,1,1.5,4.69,4.653,4.653,0,0,1,2.777,3.114,5.947,5.947,0,0,1,4.726,2.1a8.135,8.135,0,0,1,2.48-.363A9.944,9.944,0,0,1,9.944,2.1,9.364,9.364,0,0,1,12.391,3.2L10.974,5.477A5.229,5.229,0,0,0,7.93,4.461a2.527,2.527,0,0,0-1.613.5,1.567,1.567,0,0,0-.635,1.273,1.833,1.833,0,0,0,.559,1.306A18.788,18.788,0,0,0,8.177,9.179q1.376,1.018,2.294,1.779A10.128,10.128,0,0,1,11.906,12.4a4.131,4.131,0,0,1,.727,1.365,5.411,5.411,0,0,1,.194,1.52" transform="translate(0 6.325)" fill="#070707"/>
    <path id="Path_22211" data-name="Path 22211" d="M22.142,10.833a11.478,11.478,0,0,1-.652,3.934,9.91,9.91,0,0,1-1.823,3.139,8.111,8.111,0,0,1-6.219,2.825,8.3,8.3,0,0,1-1.567-.136A5.393,5.393,0,0,1,10.5,20.1a6.653,6.653,0,0,1-1.287-.89A12.516,12.516,0,0,1,7.88,17.868v11.5H3.22V2.162H7.882L7.9,4.806a8.336,8.336,0,0,1,2.761-2.336,7.653,7.653,0,0,1,3.444-.741,7.754,7.754,0,0,1,3.253.667A7.572,7.572,0,0,1,19.9,4.265a8.35,8.35,0,0,1,1.65,2.866,11.061,11.061,0,0,1,.588,3.7m-5.067.181a8.051,8.051,0,0,0-1.208-4.7,3.787,3.787,0,0,0-3.275-1.725A4.012,4.012,0,0,0,9.116,6.419a8.522,8.522,0,0,0-1.277,4.96A8.051,8.051,0,0,0,9.1,16.171a4.032,4.032,0,0,0,3.45,1.744,3.421,3.421,0,0,0,2.172-.671A5.049,5.049,0,0,0,16.1,15.538a7.954,7.954,0,0,0,.751-2.252,12.989,12.989,0,0,0,.22-2.271" transform="translate(11.791 6.327)" fill="#070707"/>
    <rect id="Rectangle_536" data-name="Rectangle 536" width="4.783" height="26.608" transform="translate(36.007)" fill="#070707"/>
    <path id="Path_22212" data-name="Path 22212" d="M21.926,19.968l-.01-2.429a9.013,9.013,0,0,1-2.836,2.2,7.965,7.965,0,0,1-3.38.682,7.108,7.108,0,0,1-3.613-.853,4.883,4.883,0,0,1-2.121-2.527,3.727,3.727,0,0,1-.273-.834c-.06-.289-.116-.625-.164-1a12.407,12.407,0,0,1-.089-1.291c-.014-.48-.019-1.077-.019-1.774V1.815H14.2V12.2a13.217,13.217,0,0,0,.126,2.107,4.12,4.12,0,0,0,.452,1.306,3.087,3.087,0,0,0,2.95,1.524,3.723,3.723,0,0,0,3.72-2.252,5.311,5.311,0,0,0,.363-1.287,14.693,14.693,0,0,0,.108-2.018V1.815h4.776V19.964Z" transform="translate(34.505 6.646)" fill="#070707"/>
    <path id="Path_22213" data-name="Path 22213" d="M26.383,20.281V9.924a12.554,12.554,0,0,0-.136-2.1,4.046,4.046,0,0,0-.452-1.306,3.083,3.083,0,0,0-2.95-1.52,4.577,4.577,0,0,0-2.312.559A3.447,3.447,0,0,0,19.092,7.2a5.267,5.267,0,0,0-.349,1.324,17.544,17.544,0,0,0-.089,1.972v9.78H13.838V2.171h4.82l.01,2.424A9.031,9.031,0,0,1,21.5,2.4a7.98,7.98,0,0,1,3.38-.671,6.916,6.916,0,0,1,3.613.886,5.12,5.12,0,0,1,2.126,2.518,8.337,8.337,0,0,1,.251.819,7.29,7.29,0,0,1,.181.955A11.841,11.841,0,0,1,31.147,8.2c.01.494.019,1.092.019,1.79V20.28Z" transform="translate(50.671 6.322)" fill="#070707"/>
    <path id="Path_22214" data-name="Path 22214" d="M30.3,26.97l-7.211-10V26.61H18.264V0h4.825V15.623h.5l6.418-7.436,3.622,1.561L27.47,16.34,34.761,25.4Z" transform="translate(66.877 0.003)" fill="#070707"/>
    <path id="Path_22215" data-name="Path 22215" d="M22.69,19.308V16.119l11.239-5.538L22.69,5.114V1.859l14.5,7.272V12.1Z" transform="translate(83.085 6.808)" fill="#569432"/>
    <path id="Path_22216" data-name="Path 22216" d="M23.95,2.419h.21c.237,0,.443-.089.443-.312,0-.158-.116-.317-.443-.317a1.194,1.194,0,0,0-.21.014Zm0,1h-.289V1.611a3.114,3.114,0,0,1,.513-.042.955.955,0,0,1,.564.136.426.426,0,0,1,.168.378.456.456,0,0,1-.355.443v.014c.158.027.266.172.3.438a1.572,1.572,0,0,0,.116.448h-.3a1.255,1.255,0,0,1-.126-.461.338.338,0,0,0-.388-.317h-.2Zm.3-2.32a1.344,1.344,0,0,0-1.3,1.38,1.339,1.339,0,0,0,1.31,1.376,1.324,1.324,0,0,0,1.3-1.365,1.339,1.339,0,0,0-1.3-1.385Zm.01-.251a1.606,1.606,0,0,1,1.6,1.638A1.609,1.609,0,1,1,24.253.85Z" transform="translate(82.918 3.116)" fill="#569432"/>
  </g>
</svg>
