<svg id="database-icon2" xmlns="http://www.w3.org/2000/svg" xmlns:xlink="http://www.w3.org/1999/xlink" width="71.199" height="57.561" viewBox="0 0 71.199 57.561">
  <defs>
    <linearGradient id="linear-gradient" x1="-4.183" y1="0.143" x2="-3.174" y2="0.794" gradientUnits="objectBoundingBox">
      <stop offset="0" stop-color="#909ca9"/>
      <stop offset="1" stop-color="#ededee"/>
    </linearGradient>
    <linearGradient id="linear-gradient-2" x1="-8.133" y1="37.388" x2="-6.64" y2="37.388" gradientUnits="objectBoundingBox">
      <stop offset="0" stop-color="#939fab"/>
      <stop offset="1" stop-color="#dcdee1"/>
    </linearGradient>
    <radialGradient id="radial-gradient" cx="0.443" cy="0.439" r="0.128" gradientTransform="matrix(-0.691, -0.149, -0.208, 1.978, -19.227, -9.973)" gradientUnits="objectBoundingBox">
      <stop offset="0" stop-color="#ee352c"/>
      <stop offset="1" stop-color="#a91d22"/>
    </radialGradient>
  </defs>
  <g id="Group_2398" data-name="Group 2398" transform="translate(25.615)">
    <path id="Path_22302" data-name="Path 22302" d="M355.162,463.277l-7.862,2.568-6.84,3.016-1.919.506c-.488.463-1,.934-1.552,1.409-.606.522-1.171,1-1.605,1.343a11.971,11.971,0,0,0-1.557,1.545,7,7,0,0,0-1.153,1.949,3.272,3.272,0,0,0,.463,2.942,10.419,10.419,0,0,0,4.3,3.227,27.277,27.277,0,0,0,3.779,1.265,50.036,50.036,0,0,0,8.059,1.147,9.215,9.215,0,0,0,1.04,0,14.164,14.164,0,0,0,.766-1.456,36.816,36.816,0,0,0,2.787-7.375,34.95,34.95,0,0,0,.713-5.11c.041-.577.059-2.507.023-3.161a22.233,22.233,0,0,0-.3-2.787.641.641,0,0,1-.018-.244,10.218,10.218,0,0,1,1.064-.321l-.2-.463h0Zm-1.794,1.051a19.231,19.231,0,0,1,.308,2.977,1.585,1.585,0,0,1,0,.4c-.048,0-1-.565-1.687-.992-.595-.374-1.723-1.123-1.9-1.265-.059-.041-.053-.048.433-.214C351.34,464.953,353.3,464.328,353.368,464.328Zm-4.005,1.319a1.972,1.972,0,0,1,.517.274,36.845,36.845,0,0,0,3.6,2c.219.095.244.059-.262.4a25.912,25.912,0,0,1-4.082,2.193c-.291.137-.535.232-.54.232a1.538,1.538,0,0,1,.071-.326,17.522,17.522,0,0,0,.636-4.178c0-.595,0-.595.059-.613l-.006.012Zm-.823.315a12.822,12.822,0,0,1-.036,1.73,15.117,15.117,0,0,1-.548,2.585,3.964,3.964,0,0,1-.137.411,10.464,10.464,0,0,1-1.1-1.076,8.041,8.041,0,0,1-1.1-1.593,5.009,5.009,0,0,1-.333-.809c.1-.064,3.228-1.272,3.25-1.247Zm-3.886,1.527a.022.022,0,0,1,.018,0,1.111,1.111,0,0,1,.089.214,8.034,8.034,0,0,0,.987,1.766,10.056,10.056,0,0,0,1.371,1.481c.137.119.274.232.291.249s.048.03-.921.4c-1.123.428-2.347.855-3.751,1.308l-1,.326c-.053.018-.036-.012.119-.255a33.415,33.415,0,0,0,2.347-4.731c.1-.262.2-.524.219-.583a.214.214,0,0,1,.137-.155.572.572,0,0,1,.094-.017Zm-1.189.493a13.3,13.3,0,0,1-.583,1.234c-.577,1.123-1.206,2.229-2.056,3.571-.137.232-.274.445-.3.47s-.041.03-.137-.155a5.448,5.448,0,0,1-.458-1.379,5.548,5.548,0,0,1,.03-1.771c.077-.369.071-.362.25-.451.764-.389,3.224-1.542,3.249-1.517Zm10.251.411v.25a32.311,32.311,0,0,1-.351,4.469c-.036.232-.066.422-.071.428s-.173-.048-.374-.107a15.341,15.341,0,0,1-2.733-1.171,12.109,12.109,0,0,1-1.39-.855s.255-.137.548-.291a35,35,0,0,0,3.25-1.908c.362-.244.909-.636,1.028-.743Zm-14.742,1.768c.023,0,.018.048-.018.262-.023.155-.053.44-.066.636a4.4,4.4,0,0,0,.524,2.389,4.933,4.933,0,0,1,.208.451c-.041.036-3.975,1.189-5.209,1.527l-.713.2c-.041.012-.048,0-.03-.095a6.243,6.243,0,0,1,1.73-2.977,7.685,7.685,0,0,1,1.955-1.5c.606-.344,1.539-.861,1.611-.885C338.962,470.163,338.967,470.163,338.974,470.163Zm9.271,1.659a2.4,2.4,0,0,1,.321.173,17.9,17.9,0,0,0,4.553,1.771l.137.03-.191.107c-.791.44-3.387,1.522-6.044,2.514-.387.137-.766.285-.838.315a.431.431,0,0,1-.137.041s.107-.214.244-.47a29.318,29.318,0,0,0,1.873-4.261c.047-.118.075-.219.082-.225Zm-.945.308a1.707,1.707,0,0,1-.1.274,37.635,37.635,0,0,1-2.056,4.154c-.219.392-.4.707-.411.707s-.184-.107-.4-.237a12.222,12.222,0,0,1-3.108-2.644l-.107-.137.54-.148a38.8,38.8,0,0,0,5.217-1.8c.226-.093.424-.171.424-.171Zm5.871,2.056h0c0,.137-.3,1.361-.548,2.247-.208.743-.387,1.326-.713,2.354-.137.452-.274.822-.274.822a.394.394,0,0,1-.077-.018,24.84,24.84,0,0,1-4.832-1.361c-.411-.166-1.01-.435-1.046-.463a6.959,6.959,0,0,1,.8-.374c2.7-1.183,5.509-2.526,6.472-3.1a.778.778,0,0,1,.222-.114Zm-13.556.463c.012.012-.743,1.1-1.8,2.579-.369.517-.8,1.123-.96,1.349s-.4.583-.541.8l-.249.387-.274-.226a9.9,9.9,0,0,1-1.1-1.13,4.878,4.878,0,0,1-.992-1.919c-.066-.285-.066-.428,0-.445.089-.023,1.677-.4,3.161-.743.823-.191,1.782-.411,2.128-.5s.629-.158.635-.158Zm.761.291.191.214a11.16,11.16,0,0,0,2.787,2.282,1.563,1.563,0,0,1,.321.208c-.041.03-3.672,1.319-5.354,1.9-.944.333-1.723.6-1.73.6a1.044,1.044,0,0,1-.119-.077l-.107-.077.173-.25c.558-.809,1.26-1.694,2.787-3.535Zm4.743,3.393s.274.089.588.208a19.043,19.043,0,0,0,2.2.685,24.4,24.4,0,0,0,3.334.577c.137.012.2.023.178.041s-.916.315-1.557.517c-1.023.321-4.143,1.242-6.686,1.973-.469.137-.873.25-.9.255a.47.47,0,0,1-.255-.066,4.309,4.309,0,0,1,.315-.4,35.286,35.286,0,0,0,2.413-3.245c.2-.307.362-.551.362-.557Zm-1.046.03s-.411.685-1.153,1.848c-.315.493-.666,1.051-.791,1.247s-.3.488-.4.654l-.173.3-.089-.023c-.214-.059-1.718-.588-2.115-.748a14.718,14.718,0,0,1-1.385-.636,5.778,5.778,0,0,1-1.023-.648c.012,0,.822-.226,1.807-.494,2.6-.707,4.047-1.117,4.993-1.415a2.428,2.428,0,0,1,.325-.1Zm7.4,1.735h0c.023.059-.939,2.733-1.29,3.578-.077.191-.107.237-.148.232-.1,0-1.5-.2-2.347-.326-1.479-.226-3.964-.659-4.588-.8l-.137-.03.886-.2c1.9-.428,2.817-.659,3.744-.944a26.441,26.441,0,0,0,3.5-1.349,2.885,2.885,0,0,1,.377-.166Z" transform="translate(-332.512 -444.949)" fill="url(#linear-gradient)"/>
    <path id="Path_22303" data-name="Path 22303" d="M464.83,82.734a37.784,37.784,0,0,0-3.6,1.3,22.494,22.494,0,0,0-4.143,2.085,3.145,3.145,0,0,0-.8.8.557.557,0,0,0-.036.2l.8.755,1.9.606,4.51.809,5.158.886.053-.446h-.048l-.677-.107-.137-.244c-.7-1.234-1.474-2.769-1.919-3.8a19.655,19.655,0,0,1-.868-2.395c-.1-.4-.112-.428-.178-.433h0Zm-.095.3h0s.03.173.053.369a12.424,12.424,0,0,0,.577,2.5c.219.654.219.618-.036.541-.606-.166-3.322-.636-5.289-.909-.315-.041-.583-.084-.583-.089-.023-.023,1.42-.779,2.056-1.076.82-.374,3.054-1.308,3.22-1.337ZM459.007,85.7l.232.077a35.424,35.424,0,0,0,6.169,1.176l.369.036a2.74,2.74,0,0,1-.374.2c-.844.422-1.771.939-2.413,1.337a2.469,2.469,0,0,1-.387.214c-.023,0-.148-.023-.274-.041l-.237-.036-.594-.583c-1.046-1.016-1.866-1.8-2.181-2.1Zm-.237.184.838,1.046c.458.577.921,1.141,1.023,1.265a1.941,1.941,0,0,1,.178.232c-.023.018-1.212-.214-1.842-.356s-.916-.219-1.313-.344l-.326-.107v-.084c0-.4.511-.992,1.371-1.6Zm7.12,1.426c.023,0,.053.053.125.214.2.446.832,1.645.987,1.878.048.077.137.084-.707-.053-2.015-.326-2.662-.433-2.662-.446a.617.617,0,0,1,.137-.089,11.6,11.6,0,0,0,1.812-1.254c.137-.112.262-.219.285-.237s.016-.021.022-.014Z" transform="translate(-450.287 -82.734)" fill="url(#linear-gradient-2)"/>
    <path id="Path_22304" data-name="Path 22304" d="M395.954,167.757a.592.592,0,0,0,0,.517,2.348,2.348,0,0,0,.559.659s2.644,2.58,2.965,2.947a8.262,8.262,0,0,1,2.158,5.645,9.143,9.143,0,0,1-.939,4.273c-1.234,2.7-3.838,5.675-7.868,8.98l.588-.2a18.882,18.882,0,0,1,2.11-1.254,75.209,75.209,0,0,1,9.812-4.387,122.368,122.368,0,0,1,19.914-5.337l.542-.084-.084-.137a18.338,18.338,0,0,0-1.194-1.682,14.281,14.281,0,0,0-4.219-3.512,31.292,31.292,0,0,0-9.158-3.072c-.72-.137-2.3-.411-3.583-.613-2.722-.422-4.481-.713-6.418-1.046-.695-.119-1.735-.3-2.425-.446a15.392,15.392,0,0,1-1.575-.422C396.7,168.429,396.079,168.263,395.954,167.757Zm1.534,1.486a1.661,1.661,0,0,1,.226.071c.226.077.517.166.862.262q.391.108.784.208c.356.089.654.173.659.173.041.041.642,1.962.844,2.7.077.274.137.517.137.517a1.2,1.2,0,0,1-.148-.232,12.373,12.373,0,0,0-3.067-3.464A2.537,2.537,0,0,1,397.488,169.243Zm2.924.809a2.331,2.331,0,0,1,.321.053c1.01.226,2.823.57,3.975.766a1.456,1.456,0,0,1,.351.077.6.6,0,0,1-.16.1c-.2.1-.987.57-1.247.748a11.387,11.387,0,0,0-1.682,1.343c-.173.173-.321.315-.321.315s-.036-.1-.066-.226a19.272,19.272,0,0,0-1.064-2.912,2.553,2.553,0,0,1-.119-.274C400.405,170.057,400.405,170.052,400.412,170.052Zm5.146.98a2.286,2.286,0,0,1,.214.659,9.734,9.734,0,0,1,.285,2.722,5.124,5.124,0,0,1-.036.511l-.018.059-.308-.1c-.636-.2-1.67-.506-2.555-.755-.506-.137-.916-.262-.916-.274a14.046,14.046,0,0,1,1.051-1.051,27.612,27.612,0,0,1,2.283-1.77Zm.411.059c.018-.018,2.461.4,3.571.618.823.16,2.026.411,2.1.44.036.012-.089.084-.488.262a25.794,25.794,0,0,0-3.893,2.115c-.3.2-.559.369-.565.369a3.258,3.258,0,0,1-.012-.38,8.3,8.3,0,0,0-.642-3.232.889.889,0,0,1-.07-.192Zm6.317,1.247a4.482,4.482,0,0,1-.137.784,14.9,14.9,0,0,1-1.5,3.435,3.919,3.919,0,0,1-.249.4,2.535,2.535,0,0,1-.357-.191,19.35,19.35,0,0,0-2.33-1.141c-.237-.1-.445-.184-.451-.2-.041-.036,1.873-1.3,2.879-1.908.81-.487,2.118-1.212,2.143-1.187Zm.451.071c.053,0,1.135.3,1.7.463a35.05,35.05,0,0,1,4.047,1.479l.433.2-.3.071a44.306,44.306,0,0,0-6.854,2.122c-.173.071-.326.137-.339.137a1.525,1.525,0,0,1,.125-.3,12.031,12.031,0,0,0,1.147-3.958c.008-.118.026-.207.044-.207Zm-10.768,2.467c.018-.018.844.178,1.29.3.677.191,2.115.672,2.115.707,0,0-.16.137-.351.308-.779.648-1.527,1.331-2.425,2.193-.274.255-.493.463-.5.463s-.018-.036-.012-.084a13.4,13.4,0,0,0-.084-3.583,1.61,1.61,0,0,1-.025-.3Zm17.359.018a11.4,11.4,0,0,1-.631.98c-.356.511-.88,1.189-2.056,2.674-.624.784-1.326,1.67-1.557,1.967s-.435.548-.44.548a2.033,2.033,0,0,1-.166-.237,12.284,12.284,0,0,0-2.407-2.657c-.178-.148-.374-.308-.44-.356a.661.661,0,0,1-.119-.1c0-.018,1.01-.452,1.782-.761,1.343-.548,3.173-1.2,4.546-1.623.71-.221,1.476-.441,1.489-.429Zm.458.119a1.372,1.372,0,0,1,.339.166,20.152,20.152,0,0,1,3.975,2.983c.315.308,1.1,1.117,1.082,1.123s-.274.023-.594.048a58.579,58.579,0,0,0-8.784,1.461c-.208.048-.392.089-.4.089s.219-.232.511-.511a15.207,15.207,0,0,0,3.607-4.8c.137-.291.255-.54.274-.559Zm-13.235,1.356c.084.018.855.38,1.438.672.535.274,1.337.7,1.379.731,0,0-.274.155-.629.326-1.117.559-2.074,1.087-3.072,1.694-.285.173-.522.315-.529.315s-.018-.023.137-.315a12.409,12.409,0,0,0,1.206-3.275c.029-.084.052-.144.07-.144Zm-.773.137a11.364,11.364,0,0,1-.309,1.147,14.639,14.639,0,0,1-1.051,2.413c-.095.166-.237.411-.315.548l-.148.237-.333-.321a4.366,4.366,0,0,0-1.1-.814,1.6,1.6,0,0,1-.285-.166c0-.048,1.016-.969,1.794-1.634.553-.473,1.734-1.419,1.752-1.4Zm4.725,1.944.291.191a22.582,22.582,0,0,1,2.056,1.515c.339.274.993.868,1.123,1.01l.071.077-.481.137c-2.722.755-4.825,1.426-7.28,2.33-.274.1-.506.184-.524.184s-.066.03.548-.535a26.094,26.094,0,0,0,3.993-4.588Zm-1.242.308c.012.012-.8,1.158-1.29,1.807-.583.773-1.616,2.069-2.33,2.912-.3.351-.548.642-.565.648s-.023-.084-.023-.219a4.981,4.981,0,0,0-.506-2.14c-.137-.274-.16-.339-.137-.369.112-.1,1.842-1.087,2.936-1.676.744-.381,1.893-.964,1.915-.953Zm-7.512,1.842a2.615,2.615,0,0,1,.31.155,6.532,6.532,0,0,1,1.023.685,1.78,1.78,0,0,1-.344.285c-.565.4-1.42,1.051-1.919,1.45-.524.411-.54.428-.481.339a10.2,10.2,0,0,0,1.3-2.616,1.009,1.009,0,0,1,.117-.289Zm2,1.568c.03,0,.066.048.226.285a4.286,4.286,0,0,1,.666,1.73l.012.119-.814.315c-1.456.565-2.8,1.123-3.708,1.539-.255.119-.7.333-.992.476s-.529.262-.529.255.184-.137.411-.308a23.965,23.965,0,0,0,4.469-4.112c.125-.148.237-.285.25-.291Zm-.921.226a12.561,12.561,0,0,1-1.117,1.26,19.709,19.709,0,0,1-3.69,2.977l-.356.226c-.041.023.012-.036.631-.707.392-.422.685-.779,1.028-1.219a2.009,2.009,0,0,1,.595-.565c.872-.62,2.887-1.986,2.91-1.962Z" transform="translate(-389.916 -163.662)" fill="url(#radial-gradient)"/>
  </g>
  <path id="Path_22305" data-name="Path 22305" d="M12.8,794.65c-.11,0-.219.011-.328.011a4.9,4.9,0,0,0-4.581,3,7.9,7.9,0,0,0,.008,5.7,4.946,4.946,0,0,0,4.165,2.921c.447.073.747.318,1.612,1.33l1.065,1.249h1.933l-1.284-1.3A13.694,13.694,0,0,1,14.1,806.18c0-.055.274-.173.6-.274a4.415,4.415,0,0,0,2.614-2.45,5.144,5.144,0,0,0,.655-2.632c.191-3.818-1.822-6.2-5.173-6.177Zm1.694,9.982a4.546,4.546,0,0,1-3.2.219,4.124,4.124,0,0,1-2.214-2.378,6.752,6.752,0,0,1,.127-4.354,3.674,3.674,0,0,1,3.489-2.288c2.35,0,3.688,1.439,3.862,4.144.137,2.258-.618,3.952-2.066,4.661Zm33.378-6.717a2.069,2.069,0,0,0-1.849.975l-.328.511v-1.334h-1.4v7.979h1.4V803.5c0-2.33.029-2.6.355-3.243a1.751,1.751,0,0,1,1.969-1.1l.5.147v-1.383h-.647Zm-8.24-.073a4.535,4.535,0,0,0-2.679,7.369,4.34,4.34,0,0,0,4.781.685c.318-.137.665-.292.665-.292V804.35l-.665.344a3.153,3.153,0,0,1-3.564-.117,3.6,3.6,0,0,1-.96-2.113h5.656v-1.076a3.173,3.173,0,0,0-3.242-3.542h0Zm-2.288,3.5a3.27,3.27,0,0,1,.984-1.905,2.115,2.115,0,0,1,1.22-.391,1.953,1.953,0,0,1,1.185.4,3.111,3.111,0,0,1,.822,1.885H37.343ZM3.528,799.9c-1.52-.921-2.193-1.586-2.112-2.369.236-2.167,2.914-1.867,4.4-1.047l.011-1.459a5.715,5.715,0,0,0-1.995-.374,3.383,3.383,0,0,0-3.515,1.767c-.8,1.782-.092,3.115,2.476,4.609,1.441.839,2.078,1.567,2.078,2.36,0,1.645-1.977,2.212-4.017,1.183-.419-.208-.775-.384-.794-.384a12.591,12.591,0,0,0-.036,1.576,8.725,8.725,0,0,0,1.567.445c2.33.465,4.452-.629,4.653-2.4.174-1.667-.428-2.542-2.713-3.907h0Zm56.752-2.078a4.253,4.253,0,0,0-.866.1A4.673,4.673,0,0,0,57.6,805.19a4.35,4.35,0,0,0,4.791.685c.318-.137.663-.291.663-.291v-1.257l-.665.347a3.153,3.153,0,0,1-3.564-.119,3.55,3.55,0,0,1-.96-2.113h5.646v-1.086a3.169,3.169,0,0,0-3.242-3.533h0Zm-2.288,3.5a3.323,3.323,0,0,1,.984-1.919,2.105,2.105,0,0,1,1.219-.392,1.953,1.953,0,0,1,1.184.4,3.131,3.131,0,0,1,.823,1.894H58v.01Zm-25.71-1.4c-1.52-.919-2.193-1.586-2.112-2.369.236-2.169,2.914-1.867,4.4-1.047l.011-1.458a5.689,5.689,0,0,0-1.995-.372,3.384,3.384,0,0,0-3.516,1.767c-.8,1.782-.081,3.114,2.477,4.609,1.439.838,2.077,1.556,2.077,2.35,0,1.645-1.977,2.222-4.017,1.183-.411-.208-.773-.381-.794-.381a12.594,12.594,0,0,0-.025,1.572,9.547,9.547,0,0,0,1.556.446c2.33.466,4.455-.626,4.661-2.4.173-1.659-.428-2.533-2.7-3.9h0ZM68.521,797.9a2.056,2.056,0,0,0-1.849.976l-.328.51v-1.328h-1.4v7.977h1.4v-2.551c0-2.33.029-2.6.355-3.242a1.749,1.749,0,0,1,1.969-1.1l.5.147V797.9h-.646Zm-47.393,1.977v-5.081H19.72v11.257h5.947v-1.33H21.133v-4.846Zm32.7,1.585-1.165,3.034-1.121-3.05-1.138-3.379H48.965c.938,2.659,1.959,5.364,2.987,7.986.446.011.892,0,1.339,0l1.574-3.952,1.6-4.034H55.084s-.611,1.6-1.247,3.4Zm-29.445-9.733a.775.775,0,0,0,.574-.23.763.763,0,0,0,.236-.563.749.749,0,0,0-.236-.564.786.786,0,0,0-.563-.219.774.774,0,0,0-.574.228.76.76,0,0,0-.228.563.736.736,0,0,0,.228.563.768.768,0,0,0,.563.219h0Zm-.5-1.3a.716.716,0,0,1,1.221.5.7.7,0,0,1-.208.51.685.685,0,0,1-.5.2.666.666,0,0,1-.5-.2.7.7,0,0,1-.208-.51.673.673,0,0,1,.206-.507Zm.337.574h.092c.064,0,.129.063.182.182l.11.247h.173l-.137-.274c-.055-.11-.11-.173-.173-.191a.332.332,0,0,0,.191-.1.251.251,0,0,0,.063-.182.233.233,0,0,0-.081-.192.458.458,0,0,0-.292-.081h-.291v1.02h.147V791Zm0-.474h.127a.327.327,0,0,1,.192.047c.034.027.044.063.044.128,0,.118-.073.174-.208.174H24.22v-.349Zm-23.36.384c0-.355-.011-.62-.019-.774H.857a2.33,2.33,0,0,0,.118.411l1.357,3.034H2.56l1.357-3.06a2.762,2.762,0,0,0,.118-.384h.011c-.027.3-.037.566-.037.776v2.677h.465v-3.975H3.892l-1.247,2.768c-.047.11-.11.274-.191.491H2.435a3.2,3.2,0,0,0-.182-.472l-1.22-2.8H.411v3.975H.86v-2.668H.868Zm4.627.007h.406V793.4h-.4Zm.2-.909a.283.283,0,0,0,.208-.084.29.29,0,0,0,.092-.208.262.262,0,0,0-.09-.208.293.293,0,0,0-.211-.084.287.287,0,0,0-.208.084.294.294,0,0,0-.092.208.252.252,0,0,0,.092.208.3.3,0,0,0,.208.084Zm3.06,3.442v-.436a1.155,1.155,0,0,1-.7.245.908.908,0,0,1-.7-.292,1.132,1.132,0,0,1-.265-.784,1.176,1.176,0,0,1,.282-.822.917.917,0,0,1,.71-.3,1.167,1.167,0,0,1,.674.219V790.8a1.391,1.391,0,0,0-.655-.147,1.4,1.4,0,0,0-1.076.429,1.6,1.6,0,0,0-.4,1.128,1.446,1.446,0,0,0,.363,1.021,1.292,1.292,0,0,0,.984.411,1.605,1.605,0,0,0,.783-.2ZM9.9,792.132a1.286,1.286,0,0,1,.208-.773.572.572,0,0,1,.465-.247.534.534,0,0,1,.344.092v-.474a.723.723,0,0,0-.274-.037.7.7,0,0,0-.439.156.959.959,0,0,0-.308.48h0v-.581H9.437v2.84h.455v-1.458Zm2.614,1.508a1.345,1.345,0,0,0,1.028-.411,1.792,1.792,0,0,0,.027-2.177,1.256,1.256,0,0,0-.992-.392,1.426,1.426,0,0,0-1.028.374,1.549,1.549,0,0,0-.411,1.147,1.48,1.48,0,0,0,.363,1.047,1.323,1.323,0,0,0,1.02.411h0Zm-.647-2.314a.9.9,0,0,1,.685-.274.849.849,0,0,1,.674.274,1.523,1.523,0,0,1,.018,1.63.831.831,0,0,1-.685.292.888.888,0,0,1-.692-.292,1.152,1.152,0,0,1-.255-.8,1.114,1.114,0,0,1,.262-.828Zm4.052,2.067a.745.745,0,0,0,.266-.583.711.711,0,0,0-.208-.52,1.606,1.606,0,0,0-.529-.31,1.659,1.659,0,0,1-.428-.237.391.391,0,0,1-.118-.292.344.344,0,0,1,.137-.282.562.562,0,0,1,.366-.108,1.072,1.072,0,0,1,.647.2v-.46a1.334,1.334,0,0,0-.611-.137,1.083,1.083,0,0,0-.721.236.78.78,0,0,0-.1,1.1,1.472,1.472,0,0,0,.51.318,1.925,1.925,0,0,1,.465.265.347.347,0,0,1,.118.274c0,.265-.182.4-.537.4a1.125,1.125,0,0,1-.739-.274v.491a1.341,1.341,0,0,0,.7.174,1.233,1.233,0,0,0,.783-.265Zm2.18-2.728a1.425,1.425,0,0,0-1.029.374,1.557,1.557,0,0,0-.411,1.147,1.392,1.392,0,0,0,2.413,1.047,1.529,1.529,0,0,0,.384-1.1,1.559,1.559,0,0,0-.355-1.084,1.285,1.285,0,0,0-.992-.392Zm.884,1.494a1.223,1.223,0,0,1-.228.8.831.831,0,0,1-.685.292.888.888,0,0,1-.692-.292,1.152,1.152,0,0,1-.255-.8,1.168,1.168,0,0,1,.274-.837.9.9,0,0,1,.685-.274.864.864,0,0,1,.673.274,1.384,1.384,0,0,1,.228.838Zm1.234,1.421h.454v-2.459h.665v-.383h-.673V790.3c0-.4.155-.6.474-.6a.628.628,0,0,1,.3.073v-.411a.836.836,0,0,0-.328-.045.848.848,0,0,0-.61.227.96.96,0,0,0-.292.738v.466H19.72v.383H20.2v2.45Zm1.866-.774c0,.555.245.839.747.839a.824.824,0,0,0,.428-.094v-.391a.476.476,0,0,1-.292.092.387.387,0,0,1-.326-.119.666.666,0,0,1-.1-.411v-1.6h.721v-.382h-.721V789.9c-.156.055-.31.1-.455.147v.685h-.491v.383h.483V792.8Zm48.879,5.236a.8.8,0,0,0-1.365.574.744.744,0,0,0,.226.563.8.8,0,0,0,.574.219.783.783,0,0,0,.574-.228.769.769,0,0,0,.234-.563.789.789,0,0,0-.245-.566Zm-.073,1.076a.732.732,0,0,1-1,0,.708.708,0,0,1-.208-.511.71.71,0,0,1,1.42,0,.656.656,0,0,1-.223.5Zm-.411-.465a.393.393,0,0,0,.191-.1.251.251,0,0,0,.063-.184.233.233,0,0,0-.081-.191.458.458,0,0,0-.292-.081h-.291v1.02h.147v-.428h.09c.063,0,.125.063.182.182l.108.245h.174l-.137-.274c-.047-.119-.1-.174-.156-.19Zm-.1-.092h-.156v-.344h.129a.321.321,0,0,1,.191.045c.037.027.045.063.045.128,0,.118-.073.173-.208.173Zm-25.411-7.947h.127V789.6h.337v-.128H44.62v.128h.343Zm.773-.766a1.838,1.838,0,0,0-.007-.226.631.631,0,0,0,.036.118l.392.876h.063l.388-.884c.011-.027.019-.063.037-.11-.008.09-.008.165-.008.219v.773h.137v-1.147h-.166l-.356.785c-.008.029-.037.084-.055.147h-.011a.835.835,0,0,0-.052-.137l-.355-.8h-.184v1.149h.129v-.766Z" transform="translate(-0.002 -751.298)" fill="#231f1f"/>
</svg>
