<svg xmlns="http://www.w3.org/2000/svg" width="59.609" height="47.91" viewBox="0 0 59.609 47.91">
  <g id="google-cloud-tech" transform="translate(-0.005 -0.008)">
    <path id="Path_22093" data-name="Path 22093" d="M63.206,13.23l5.181-5.181.345-2.182A23.341,23.341,0,0,0,35.77,7.9a23.95,23.95,0,0,0-5.054,9.466l1.856-.261L42.935,15.4l.8-.818a12.981,12.981,0,0,1,17.726-1.436Z" transform="translate(-23.565)" fill="#ea4335"/>
    <path id="Path_22094" data-name="Path 22094" d="M145.8,36.541A23.342,23.342,0,0,0,138.76,25.2l-7.272,7.272a12.926,12.926,0,0,1,4.745,10.254v1.291a6.436,6.436,0,1,1,0,12.872H123.271L122,58.266v7.763l1.273,1.218h12.962A16.787,16.787,0,0,0,145.8,36.541" transform="translate(-93.592 -19.33)" fill="#4285f4"/>
    <path id="Path_22095" data-name="Path 22095" d="M38.386,169.736H51.33V159.373H38.386a6.35,6.35,0,0,1-2.654-.582l-1.836.563-5.218,5.181-.455,1.764a16.8,16.8,0,0,0,10.163,3.436" transform="translate(-21.652 -121.819)" fill="#34a853"/>
    <path id="Path_22096" data-name="Path 22096" d="M16.734,61.425A16.835,16.835,0,0,0,6.572,91.6l7.508-7.5a6.472,6.472,0,1,1,8.563-8.563l7.509-7.508a16.817,16.817,0,0,0-13.417-6.6" transform="translate(0 -47.123)" fill="#fbbc05"/>
  </g>
</svg>
