<svg xmlns="http://www.w3.org/2000/svg" width="71.113" height="42.528" viewBox="0 0 71.113 42.528">
  <g id="Group_103428" data-name="Group 103428" transform="translate(6967 -9199.923)">
    <path id="Path_22091" data-name="Path 22091" d="M29.532,15.444a7.156,7.156,0,0,0,.26,2.1,12.66,12.66,0,0,0,.757,1.7,1.029,1.029,0,0,1,.166.544.936.936,0,0,1-.449.71l-1.49.993a1.134,1.134,0,0,1-.615.213,1.088,1.088,0,0,1-.71-.331,7.317,7.317,0,0,1-.851-1.112c-.237-.4-.473-.851-.733-1.4a8.737,8.737,0,0,1-6.953,3.264,6.48,6.48,0,0,1-4.73-1.7,6.076,6.076,0,0,1-1.75-4.541,6.088,6.088,0,0,1,2.152-4.872,8.6,8.6,0,0,1,5.8-1.845,18.726,18.726,0,0,1,2.507.189c.875.118,1.774.307,2.72.52V8.16A5.241,5.241,0,0,0,24.5,4.376a5.444,5.444,0,0,0-3.855-1.088,10.765,10.765,0,0,0-2.556.307,18.846,18.846,0,0,0-2.552.8,6.786,6.786,0,0,1-.828.307,1.451,1.451,0,0,1-.378.071c-.331,0-.5-.237-.5-.733V2.885a1.5,1.5,0,0,1,.166-.828,1.771,1.771,0,0,1,.662-.5A13.616,13.616,0,0,1,17.635.5a14.339,14.339,0,0,1,3.69-.449c2.815,0,4.872.639,6.2,1.916,1.3,1.277,1.963,3.217,1.963,5.818v7.663Zm-9.6,3.6a7.665,7.665,0,0,0,2.436-.426A5.27,5.27,0,0,0,24.612,17.1a3.754,3.754,0,0,0,.8-1.514,8.491,8.491,0,0,0,.237-2.058v-.993a19.751,19.751,0,0,0-2.176-.4,17.822,17.822,0,0,0-2.223-.142,5.452,5.452,0,0,0-3.524.946,3.3,3.3,0,0,0-1.159,2.72,3.052,3.052,0,0,0,3.358,3.382M38.917,21.6a1.32,1.32,0,0,1-.9-.237,1.928,1.928,0,0,1-.5-.922L31.968,2.152a4.143,4.143,0,0,1-.213-.946.519.519,0,0,1,.568-.591h2.318a1.311,1.311,0,0,1,.922.237,1.935,1.935,0,0,1,.473.922l3.973,15.657L43.7,1.774a1.659,1.659,0,0,1,.449-.922A1.627,1.627,0,0,1,45.1.615h1.892a1.423,1.423,0,0,1,.946.237,1.594,1.594,0,0,1,.449.922L52.119,17.62,56.211,1.774a2.028,2.028,0,0,1,.473-.922,1.543,1.543,0,0,1,.922-.237h2.2a.526.526,0,0,1,.591.591,2.359,2.359,0,0,1-.047.378,3.365,3.365,0,0,1-.166.591l-5.7,18.282a1.813,1.813,0,0,1-.5.922,1.513,1.513,0,0,1-.9.237H51.055a1.423,1.423,0,0,1-.946-.237,1.677,1.677,0,0,1-.449-.946L45.993,5.18,42.351,20.411a1.846,1.846,0,0,1-.449.946,1.466,1.466,0,0,1-.946.237Zm30.392.639a15.651,15.651,0,0,1-3.642-.426,10.759,10.759,0,0,1-2.72-.946,1.7,1.7,0,0,1-.733-.662,1.669,1.669,0,0,1-.142-.662V18.33c0-.5.189-.733.544-.733a1.339,1.339,0,0,1,.426.071c.142.047.355.142.591.237a12.865,12.865,0,0,0,2.6.828,14.2,14.2,0,0,0,2.814.284,6.381,6.381,0,0,0,3.453-.78,2.547,2.547,0,0,0,1.23-2.247,2.3,2.3,0,0,0-.639-1.656A5.934,5.934,0,0,0,70.7,13.1L67.273,12.04A7.214,7.214,0,0,1,63.5,9.626,5.635,5.635,0,0,1,62.313,6.2a5.264,5.264,0,0,1,.639-2.625,6.081,6.081,0,0,1,1.7-1.939A7.507,7.507,0,0,1,67.114.4a10.308,10.308,0,0,1,2.98-.4,11.873,11.873,0,0,1,1.585.095c.544.071,1.041.166,1.537.26.473.118.922.237,1.348.378a5.162,5.162,0,0,1,.993.426,2.045,2.045,0,0,1,.71.591,1.275,1.275,0,0,1,.213.78V3.642c0,.5-.189.757-.544.757a2.46,2.46,0,0,1-.9-.284A10.82,10.82,0,0,0,70.5,3.193a6.1,6.1,0,0,0-3.146.662,2.284,2.284,0,0,0-1.112,2.1,2.233,2.233,0,0,0,.71,1.679,7.065,7.065,0,0,0,2.6,1.3L72.908,10a7.193,7.193,0,0,1,3.666,2.271,5.352,5.352,0,0,1,1.088,3.311,6.08,6.08,0,0,1-.615,2.744,6.361,6.361,0,0,1-1.727,2.081,7.624,7.624,0,0,1-2.62,1.329,11.247,11.247,0,0,1-3.382.5" transform="translate(-6976.492 9199.924)"/>
    <path id="Path_22092" data-name="Path 22092" d="M64.292,119.308c-7.781,5.747-19.087,8.8-28.807,8.8A52.116,52.116,0,0,1,.315,114.7c-.733-.662-.071-1.561.8-1.041A70.927,70.927,0,0,0,36.312,123a70.229,70.229,0,0,0,26.844-5.487c1.3-.591,2.412.851,1.135,1.8m3.24-3.69c-.993-1.277-6.575-.615-9.106-.307-.757.1-.875-.568-.189-1.064,4.446-3.122,11.755-2.223,12.606-1.183.851,1.064-.237,8.373-4.4,11.873-.639.544-1.254.26-.97-.449.946-2.341,3.051-7.616,2.058-8.869" transform="translate(-6967 9114.343)" fill="#f90"/>
    <rect id="Rectangle_517" data-name="Rectangle 517" width="71.113" height="42.525" transform="translate(-6967 9199.924)" fill="none"/>
  </g>
</svg>
