<svg id="azure-tech" xmlns="http://www.w3.org/2000/svg" width="112.132" height="32.538" viewBox="0 0 112.132 32.538">
  <path id="path7291" d="M41.718,12.347l-6.17,12.426,10.863,12.59-20.162,2.29,31.284.327Z" transform="translate(-15.821 -7.442)" fill="#1a84ff" fill-rule="evenodd"/>
  <path id="path7293" d="M24.68,0,10.515,11.854,0,29.595l8.951-.9Z" fill="#1a84ff" fill-rule="evenodd"/>
  <path id="text7295" d="M124.484,31.581l-6.775,16.613h2.3l1.762-4.657h7.489l1.872,4.657h2.291l-6.8-16.613Zm1.01,2.016h.049a6.443,6.443,0,0,0,.271,1.112l2.772,7.079h-6.122l2.747-7.079a5.906,5.906,0,0,0,.283-1.112Zm52.385,2.456a5.516,5.516,0,0,0-4.151,1.749,6.249,6.249,0,0,0-1.663,4.507,6.382,6.382,0,0,0,1.527,4.553,5.511,5.511,0,0,0,4.2,1.61,7.665,7.665,0,0,0,4.4-1.135V45.553a6.443,6.443,0,0,1-3.917,1.32,4.042,4.042,0,0,1-2.981-1.077,4.281,4.281,0,0,1-1.133-3.059h8.906v-1a6.03,6.03,0,0,0-1.355-4.182,4.888,4.888,0,0,0-3.831-1.506Zm-9.025.07a3.1,3.1,0,0,0-1.983.707,4.086,4.086,0,0,0-1.318,1.946H165.5V36.331h-2.02V48.195h2.02V42.147a5.094,5.094,0,0,1,.862-3.128,2.635,2.635,0,0,1,2.168-1.147,2.587,2.587,0,0,1,1.527.382v-1.97a3.492,3.492,0,0,0-1.2-.161Zm-33.374.208v1.622h6.762L134.778,47.6v.591h10.359V46.573h-7.391l7.465-9.7v-.544H135.48Zm12.77,0v7.09q0,5.051,4.509,5.051a4.194,4.194,0,0,0,3.892-2.155h.049v1.877h2.02V36.331H156.7v6.835a3.785,3.785,0,0,1-.961,2.688,3.167,3.167,0,0,1-2.427,1.019q-3.055,0-3.055-3.753V36.331Zm29.593,1.321a2.943,2.943,0,0,1,2.3.915,3.7,3.7,0,0,1,.85,2.56h-6.812a4.257,4.257,0,0,1,1.232-2.514,3.367,3.367,0,0,1,2.429-.961Z" transform="translate(-70.946 -19.035)" fill="#1a84ff"/>
</svg>
