<svg id="Layer_2" data-name="Layer 2" xmlns="http://www.w3.org/2000/svg" width="91.82" height="90.674" viewBox="0 0 91.82 90.674">
  <g id="Layer_1" data-name="Layer 1">
    <g id="Page-1">
      <g id="Artboard">
        <g id="Terraform_VerticalLogo_FullColor" data-name="Terraform VerticalLogo FullColor">
          <path id="Shape" d="M2.31,223.514v-1.676H.794V223.5H0V219.5H.791v1.685H2.307V219.5H3.1v4.016Zm3.637,0H5.341l-.055-.212a1.7,1.7,0,0,1-.909.252c-.555,0-.791-.364-.791-.861s.27-.791.879-.791h.727v-.3c0-.324-.094-.433-.576-.433a4.388,4.388,0,0,0-.84.088l-.094-.555a4.1,4.1,0,0,1,1.061-.142c.949,0,1.212.324,1.212,1.043Zm-.794-1.091H4.641c-.246,0-.3.064-.3.285s.07.3.3.3a1.213,1.213,0,0,0,.57-.152Zm2.373,1.155a3.692,3.692,0,0,1-1.043-.167l.1-.555a3.511,3.511,0,0,0,.909.127c.333,0,.388-.07.388-.3s0-.27-.53-.379c-.737-.173-.791-.349-.791-.909s.27-.84,1.131-.84a4.129,4.129,0,0,1,.909.1l-.07.576a5.534,5.534,0,0,0-.831-.088c-.333,0-.388.07-.388.252s0,.252.427.349c.846.212.925.324.925.909s-.206.894-1.115.894Zm3.465-.064v-2.025c0-.158-.07-.23-.246-.23a2.152,2.152,0,0,0-.791.246v2.01H9.172V219.44l.791.112v1.27a2.752,2.752,0,0,1,1.106-.276c.5,0,.679.339.679.855v2.1Zm1.4-3.3V219.5h.791v.712Zm0,3.3v-2.91h.791v2.9Zm1.361-2.87c0-.727.443-1.146,1.47-1.146a4.851,4.851,0,0,1,1.122.133l-.088.649a6.326,6.326,0,0,0-1.012-.142c-.537,0-.712.182-.712.606v1.516c0,.418.173.606.712.606a6.325,6.325,0,0,0,1.012-.1l.088.649a4.851,4.851,0,0,1-1.122.133c-1.028,0-1.47-.418-1.47-1.146Zm4.262,2.934c-1.037,0-1.312-.546-1.312-1.14v-.712c0-.606.276-1.14,1.312-1.14s1.312.546,1.312,1.14v.737C19.327,223.038,19.051,223.584,18.014,223.584Zm0-2.373c-.4,0-.561.173-.561.5v.791c0,.324.158.5.561.5s.561-.173.561-.5v-.8c0-.355-.158-.53-.561-.53Zm3.44.048a6,6,0,0,0-.791.418v1.873h-.791v-2.94h.688v.3a3.441,3.441,0,0,1,.791-.379Zm3.061,1.258a.894.894,0,0,1-1,1.021,4.334,4.334,0,0,1-.791-.088v1.185l-.791.112V220.61h.606l.07.246a1.628,1.628,0,0,1,.958-.3c.606,0,.934.349.934,1Zm-1.8.324a3.485,3.485,0,0,0,.673.079c.27,0,.379-.127.379-.388v-.979c0-.236-.094-.373-.373-.373a1.091,1.091,0,0,0-.673.261Z" transform="translate(0 -152.924)"/>
          <path id="Shape-2" data-name="Shape" d="M4.61,246.532H0V243.78H12.343v2.752H7.732v13.758H4.61Z" transform="translate(0 -169.887)"/>
          <path id="Shape-3" data-name="Shape" d="M37.761,267.726a12.653,12.653,0,0,0,3.695-.567l.476,2.276a12.96,12.96,0,0,1-4.435.791c-3.8,0-5.107-1.764-5.107-4.659V262.4c0-2.555,1.14-4.744,5-4.744s4.744,2.252,4.744,4.85v2.576H35.415v.606C35.415,267.16,35.927,267.726,37.761,267.726Zm-2.37-5.083h3.853v-.606c0-1.14-.349-1.931-1.834-1.931s-2.01.791-2.01,1.931Z" transform="translate(-22.572 -179.559)"/>
          <path id="Shape-4" data-name="Shape" d="M76.863,260.387a23.671,23.671,0,0,0-3.162,1.764v7.781H70.64V257.856H73.2l.2,1.337a13.521,13.521,0,0,1,3.161-1.582Z" transform="translate(-49.228 -179.524)"/>
          <path id="Shape-5" data-name="Shape" d="M101.226,260.387a23.671,23.671,0,0,0-3.161,1.764v7.781H95V257.856h2.555l.2,1.337a13.521,13.521,0,0,1,3.161-1.582Z" transform="translate(-66.204 -179.524)"/>
          <path id="Shape-6" data-name="Shape" d="M127.158,269.992h-2.476l-.221-.791a6.6,6.6,0,0,1-3.589,1.067c-2.207,0-3.161-1.516-3.161-3.589,0-2.452,1.067-3.392,3.519-3.392h2.9v-1.264c0-1.337-.373-1.819-2.3-1.819a16.863,16.863,0,0,0-3.334.373l-.394-2.3a15.762,15.762,0,0,1,4.135-.57c3.795,0,4.91,1.337,4.91,4.365Zm-3.031-4.562H121.9c-.988,0-1.264.27-1.264,1.185s.27,1.212,1.212,1.212a4.744,4.744,0,0,0,2.276-.606Z" transform="translate(-82.03 -179.594)"/>
          <path id="Shape-7" data-name="Shape" d="M161.051,243.193a8.874,8.874,0,0,0-1.731-.2c-1.185,0-1.361.521-1.361,1.44v1.516h3.068l-.173,2.373h-2.9v9.663h-3.031v-9.639H153v-2.373h1.931V244.26c0-2.507,1.161-3.74,3.844-3.74a9.576,9.576,0,0,1,2.6.349Z" transform="translate(-106.623 -167.615)"/>
          <path id="Shape-8" data-name="Shape" d="M186.93,270.23c-4.134,0-5.25-2.276-5.25-4.744v-3.052c0-2.476,1.115-4.744,5.25-4.744s5.259,2.276,5.259,4.744v3.052C192.186,267.944,191.071,270.23,186.93,270.23Zm0-9.988c-1.582,0-2.231.718-2.231,2.079v3.252c0,1.361.606,2.079,2.231,2.079s2.231-.718,2.231-2.079v-3.243C189.161,260.964,188.536,260.242,186.93,260.242Z" transform="translate(-126.61 -179.58)"/>
          <path id="Shape-9" data-name="Shape" d="M227.714,260.387a23.668,23.668,0,0,0-3.162,1.764v7.781H221.5V257.856h2.555l.2,1.337a13.522,13.522,0,0,1,3.158-1.582Z" transform="translate(-154.36 -179.524)"/>
          <path id="Shape-10" data-name="Shape" d="M253.009,269.907v-8.424c0-.64-.27-.964-.964-.964a8.335,8.335,0,0,0-3.161,1.022v8.375h-3V257.84h2.3l.3,1.021a12.091,12.091,0,0,1,4.832-1.264,2.294,2.294,0,0,1,2.276,1.288,11.86,11.86,0,0,1,4.85-1.288c2.01,0,2.728,1.416,2.728,3.568v8.745h-3.007v-8.427c0-.64-.27-.964-.964-.964a8,8,0,0,0-3.161,1.022v8.375Z" transform="translate(-171.35 -179.509)"/>
          <path id="Shape-11" data-name="Shape" d="M123.86,35.58l16.732,9.663V64.57L123.86,54.907Z" transform="translate(-86.316 -24.795)" fill="#5c4ee5"/>
          <path id="Shape-12" data-name="Shape" d="M185.11,45.243V64.57l16.741-9.663V35.58Z" transform="translate(-129 -24.795)" fill="#4040b2"/>
          <path id="Shape-13" data-name="Shape" d="M62.61,0V19.327L79.342,28.99V9.663Z" transform="translate(-43.632)" fill="#5c4ee5"/>
          <path id="Shape-14" data-name="Shape" d="M123.86,125.648l16.732,9.663V115.993L123.86,106.33Z" transform="translate(-86.316 -74.1)" fill="#5c4ee5"/>
        </g>
      </g>
    </g>
  </g>
</svg>
